<?xml version="1.0" encoding="UTF-8" standalone="no"?>
<!-- Created with Inkscape (http://www.inkscape.org/) -->

<svg
   xmlns:dc="http://purl.org/dc/elements/1.1/"
   xmlns:cc="http://creativecommons.org/ns#"
   xmlns:rdf="http://www.w3.org/1999/02/22-rdf-syntax-ns#"
   xmlns:svg="http://www.w3.org/2000/svg"
   xmlns="http://www.w3.org/2000/svg"
   xmlns:sodipodi="http://sodipodi.sourceforge.net/DTD/sodipodi-0.dtd"
   xmlns:inkscape="http://www.inkscape.org/namespaces/inkscape"
   width="210mm"
   height="297mm"
   viewBox="0 0 210 297"
   version="1.1"
   id="svg3631"
   inkscape:version="0.92.4 (5da689c313, 2019-01-14)"
   sodipodi:docname="flower3.svg">
  <defs
     id="defs3625">
    <clipPath
       clipPathUnits="userSpaceOnUse"
       id="clipPath18">
      <path
         d="M 0,600.949 H 847.559 V 0 H 0 Z"
         id="path16"
         inkscape:connector-curvature="0" />
    </clipPath>
    <linearGradient
       id="a"
       x1="104.73"
       x2="494.51999"
       y1="335.72"
       y2="895.84003"
       gradientUnits="userSpaceOnUse">
      <stop
         stop-color="#e00"
         offset="0"
         id="stop2" />
      <stop
         stop-color="#9a0000"
         offset="1"
         id="stop4" />
    </linearGradient>
  </defs>
  <sodipodi:namedview
     id="base"
     pagecolor="#ffffff"
     bordercolor="#666666"
     borderopacity="1.0"
     inkscape:pageopacity="0.0"
     inkscape:pageshadow="2"
     inkscape:zoom="0.40023349"
     inkscape:cx="161.8097"
     inkscape:cy="598.43506"
     inkscape:document-units="mm"
     inkscape:current-layer="g13322"
     showgrid="false"
     showguides="true"
     inkscape:guide-bbox="true"
     inkscape:window-width="1920"
     inkscape:window-height="1001"
     inkscape:window-x="-9"
     inkscape:window-y="-9"
     inkscape:window-maximized="1"
     inkscape:snap-global="false">
    <sodipodi:guide
       position="72.922013,252.88982"
       orientation="0,1"
       id="guide4178"
       inkscape:locked="false" />
    <sodipodi:guide
       position="244.00828,43.005291"
       orientation="0,1"
       id="guide4180"
       inkscape:locked="false" />
  </sodipodi:namedview>
  <metadata
     id="metadata3628">
    <rdf:RDF>
      <cc:Work
         rdf:about="">
        <dc:format>image/svg+xml</dc:format>
        <dc:type
           rdf:resource="http://purl.org/dc/dcmitype/StillImage" />
        <dc:title></dc:title>
      </cc:Work>
    </rdf:RDF>
  </metadata>
  <g
     inkscape:label="Layer 1"
     inkscape:groupmode="layer"
     id="layer1">
    <g
       id="g11993"
       transform="translate(0.01320793,-14.655723)">
      <g
         id="g13089"
         transform="translate(82.634057,73.671243)" />
      <g
         id="g13149"
         transform="translate(-201.84655,50.507363)">
        <g
           id="g13322"
           transform="matrix(1.1273338,0,0,1.1273338,-306.73935,-296.52144)">
          <g
             transform="matrix(0.10639612,0,0,0.10639612,494.32827,271.53821)"
             id="g1046">
            <path
               inkscape:connector-curvature="0"
               id="path2"
               d="m 462.64,407.56 c -0.388,0.655 -1.447,0.98 -1.011,2.041 0.321,0.782 0.079,1.043 -0.744,0.868 -16.595,-3.535 -25.971,4.853 -66.203,-6.345 0,0 -36.066,-8.083 -36.068,-8.084 -5.235,-1.034 2.421,5.269 -1.24,10.6 -1.585,2.308 6.816,26.382 26.378,39.459 2.951,1.973 9.506,-1.596 12.647,1.363 3.976,3.747 3.26,-4.188 8.778,-0.737 3.843,2.403 6.544,0.36 8.893,1.6 5.634,2.973 -7.836,8.158 -14.182,7.924 -1.812,-0.067 -2.268,0.45 -1.506,2.063 1.942,4.114 1.454,3.872 3.722,3.399 1.849,-0.385 3.257,2.245 0.68,4.872 -3.476,3.543 -1.919,7.784 -5.029,16.092 -2.002,5.348 0.656,2.706 -0.32,5.912 -0.852,2.796 -3.295,5.364 -1.171,8.567 -2.347,5.858 -9.827,60.702 -9.486,75.244 -1.746,2.16 0.954,5.429 -1.825,7.354 -0.13,0.09 -0.143,0.663 -0.018,0.76 2.586,1.993 -0.429,5.364 1.842,7.448 0.309,0.283 -0.189,0.661 -0.379,1.007 -2.39,4.341 -7.618,72.805 -4.712,74.625 0.667,0.418 0.652,1.255 0.15,1.875 -1.598,1.975 -2.149,8.896 -1.653,9.603 2.373,3.383 0.496,2.242 0.073,30.659 -0.205,13.785 2.55,14.17 -0.267,21.901 2.744,1.575 1.591,4.155 1.53,6.375 -0.054,1.95 1.39,4.883 0.84,7.523 -1.006,4.831 2.007,9.767 2.007,9.767 -4.53,5.889 2.105,30.547 1.866,45.614 -0.099,6.236 8.843,4.443 13.32,6.974 7.881,4.454 11.903,3.972 12.282,7.144 0.138,1.154 -6.249,8.757 -10.339,9.764 -1.001,0.247 -12.392,26.193 -10.257,28.746 2.381,2.848 19.387,99.132 19.159,99.272 -1.673,1.027 -1.292,4.51 -0.149,4.739 1.004,0.201 0.8,-0.909 1.161,-1.418 2.888,-4.064 2.275,1.355 1.275,1.952 -0.923,0.551 -0.463,1.166 -0.185,1.782 2.071,4.581 11.244,-36.024 16.428,-43.899 1.673,-2.542 3.312,-5.161 3.183,-8.487 -0.04,-1.037 0.314,-2.241 1.043,-3.186 3.847,-4.982 6.245,-10.76 8.835,-16.409 2.842,-6.199 7.118,-11.498 10.565,-17.315 3.986,-6.727 0.068,-2.243 -0.694,-20.332 -0.158,-3.737 0.61,-38.371 2.993,-45.363 1.219,-3.578 10.543,0.719 8.436,9.844 -1.376,5.958 -0.608,11.93 0.159,17.858 0.708,5.467 -1.941,4.453 -1.033,7.522 0.611,2.064 2.523,4.33 -0.519,6.109 0.103,2.99 -1.313,5.6 -2.029,8.388 -0.66,2.569 1.79,4.842 1.127,7.586 -0.613,2.538 4.629,-2.325 5.33,-5.493 1.944,-8.795 26.714,-31.881 32.298,-36.913 52.093,-46.94 42.716,-19.454 28.091,-14.244 -1.549,2.849 -4.585,3.648 -7.094,5.188 -1.306,0.802 -1.591,2.424 -2.578,3.571 -24.214,28.149 -29.501,22.5 -17.649,28.725 1.597,0.839 2.258,-0.249 1.476,-1.447 -3.989,-6.117 7.415,0.318 9.274,-5.077 0.31,-0.9 1.811,-1.129 2.388,0.1 2.313,4.935 18.286,-2.105 17.974,6.643 -0.286,7.995 24.659,-23.262 29.276,-19.118 3.064,2.75 -6.645,7.346 -7.391,10.5 -4.799,1.083 -5.286,7.242 -9.987,8.486 -5.726,1.516 15.839,8.239 22.229,9.087 2.423,0.321 4.645,2.737 6.759,4.454 0.646,0.525 0.851,1.367 1.896,0.827 3.878,-2.004 6.972,0.201 10.006,2.057 9.191,5.623 22.338,8.928 24.452,12.609 3.438,5.987 8.216,1.974 10.246,3.326 0,0 16.138,8.19 16.19,8.212 5.833,2.464 4.061,5.941 8.56,5.106 1.704,-0.316 3.515,1.835 5.347,-0.033 0.246,-0.251 1.119,-0.146 1.15,-0.312 0.61,-3.193 5.049,-3.599 5.096,-5.682 0.02,-0.851 -1.45,-1.867 -0.109,-2.438 0.657,-0.28 0.793,1.342 1.438,1.858 0.604,0.484 0.246,0.258 8.377,-5.298 1.464,-1.001 2.996,-0.522 1.234,1.355 -8.181,8.717 -7.855,4.03 -11.153,9.842 -0.258,0.455 -0.105,1.816 1.233,1.485 3.917,-0.969 7.272,2.249 11.179,1.462 0.916,-0.184 3.752,3.296 0.673,3.52 -10.485,0.764 -27.096,-3.558 -21.479,0.929 7.208,5.758 -2.842,41.614 -4.058,-0.062 -0.123,-4.228 -1.869,-5.19 -16.43,-9.515 -0.382,-0.113 -12.723,-6.152 -19.576,-9.025 -0.883,-0.37 -1.771,0.559 -0.59,1.269 10.238,6.156 3.661,7.964 7.251,15.227 0.555,1.124 1.323,2.341 0.589,3.617 -1.051,1.828 2.395,2.469 0.986,4.5 -3.507,5.059 0.109,4.186 -2.836,8.2 -4.467,6.085 1.145,7.247 -5.322,12.869 -2.09,1.817 -1.26,0.375 -1.44,-0.625 0,-0.002 -0.523,-26.862 -0.523,-26.862 2.729,-25.219 -4.787,-19.01 -33.768,-34.959 -4.597,-2.53 -5.689,1.25 -7.811,-1.666 -3.359,-4.615 -16.644,-3.128 -17.433,-7.412 -0.341,-1.854 -8.236,-3.448 -9.805,-2.042 -10.55,9.459 -3.97,60.12 4.472,59.834 4.116,-0.14 -0.813,4.046 4.746,5.748 0,0 7.102,8.728 16.181,12.106 4.224,1.572 38.072,9.874 40.177,7.27 5.765,3.328 10.6,-2.904 18.758,-0.35 0.721,0.226 0.917,-0.006 1.341,-0.433 2.798,-2.82 4.124,-3.047 7.154,-1.549 3.028,1.497 0.909,5.315 -1.131,3.121 -0.191,-0.205 -0.93,-0.219 -1.159,-0.023 -4.433,3.804 -74.804,20.27 -104.42,-35.988 -4.894,-9.295 -3.291,-36.281 1.473,-41.54 12.191,-13.458 -4.31,-10.372 -20.037,-10.207 -5.357,0.057 -1.21,-0.576 -5.992,-3.858 -1.326,-0.91 -1.689,-0.692 -1.078,0.787 2.649,6.418 -0.431,2.919 -1.431,3.836 -0.577,0.529 1.413,1.651 -0.323,1.728 -1,0.044 -6.403,3.045 -4.882,-2.463 0.729,-2.639 -0.799,-1.173 -3.4,-1.011 -2.926,0.183 0.971,3.356 -1.744,2.816 -3.421,-0.68 -5.313,2.354 -5.744,4.223 -0.589,2.552 -2.912,0.237 -3.207,2.026 -0.419,2.543 3.172,-0.01 2.877,2.374 -0.08,0.647 0.273,1.373 0.516,2.03 1.972,5.33 -1.396,1.475 -3.747,5.561 -4.244,7.373 -33.098,26.884 -42.164,98.551 -0.216,1.711 -2.302,1.702 -3.139,3.461 -2.431,5.111 -1.855,10.757 -3.699,15.882 -0.819,2.276 2.94,2.936 0.273,5.189 -1.229,1.039 -0.213,2.91 -1.818,4.06 -3.105,2.226 1.734,4.07 0.298,5.543 -2.334,2.395 2.572,2.875 0.533,6.007 -0.75,1.153 -10.112,-3.508 -12.063,1.185 -3.01,-1.725 -2.468,-1.66 -9.385,-1.559 -15.504,0.228 -10.216,-2.118 -13.69,-18.144 -2.996,-13.82 -4.123,-12.277 -2.18,-13.033 0.132,-0.051 0.188,-0.671 0.174,-0.675 -2.848,-0.844 -1.668,-4.316 -4.038,-5.825 -3.473,-2.212 -4.746,-6.559 -7.68,-9.492 -1.494,-1.494 -0.225,-4.169 -1.335,-6.318 -1.053,-2.039 -2.718,-4.211 -1.89,-6.931 0.082,-0.27 -0.752,-1.194 -1.037,-1.141 -4.83,0.888 -0.48,-8.72 -6.205,-11.188 -0.066,-0.028 -5.436,-11.867 -6.118,-11.939 -2.312,-0.245 -6.445,-5.263 -6.164,-6.87 0.266,-1.526 -0.309,-2.119 -1.804,-2.011 -0.702,0.051 -10.02,-14.662 -10.623,-19.704 -0.061,-0.507 -0.421,-1.135 -0.838,-1.419 -3.298,-2.239 -5.112,-5.398 -6.139,-9.176 -0.515,-1.895 -3.524,-3.827 -4.436,-8.051 -0.956,-4.431 -4.326,-7.877 -5.21,-12.362 -2.634,-1.318 -3.299,-4.279 -5.189,-6.186 -3.354,-3.383 -3.399,-11.382 -16.294,-19.018 -11.671,-6.912 -14.987,-5.347 -13.375,-8.067 10.367,-17.495 -5.404,-21.194 -5.91,-30.923 -0.003,-0.066 -50.124,-64.546 -50.665,-69.18 -0.506,-4.338 -15.147,-16.911 -16.15,-17.785 -6.503,-5.668 -8.415,0.928 -11.295,0.498 -10.701,-1.599 -28.577,3.595 -38.365,1.547 -2.021,-0.423 -5.391,0.35 -5.391,0.35 -3.455,-2.69 -7.719,-1.219 -11.541,-2.243 -8.274,-2.216 -26.645,-11.496 -26.645,-11.496 -11.014,-0.565 -35.139,-28.95 -33.499,-32.859 1.36,-3.242 -3.717,-6.014 -3.985,-7.164 -1.329,-5.705 -5.359,-10.565 -7.647,-11.794 -2.609,-8.082 -25.085,-23.321 -21.922,-28.047 5.064,-7.567 -24.777,-56.175 -17.614,-65.652 0.25,0.325 0.666,0.624 0.722,0.979 0.339,2.141 2.279,2.869 3.424,4.246 18.255,21.967 14.671,37.413 23.158,48.968 1.295,1.763 -1.173,2.752 -2.554,5.976 -1.454,3.395 2.96,0.506 2.914,4.999 -0.015,1.51 0.825,2.285 2.045,2.89 5.154,2.556 8.713,6.915 12.788,10.786 13.912,13.215 22.821,40.32 53.121,56.789 2.226,1.21 4.745,1.839 6.752,3.477 0.618,0.504 1.348,1.288 2.222,0.511 1.673,-1.488 -1.005,-1.244 -0.546,-4.344 0.206,-1.395 3.105,-1.702 3.485,-0.363 1.936,6.825 30.936,-6.333 29.986,-4.688 -1.557,2.697 2.361,4.261 0.806,5.928 -3.278,3.513 -6.39,-2.313 -7.525,0.018 -1.564,3.213 -3.624,3.574 -6.455,1.501 -1.524,-1.116 -3.558,5.196 -5.587,1.293 -0.522,-1.004 -2.048,-0.958 -2.575,0.477 -0.842,2.294 -4.339,3.59 -1.484,5.481 1.411,0.934 31.466,6.846 31.481,6.824 1.486,-2.157 3.099,-1.612 5.303,-1.249 1.868,0.308 21.915,-5.832 20.925,-1.621 -0.868,3.693 2.819,2.232 3.927,3.668 0.436,0.566 1.404,10e-4 1.814,-0.575 1.881,-2.649 5.673,-2.974 7.259,-5.849 4.021,-7.291 4.209,-20.315 4.924,-23.908 7.489,-37.613 0.432,-51.41 0.514,-57.843 0.321,-25.094 -50.799,-67.703 -51.878,-67.683 -1.886,-4.396 -7.267,-5.282 -9.436,-9.394 -2.374,-0.257 -2.97,-2.14 -3.564,-3.976 -0.143,-0.441 -0.315,-0.912 -0.719,-0.892 -2.269,0.111 -2.486,-2.411 -3.808,-3.024 -2.736,-1.27 -2.203,-6.335 -4.017,-5.674 -3.293,1.201 -15.195,-16.981 -17.145,-21.872 -0.155,-0.389 -0.102,-1.02 -0.366,-1.184 -4.455,-2.766 -5.571,-7.386 -7.202,-11.929 -2.433,-6.778 -11.239,-2.493 -9.557,1.872 1.471,3.815 -0.322,0.83 -3.513,8.235 -1.944,4.511 -6.436,1.44 -4.86,5.481 1.56,3.998 -5.67,18.267 -7.225,26.429 -3.55,18.637 0.523,48.133 -3.465,45.982 -3.962,-2.137 -5.638,-10.102 -5.793,-13.006 -0.239,-4.505 -2.714,-5.071 -1.647,-7.567 1.891,-4.425 -1.949,-9.525 -0.718,-15.01 2.349,-10.461 -3.607,6.048 7.281,-23.489 -1.87,-6.682 3.659,-10.654 5.985,-15.749 0.457,-1.002 3.229,-8.247 5.473,-10.236 0.617,-0.547 1.185,-1.208 1.246,-2.146 0.72,-11.044 11.751,-23.665 11.854,-24.491 1.727,-13.896 24.846,50.103 40.208,47.821 2.456,-0.365 10.321,12.147 14.711,15.163 1.354,0.93 3.411,-0.78 4.292,0.752 9.524,16.549 7.675,8.598 21.118,22.642 1.697,1.773 4.082,2.838 5.217,5.249 2.036,4.324 12.409,11.465 12.409,11.465 0.1,4.469 4.466,6.363 5.812,10.054 0.414,1.135 1.283,3.199 1.644,3.206 3.923,0.081 1.874,6.261 6.492,7.555 2.314,0.648 3.847,4.321 1.646,4.293 -0.97,-0.012 -0.767,1.007 -0.453,1.033 4.861,0.394 -0.334,11.361 7.377,16.548 1.572,1.058 -3.092,2.523 -1.367,5.386 1.625,2.697 4.282,34.881 -0.397,55.279 -0.494,2.154 -2.323,3.956 -1.728,6.417 -5.028,5.146 -6.344,23.35 0.778,23.109 1.005,-0.034 1.966,3.536 1.014,4.78 -7.043,9.214 117.06,158.59 112.96,179.66 -0.128,0.659 0.969,1.666 1.664,2.348 3.087,3.024 0.662,4.49 3.258,6.503 2.519,1.953 0.296,4.341 1.893,5.564 1.402,1.073 2.397,2.102 3.048,3.819 13.505,35.631 8.902,-2.379 9.616,-5.609 0.506,-2.289 -10.458,-39.925 -5.155,-58.336 0.412,-1.429 2.195,-3.316 -0.175,-4.801 -0.062,-0.039 -0.065,-0.327 0.006,-0.403 3.456,-3.664 -0.502,-7.007 -0.51,-10.525 -0.002,-0.908 -1.896,-0.744 -1.94,-2.075 -0.035,-1.051 -0.344,-1.795 -1.102,-2.792 -12.224,-16.083 -7.467,-223.58 -3.4,-233.59 0.316,-0.779 -4.269,-13.21 -7.525,-16.478 -1.189,-1.194 -3.091,-3.27 -0.993,-5.521 2.562,-2.748 -10.126,-3.265 -6.606,-6.619 9.774,-9.315 16.328,19.597 19.75,-19.519 0.688,-7.865 8.59,-41.425 9.385,-46.102 4.24,-24.934 19.882,-29.759 2.63,-34.805 -14.897,-4.356 -38.209,-24.5 -35.624,-51.886 0.454,-4.809 -0.147,-9.016 -5.393,-11.205 -43.112,-17.992 -84.671,-74.613 -89.89,-82.572 -47.245,-72.062 6.385,-90.394 6.44,-98.691 0.015,-2.224 7.729,-12.601 9.877,-9.057 3.313,5.465 7.1,1.98 7.628,0.656 3.318,-8.316 0.903,-18.324 3.653,-30.376 0.093,-0.409 0.452,-0.878 0.339,-1.195 -3.777,-10.615 12.787,-36.427 17.885,-25.691 0.19,0.4 -3.732,6.54 -4.425,7.059 -0.844,0.631 -0.796,10.157 -0.634,11.159 0.997,6.158 -2.133,4.514 -1.537,7.512 0.65,3.268 -0.964,17.924 -1.337,18.84 -0.528,1.295 1.71,4.933 1.171,5.626 -1.925,2.475 0.083,5.572 -1.39,8.106 -1.079,1.855 2.811,2.261 1.064,4.159 -3.143,3.418 1.446,17.305 3.185,18.452 0.431,0.284 1.201,0.418 0.836,1.155 -4.616,9.309 31.169,40 34.443,39.485 1.093,1.603 3.123,2.169 4.115,3.996 0.872,1.605 2.363,3.049 4.212,3.331 6.896,1.052 5.513,5.546 11.018,7.002 3.06,0.809 4.553,4.386 8.014,4.086 5.403,8.886 94.562,34.159 93.731,26.094 -0.002,-0.024 21.328,2.029 21.96,2.311 1.171,0.523 3.631,-2.245 4.22,-0.904 1.323,3.013 5.633,-2.423 4.624,1.861 -4.14,17.575 -95.543,12.512 -160.66,-36.559 -38.92,-29.331 -37.705,-41.702 -43.103,-69.198 -0.384,-1.957 -3.687,-4.493 -6.2,-1.521 -4.161,4.921 -3.143,9.896 -6.454,10.62 -2.718,0.594 -16.317,20.211 -14.582,23.212 0.54,0.935 -1.571,3.066 -0.774,4.989 0.088,0.213 0.018,0.663 -0.143,0.782 -2.407,1.795 -1.862,4.798 -2.882,7.159 -0.616,1.425 -1.995,3.245 0.192,4.779 0.419,0.294 0.363,1.05 0.136,1.603 -6.538,15.913 15.006,39.785 29.728,57.644 1.016,1.233 0.443,2.945 1.914,4.126 1.165,0.935 3.017,1.752 2.927,3.833 0,0 2.802,0.924 18.216,18.605 2.203,2.527 3.701,5.631 7.019,6.986 0.989,0.404 0.483,1.085 0.538,1.727 0.296,3.457 4.597,5.37 5.707,3.683 0.861,-1.308 2.216,-1.362 2.329,-0.309 0.74,6.887 24.266,22.041 32.073,20.68 8.085,-1.409 3.903,6.885 11.619,6.745 1.15,-0.021 1.667,0.358 2.621,-0.785 1.104,-1.324 4.364,-0.651 4.925,0.841 3.252,8.648 23.697,5.156 26.111,8.998 0.329,0.524 1.336,1.176 1.724,1.017 2.46,-1.006 4.159,0.885 6.179,1.444 3.539,0.98 7.125,1.542 10.79,1.51 3.794,-0.032 23.889,8.361 25.023,5.481 0.399,-1.012 11.101,1.722 12.063,2.088 1.039,0.395 2.857,1.333 1.949,-1.364 -0.513,-1.525 1.484,0.148 1.832,-0.382 2.349,-3.58 4.916,-1.096 7.378,-0.272 3.892,1.303 3.885,1.336 4.379,5.352 0.051,0.416 0.018,0.842 0.023,1.264 l 0.015,-0.092 z" />
            <path
               inkscape:connector-curvature="0"
               id="path4"
               d="m 584.06,1376.4 c 0.217,0.025 0.604,0.391 0.574,0.466 -1.508,3.839 2.633,4.864 3.767,7.399 1.179,2.635 2.629,5.784 4.899,7.155 1.751,1.058 8.479,9.874 8.505,10.024 0.693,3.925 3.245,6.214 6.617,8.005 0.091,0.048 2.273,7.043 5.266,9.475 6.571,5.339 11.638,17.06 14.254,16.411 2.842,-0.704 5.766,1.316 5.51,4.318 -0.345,4.033 2.855,7.375 5.674,10.127 4.279,4.175 8.389,15.279 10.608,12.906 0.04,-0.043 0.295,0.038 0.38,0.127 1.127,1.193 0.268,3.746 3.247,3.824 2.228,0.058 2.412,2.458 3.005,4.357 0.49,1.57 3.993,2.746 5.577,3.168 1.924,0.512 -0.084,2.992 1.558,3.376 6.025,1.411 2.756,6.178 7.698,5.064 2.198,-0.495 0.515,5.383 4.385,5.878 2.497,0.319 2.894,2.828 4.747,3.703 0.908,0.429 0.75,1.433 0.639,2.282 -0.408,3.144 3.964,-1.395 4.393,3.398 0.824,9.202 10.486,6.193 15.082,16.353 2.491,5.507 24.55,28.057 34.952,33.121 1.531,0.745 3.578,1.25 4.021,3.455 1.039,5.174 44.502,34.605 45.378,35.607 4.577,-1.148 11.113,10.189 21.367,13.306 1.013,0.308 1.729,0.64 2.412,1.43 7.449,8.606 48.79,29.795 48.79,29.795 0.394,2.731 12.307,9.393 13.522,9.37 2.459,-0.047 5.256,-1.245 6.558,2.174 3.695,-0.954 5.577,2.534 8.479,3.594 1.971,0.72 4.328,1.338 5.748,3.276 1.296,1.769 2.547,-1.877 3.517,0.781 0.227,0.624 5.638,4.649 6.301,4.71 2.135,0.195 2.122,2.274 3.464,3.02 0.612,0.341 2.061,-0.16 1.698,1.059 -0.198,0.667 -16.269,-1.677 -16.952,-1.804 -7.401,-1.374 -59.517,0.84 -59.901,-1.651 -0.685,-4.445 -5.298,-6.174 -6.887,-9.989 -1.518,-0.161 -7.123,-3.765 -6.889,-5.492 0.219,-1.608 -1.303,-2.614 -2.385,-2.153 -4.812,2.048 -2.979,-5.739 -9.181,-5.277 -0.48,0.036 -0.646,-0.051 -0.927,-0.409 -3.135,-4.004 -8.962,-3.977 -8.52,-6.516 0.476,-2.736 -21.177,-11.278 -21.388,-15.126 -0.016,-0.285 -0.62,-0.787 -0.926,-0.768 -2.951,0.184 -4.225,-2.506 -6.349,-3.713 -1.767,-1.004 -3.945,-1.623 -4.764,-4.014 -0.659,-1.925 -3.537,-1.236 -4.316,-2.735 -5.608,-10.786 -13.402,-8.644 -15.651,-14.184 -0.237,-0.584 -1.048,-1.378 -1.543,-1.343 -4.366,0.307 -6.962,-7.085 -11.394,-6.808 -2.998,0.187 -3.652,-6.313 -9.538,-9.75 -5.173,-3.02 -9.544,-3.084 -9.385,-7.223 0,0 -4.694,-3.357 -8.095,-9.013 -0.992,-1.649 -3.518,-0.431 -3.826,-2.63 -3.012,-0.44 -3.083,-4.181 -5.882,-5.087 -2.703,-0.875 -3.671,-4.242 -6.468,-5.225 -0.703,-0.247 -0.955,-0.856 -1.34,-1.471 -4.432,-7.066 -10.361,-6.335 -11.482,-11.956 -0.27,-1.352 -1.2,-3.401 -3.574,-2.698 -0.499,0.147 -11.194,-12.631 -11.821,-13.826 -0.709,-1.35 -2.685,1.968 -2.374,-0.672 0.267,-2.273 -15.742,-16.712 -17.874,-20.297 -1.238,-2.082 -1.29,-4.346 -3.634,-3.576 -2.895,0.952 -0.515,-3.096 -6.739,-5.825 -5.116,-2.244 -20.121,-10.356 -22.047,-9.564 -4.98,2.049 6.756,-10.338 1.819,-16.95 -1.133,-1.518 -0.285,-4.499 -3.451,-4.653 0,0 -81.013,-111.44 -98.004,-165.22 -1.09,-3.451 -4.955,-3.841 -6.515,-6.616 -0.374,-0.665 -1.092,-1.01 -1.802,-0.937 -3.361,0.344 -2.341,-0.925 -16.424,-11.159 -1.09,-0.792 -3.751,-2.012 0.125,-2.73 -0.506,-4.204 4.728,1.901 4.289,-3.328 -0.084,-1.001 -1.869,-12.423 -3.476,-12.666 -3.383,-0.511 -0.431,-6.574 -5.012,-8.036 -0.374,-0.119 -0.85,-1.057 -0.725,-1.431 1.341,-4.025 -2.845,-5.992 -3.459,-9.326 -0.871,-4.729 -3.612,-1.527 -3.297,-4.245 0.465,-4.022 -2.731,-6.139 -4.615,-8.914 -3.198,-4.71 0.415,-2.895 -3.717,-7.589 -4.487,-5.097 -2.088,-3.89 5.194,-9.763 1.185,-0.956 -0.334,-1.909 0.265,-2.467 0.857,-0.797 1.845,0.557 2.754,0.235 5.836,-2.073 9.476,-15.855 16.723,2.326 0.683,1.713 -0.303,4.897 3.231,4.761 0.418,2.294 2.376,4.453 1.226,6.832 -1.516,3.137 5.105,7.354 4.383,8.354 -2.371,3.284 17.826,37.146 18.298,42.205 0.24,2.573 3.913,0.95 5.763,4.242 0.832,1.481 4.62,-0.707 5.747,2.338 0.235,0.634 0.546,2.244 0.822,1.877 0.836,-1.115 2.767,-0.439 3.078,-2.416 0.381,-2.424 2.02,-3.111 3.778,-1.41 4.006,3.877 8.56,-3.138 10.777,-3.375 1.857,-0.198 3.757,-2.288 5.134,-3.949 1.859,-2.243 5.365,-1.223 3.789,2.476 -0.874,2.051 -5.23,7.435 -4.385,12.313 0.486,2.803 -2.578,-0.1 -2.974,1.562 -2.674,11.244 -10.087,24.314 -5.049,32.014 6.753,10.321 3.197,12.737 7.048,13.894 4.196,1.26 1.601,7.068 6.125,8.817 -0.121,5.291 12.692,18.67 14.226,25.011 0.653,2.702 5.275,2.677 4.367,6.41 1.954,2.398 4.873,8.427 6.451,8.796 4.008,0.936 -1.337,7.207 4.518,5.471 2.397,-0.713 -1.318,5.085 2.435,5.522 z" />
            <path
               inkscape:connector-curvature="0"
               id="path6"
               d="m 524.31,198.31 c 4.258,-1.088 19.411,-14.683 25.106,-22.42 1.737,-2.36 12.788,-23.698 10.686,-30.348 -3.347,-10.591 -7.759,-27.984 -41.498,-27.279 -1.546,0.032 -1.215,-1.125 -1.417,-2.055 -0.792,-3.659 4.759,-0.838 1.937,-4.196 -2.256,-2.685 -11.198,-10.78 -12.024,-11.283 -1.928,-1.174 -3.565,-10.164 -12.16,-11.288 -2.38,-0.311 -29.745,-17.021 -36.967,-17.297 -10.031,-0.383 -37.812,0.316 -48.887,3.105 -6.16,1.551 -8.37,-5.511 -10.52,-0.089 -4.283,10.801 -9.167,-3.837 -4.278,-4.394 6.567,-0.749 4.522,-2.447 7.709,-2.269 -0.752,6.797 2.433,-4.071 3.279,2.581 0.066,0.521 0.009,1.266 0.794,1.103 1,-0.207 -1.136,-5.343 2.357,-5.28 3.609,0.065 7.023,-1.45 10.76,-1.039 1.578,0.174 3.861,-0.337 5.138,-2.138 2.607,-3.676 2.655,1.638 8.452,-1.65 8.946,-5.074 16.012,-1.396 19.789,-1.78 2.388,-0.243 4.764,-0.112 6.887,1.314 0.564,0.379 1.411,0.863 1.933,0.694 8.052,-2.608 34.887,14.069 34.887,14.069 5.877,-4.186 3.138,10.095 13.937,5.95 5.088,-1.953 11.543,0.501 14.915,-1.081 0.498,-0.234 1.356,-0.745 1.992,-0.214 2.518,2.097 5.811,-0.046 21.623,1.716 3.575,0.398 9.318,2.486 15.791,2.475 3.97,-0.007 29.785,11.51 36.583,10.511 0.959,-0.141 1.367,0.792 2.004,1.333 9.258,7.854 14.829,6.718 16.16,11.338 0.106,0.367 0.679,0.91 0.266,1.067 -4.034,1.53 -0.188,1.779 1.338,4.155 9.101,14.175 5.713,18.225 10.321,20.676 0,0 12.718,37.589 15.095,39.991 -0.102,6.798 7.24,6.326 4.241,10.858 -3.755,5.677 1.527,11.371 -3.253,17.724 -3.161,4.202 -1.292,7.621 -5.233,8.148 -3.276,0.438 -4.687,9.045 -7.301,10.709 -1.096,0.698 6.462,9.408 7.405,10.303 8.838,8.384 3.08,8.206 8.926,11.841 5.686,3.535 1.204,4.495 3.836,7.642 1.668,1.994 3.234,3.923 2.645,6.786 -0.109,0.531 7.107,9.34 6.223,11.413 -1.922,4.512 3.466,14.14 3.399,14.416 0,0 0.466,20.497 -0.112,28.136 -0.372,4.919 -1.981,1.312 -1.887,4.409 0.21,6.847 -6.326,11.7 -10.007,21.879 -1.241,3.431 -3.923,2.293 -4.625,3.519 -10e-4,10e-4 -2.702,3.701 -2.703,3.701 -5.735,-1.131 -3.608,4.583 -5.707,6.63 -1.709,1.667 2.032,2.084 2.232,3.866 0.485,4.318 3.802,7.49 4.702,11.645 0.811,3.745 5.761,3.044 2.771,7.24 -0.989,1.388 -1.769,2.738 -0.836,4.705 2.722,5.737 -17.211,33.07 -23.613,27.852 -8.98,-7.32 2.849,-2.297 9.968,-21.612 4.638,-12.584 -1.35,-31.438 -12.876,-28.585 -31.574,7.816 32.194,-19.48 30.762,-52.579 -0.157,-3.622 2.491,-11.289 -3.171,-20.715 0,0 -1.735,-9.247 -7.376,-21.319 -5.145,-11.011 -16.231,-29.263 -18.636,-32.025 -7.843,-9.005 -10.726,-6.179 -7.3,-9.839 30.617,-32.715 11.33,-43.052 8.595,-55.927 -0.385,-1.812 -16.892,-49.935 -29.194,-54.812 -67.355,-26.703 -96.461,-21.541 -85.727,-17.215 4.642,1.871 0.582,3.39 5.352,6.052 8.01,4.469 7.418,12.056 17.885,11.631 8.877,-0.36 19.012,3.973 21.25,5.131 17.534,9.069 12.885,22.979 16.324,33.139 2.134,6.304 -4.533,6.464 0.222,10.947 12.115,11.421 16.732,14.194 15.697,19.514 -0.195,1 17.324,14.054 -0.372,39.653 -4.336,6.273 -5.557,5.855 -3.565,8.325 1.68,2.082 1.774,-4.145 3.694,-0.278 3.666,7.386 -23.277,4.595 -18.925,11.65 0.308,0.499 0.19,1.509 -0.702,1.717 -0.977,0.228 -0.961,-3.427 -2.786,-2.908 -0.971,0.276 -1.582,1.061 -1.54,2.253 0.086,2.466 -1.762,1.214 -2.491,-0.547 -0.355,-0.856 -1.323,-1.717 -1.877,-1.398 -0.922,0.531 2.717,6.925 -0.64,6.495 -6.248,-0.801 -3.229,3.63 -5.836,4.155 -3.478,0.701 -9.498,-2.564 -6.322,-5.581 14.87,-14.129 16.923,-14.044 25.114,-22.2 26.772,-26.656 -8.937,-59.605 -11.683,-48.756 -1.554,6.139 0.187,5.865 -3.156,7.939 -0.035,0.022 -15.455,17.227 -16.626,19.132 -1.727,2.811 -1.75,-4.819 -5.84,-1.201 -1.767,1.563 -5.978,-2.808 -2.826,2.392 0.244,0.402 0.03,1.141 -0.048,1.132 -3.093,-0.363 -1.731,3.233 -3.496,3.931 -2.771,1.096 -0.281,-4.961 -5.482,-5.533 -1.251,-0.138 0.692,-0.958 0.642,-1.665 z" />
            <path
               inkscape:connector-curvature="0"
               id="path8"
               d="m 313.72,1212.2 c -14.148,0.344 -47.398,-6.326 -43.422,-0.557 1.788,2.594 3.784,5.113 1.479,8.457 0,0 1.589,3.813 -1.436,13.957 -0.655,2.197 -2.729,3.983 -2.334,6.64 0.091,0.614 -0.28,0.793 -0.714,0.601 -3.462,-1.531 -11.506,10.043 -12.506,9.894 -5.398,-0.806 -6.289,7.561 -10.414,6.317 -1.823,-0.55 -2.83,3.624 -3.83,3.546 -1,-0.078 -1.495,-3.78 -3.046,-0.412 -0.219,0.476 0.69,1.167 -0.088,1.407 -1,0.31 -5.68,-7 2.415,-10.988 10.707,-5.274 19.949,-25.183 21.178,-30.297 1.389,-5.78 8.19,-7.532 5.137,-12.94 -2.206,-3.909 0.418,-3.485 1.526,-16.383 1.644,-19.142 -22.199,-68.117 -101.94,-56.322 -5.573,0.824 -0.263,-5.099 0.068,-6.137 0.068,-0.213 0.471,-0.529 0.484,-0.519 2.999,2.523 3.985,-2.92 6.83,-1.663 2.521,1.114 5.296,-0.908 7.933,0.173 4.198,-2 9.043,-0.538 13.332,-2.675 17.041,-8.487 52.312,13.822 53.599,14.069 6.301,1.206 11.971,14.406 15.398,12.712 3.725,-1.842 0.128,1.878 1.128,2.504 3.649,2.287 2.132,7.048 4.774,9.843 5.422,5.735 9.349,18.664 8.386,20.213 3.998,4.564 -1.907,5.632 5.661,13.29 1.799,1.82 -0.688,2.605 1.007,3.305 3.804,1.572 3.688,-1.039 5.92,-0.058 8.023,3.524 4.193,-0.025 8.019,0.049 8.499,0.165 3.729,-8.668 6.773,-6.415 3.244,2.4 7.89,10.213 10.737,7.242 0.618,-0.645 1.457,-0.266 1.849,0.313 1.115,1.648 1.881,-0.523 2.665,-0.184 0.99,0.427 1.535,2.004 2.649,1.864 5.527,-0.697 8.348,2.168 13.35,2.833 3.345,0.445 7.389,-1.541 9.701,-1.141 5.97,1.033 11.845,3.17 18.049,1.8 0.582,-0.129 1.359,-0.326 1.576,0.124 0.688,1.431 0.468,1.068 7.893,3.852 1.344,0.504 1.855,-1.182 2.685,-1.154 1.14,0.039 0.407,2.228 1.924,2.414 0.917,0.113 3.411,0.705 4.015,1.548 3.304,4.613 6.755,-0.069 6.883,1.139 0.2,1.894 12.392,3.973 13.53,4.25 2.823,0.688 10.526,8.63 12.712,8.357 3.043,-0.38 -0.109,-12.403 -0.229,-13.404 -0.971,-8.111 -5.52,-8.831 -9.766,-11.551 -5.602,-3.589 -43.074,-25.424 -49.41,-27.602 -13.51,-4.646 -38.195,-46.616 -29.775,-65.52 1.424,-3.197 1.701,-6.512 2.065,-9.876 2.741,-25.357 32.444,-53.862 35.022,-55.046 1.363,-0.626 0.184,4.633 2.884,1.23 0.45,-0.567 2.635,1.44 2.978,2.741 0.238,0.903 -0.394,1.561 -2.012,3.499 -2.811,3.366 -3.229,-0.25 -4.643,-1.382 -0.928,-0.743 -1.764,-0.602 -1.166,0.58 0.58,1.145 1.141,3.31 0.683,3.458 -1.375,0.443 -0.174,2.959 -2.204,2.4 -0.598,3.993 -12.786,12.894 -13.259,22.439 -0.42,8.492 -4.05,8.038 -5.327,10.579 -2.673,5.318 1.188,5.574 -0.992,10.136 -1.642,3.437 -1.386,7.444 -2.801,11.038 -0.444,1.126 -0.581,2.662 1.381,3.817 2.95,1.738 -2.874,5.004 -1.641,7.271 2.04,3.75 1.051,14.349 5.272,15.174 2.553,0.5 -0.243,4.084 0.49,5.276 1.83,2.979 3.282,12.422 6.795,13.567 3.091,1.008 3.15,4.047 5.528,6.342 1.326,1.279 4.263,-0.371 4.702,2.882 0.099,0.733 7.146,7.189 7.642,6.69 3.031,-3.046 15.27,10.879 24.423,11.821 3.156,2.895 17.715,8.36 22.707,19.731 1.621,3.692 2.256,3.771 4.856,0.513 0.799,-1.001 13.281,-14.205 13.272,-8.343 -0.003,1.984 2.088,1.531 1.306,4.17 -0.449,1.517 -2.474,1.704 -2.774,3.572 -0.759,4.73 -5.842,-0.528 -3.419,6.731 5.251,15.731 1.04,19.688 8.474,18.858 0,0 3.825,4.108 10.099,5.663 2.687,0.666 4.223,3.011 9.144,4.482 2.113,0.632 4.473,0.961 5.147,3.679 0.085,0.343 0.583,0.838 0.884,0.834 2.907,-0.039 7.747,8.589 12.062,11.618 2.446,1.717 0.644,3.603 -1.514,2.84 -0.204,-0.072 -32.058,-15.998 -46.021,-20.094 -22.332,-6.55 -25.632,-11.105 -39.885,-8.629 -2.286,0.397 -5.191,-1.045 -6.886,2.021 -0.31,0.561 -1.493,-1.144 -2.77,-0.868 -2.426,0.526 2.951,-8.687 -8.166,-9.298 -8.336,-0.458 -10.121,-2.513 -10.121,-2.513 -0.54,0.054 -38.54,-5.595 -39.075,-5.683 -2.051,-0.339 -3.944,-1.558 -5.498,-0.711 z" />
            <path
               inkscape:connector-curvature="0"
               id="path10"
               d="m 389.91,178.42 c -5.385,-2.058 2.118,21.555 4.767,25.321 1.151,1.637 3.571,2.64 2.939,5.304 -0.038,0.16 0.304,0.46 0.522,0.624 4.637,3.477 16.578,22.206 22.686,19.569 0.518,-0.224 0.994,0.263 1.408,0.708 6.777,7.284 52.426,16.644 53.426,17.544 0.961,0.865 4.675,3.172 5.57,1.944 2.096,-2.875 3.051,-1.621 13.77,1.432 7.384,2.103 12.472,-4.973 17.813,0.953 0.706,0.784 1.199,0.266 1.545,-0.441 1.526,-3.122 3.696,-4.814 7.315,-3.317 2.152,-2.254 3.795,3.253 5.868,3.734 0.659,0.153 0.348,0.798 -0.204,1.205 -1.492,1.1 -4,-0.659 -0.983,4.003 3.562,5.507 -5.367,-5.865 -11.483,0.153 -1.75,1.721 -3.178,-0.225 -5.748,1.215 -3.065,1.719 -10.457,1.334 -11.629,1.721 -1.737,0.574 -3.305,2.382 -4.731,2.484 -27.683,1.982 -96.818,-21.152 -112.65,-55.317 -11.18,-24.125 16.463,-24.029 -0.529,-38.455 -20.566,-17.461 -40.197,-32.435 -34.122,-59.266 1.011,-4.465 0.877,-1.744 16.038,-18.086 1.291,-1.392 0.981,0.349 3.86,3.693 0.685,0.795 -0.387,1.499 -0.899,2.108 -2.06,2.455 -1.69,6.063 -4.021,8.392 -0.62,0.619 -0.134,1.263 0.104,1.927 1.003,2.787 0.79,5.744 0.041,8.41 -2.306,8.208 15.629,36.147 20.889,35.783 4.195,-0.29 1.534,2.46 8.709,9.148 22.967,21.406 54.229,31.73 54.229,31.73 0.849,1.274 3.686,0.992 3.13,2.689 -0.436,1.331 -2.854,0.223 -4.334,0.711 -12.122,3.999 -48.508,-15.793 -53.296,-17.623 z" />
            <path
               inkscape:connector-curvature="0"
               id="path12"
               d="m 462.63,407.66 c 1.075,-1.686 2.077,-4.223 4.125,-2.859 1.873,1.248 11.769,-8.942 13.049,-10.854 9.217,-13.758 4.34,-7.739 8.13,-16.463 2.002,-4.607 -2.911,-5.007 -0.239,-7.286 1.01,-0.862 -0.232,-1.466 -0.863,-1.769 -10.318,-4.958 -22.877,-8.195 -35.939,-23.207 -0.87,-1 -9.22,-6.227 -10.234,-14.816 -0.137,-1.161 -7.019,-14.491 1.233,-6.132 2.592,2.626 5.337,4.945 8.849,6.27 0.751,0.283 1.696,0.878 1.935,1.548 8.824,24.824 93.691,44.417 103.17,35.248 2.465,0.534 5.441,-0.966 7.358,1.609 2.772,3.724 0.711,-4.562 7.151,-3.388 1.887,0.344 3.48,-1.234 5.39,-0.5 13.03,5.005 -42.793,24.28 -76.519,8.227 -3.64,-1.733 -4.223,2.301 -3.251,3.301 2.932,3.015 -1.752,5.872 -0.835,8.929 0.5,1.666 0.377,3.194 -2.139,3.692 -2.978,0.589 1.356,7.083 -3.006,8.049 -0.934,0.207 -0.745,1.182 -0.254,1.669 2.564,2.543 -1.387,3.975 -4.875,4.848 1.421,3.021 -7.337,8.967 -1.305,11.864 3.901,1.874 7.305,5.501 12.368,4.215 0.853,-0.217 2.014,0.125 2.836,0.57 6.158,3.332 5.051,-2.545 8.398,1.15 3.841,4.24 6.628,-1.015 10.367,0.139 1.987,0.614 6.656,-3.433 7.808,-0.783 0.814,1.872 2.48,-1.936 3.259,0.092 2.258,5.875 -41.134,12.749 -57.696,-4.23 -1.654,-1.696 -4.551,-1.35 -5.666,-3.508 -0.96,-1.857 -0.666,-4.302 -2.593,-5.745 -0.007,0.02 -0.015,0.12 -0.015,0.12 z" />
            <path
               inkscape:connector-curvature="0"
               id="path14"
               d="m 448.92,1007.4 c -0.976,1.784 2.426,6.878 -0.65,5.006 -2.712,-1.651 -3.77,19.579 -2.16,25.332 2.539,9.077 11.032,36.667 18.975,42.239 -0.699,0.976 0.263,1.147 0.757,1.502 5.244,3.76 1.416,7.363 4.202,6.203 1.287,-0.536 0.233,-3.244 1.184,0.386 0.569,2.174 1.252,4.193 3.427,5.545 6.238,3.877 -0.065,4.828 4.511,10.624 5.887,7.458 4.152,12.042 7.666,12.422 2.528,0.274 -2.504,4.773 -0.712,8.096 9.534,17.686 -10.921,51.754 -15.007,50.461 -0.646,-0.204 -0.739,0.542 -0.99,1.049 -3.192,6.448 -8.845,0.251 -7.246,4.616 0.215,0.586 -0.547,1.166 -1.009,0.652 -2.274,-2.535 -2.701,0.47 -2.946,1.266 -3.666,11.922 -12.615,4.656 -10.932,2.328 0.637,-0.88 0.424,-2.66 2.478,-2.314 3.67,0.619 33.313,-28.768 25.038,-56.627 -2.715,-9.141 -8.274,-24.439 -10.491,-26.02 -2.041,-1.455 -15.944,-23.693 -16.341,-25.051 -1.836,-6.293 -13.033,-11.329 -12.88,-54.965 0.047,-13.344 -14.727,-2.655 -11.359,-13.195 0.486,-1.521 1.037,-1.97 2.263,-0.693 1.903,1.981 4.16,-3.909 3.586,-5.232 -0.497,-1.146 1.877,-3.941 2.152,-1.938 0.159,1.155 -0.349,6.076 2.022,3.19 2.115,-2.574 2.27,5.222 4.574,0.617 1.435,-2.868 1.423,1.349 2.396,0.545 0.911,-0.753 1.536,-1.854 2.749,-2.242 0.71,2.36 2.83,2.152 4.616,2.808 1.078,0.397 0.021,2.039 0.127,3.39 z" />
            <path
               inkscape:connector-curvature="0"
               id="path16-9"
               d="m 349.75,1391.2 c -1.723,-1.579 -0.677,-2.483 -2.859,-0.978 -2.012,1.387 -4.14,2.446 -5.595,4.65 -1.94,2.936 -16.846,-1.378 -4.63,-9.929 18.694,-13.085 49.901,-55.114 33.293,-97.71 -3.269,-8.383 -8.482,-2.075 -12.159,-33.84 -0.923,-7.977 -8.282,-4.445 12.429,-18.336 3.676,-2.465 2.512,1.874 4.004,2.739 5.474,3.172 -9.793,17.026 -3.123,26.168 2.596,3.557 0.549,8.563 7.758,15.346 2.17,2.042 10.988,27.624 10.55,29.121 -0.73,2.495 -0.634,5.033 -0.414,7.582 1.617,18.745 -18.362,54.962 -24.237,57.345 -0.679,0.275 -1.527,0.912 -0.79,1.486 3.606,2.808 -2.424,0.552 -6.897,7.464 -2.767,4.277 -5.787,2.835 -6.665,8.432 -0.028,0.185 -0.434,0.309 -0.665,0.46 z" />
            <path
               inkscape:connector-curvature="0"
               id="path18"
               d="m 511.05,592.26 c -0.309,-7.221 -9.452,-7.599 -3.566,-11.849 6.027,-4.353 5.758,-9.987 9.39,-9.202 12.765,2.757 -1.667,23.442 10.952,49.25 0.472,0.965 4.772,11.951 4.144,12.824 -3.528,4.899 4.953,4.824 4.44,13.607 -0.496,8.479 5.863,12.938 6.545,18.729 0.22,1.87 3.862,24.345 4.284,24.836 3.322,3.873 -1.048,3.388 -0.153,16.432 0.485,7.063 -3.555,15.406 -4.604,15.858 -0.692,0.298 -0.638,1.162 -0.229,1.862 1.427,2.447 -9.028,28.856 -13.49,31.616 -0.233,0.144 -0.551,0.388 -0.57,0.608 -0.526,6.142 -9.133,8.167 -11.693,13.392 -1.606,3.277 -4.445,4.521 -7.67,5.161 -0.816,0.162 -1.619,0.255 -1.213,1.05 1.384,2.705 -1.553,2.411 -2.37,3.525 -1.297,1.769 -2.78,1.027 -3.778,-0.429 -0.79,-1.154 -1.974,0.988 -2.683,-0.597 -0.859,-1.92 -0.232,-2.966 1.302,-4.222 1,-0.819 30.515,-18.985 35.671,-50.577 10.307,-63.146 -22.96,-91.011 -24.709,-131.87 z" />
            <path
               inkscape:connector-curvature="0"
               id="path20"
               d="m 287.96,1288.7 c -2.174,-0.56 -0.653,-2.943 0.77,-1.684 0.64,0.566 2.475,1.515 2.419,0.451 -0.239,-4.49 26.28,2.82 34.171,1.434 1.867,-0.328 2.137,4.899 4.77,1.034 0.681,-1 18.984,-33.467 21.505,-31.402 0.25,0.205 -1.851,4.149 -2.025,4.427 -2.296,3.67 3.287,2.259 -0.317,7.163 -0.735,1 -10.491,17.877 -8.414,25.185 0.678,2.386 7.593,24.269 9.24,26.141 3.15,3.582 -0.022,4.09 3.622,14.422 0.181,0.514 0.31,1.088 -0.102,1.594 -4.108,-3.461 -21.846,-53.13 -21.428,-37.893 0.179,6.516 -5.003,12.377 -5.742,17.406 -0.668,4.539 -4.161,1.732 -6.577,7.245 -3.454,7.883 -5.592,13.315 -2.741,17.635 2.845,4.312 0.753,13.043 4.378,17.109 1.517,1.702 4.552,16.38 0.931,13.671 -5.628,-4.211 -14.162,-38.311 -17.015,-24.831 -0.868,4.101 -2.976,7.727 -4.507,11.542 -3.405,8.485 -8.55,1.536 -8.176,6.451 0.144,1.891 -1.34,5.917 -1.804,6.466 -1.163,1.377 3.595,4.168 -1.12,4.66 0.805,3.361 -7.339,7.771 -3.902,17.465 0.489,1.379 2.491,3.08 0.226,4.733 0.784,1.066 1.201,2.863 3.005,2.283 2.015,-0.647 4.675,0.52 6.039,-2.056 0.076,-0.143 0.425,-0.142 0.647,-0.208 0.03,1.19 -0.915,3.378 -1.485,4.741 -1.475,3.521 -1.218,0.35 -4.345,1.7 -2.05,0.885 -4.188,1.255 -6.414,0.415 -1.022,-0.386 -1.991,-1.153 -3.211,-0.776 -0.423,-1.439 1.414,-1.564 1.558,-2.689 3.605,-28.203 -6.015,-29.989 1.674,-38.449 40.349,-44.398 10.456,-27.124 -16.633,-33.676 -32.237,-7.799 21.549,0.101 31.224,-0.849 8.436,-0.827 7.105,6.557 18.457,-13.906 19.733,-35.572 11.395,-16.627 -28.678,-26.954 z" />
            <path
               inkscape:connector-curvature="0"
               id="path22"
               d="m 743.83,692.08 c -1,0.63 -9.259,16.818 -9.227,23.023 0.03,5.74 -5.266,9.918 -7.344,15.783 -1.619,4.57 -6.751,5.611 -7.951,8.764 -0.003,0.009 -3.093,8.169 -3.093,8.169 -7.128,4.685 -6.499,14.013 -17.078,21.789 -1.896,1.393 -2.579,3.658 -4.028,5.159 -1.422,1.471 -4.515,1.482 -5.685,3.296 -1.762,2.732 -5.453,2.908 -6.89,5.952 -0.93,1.968 -4.193,1.355 -5.374,1.757 -0.951,0.323 0.721,1.132 -0.117,1.578 -0.651,0.346 -1.945,0.274 -1.833,-0.172 0.924,-3.678 -1.818,-1.194 -4.604,-3.21 -4.363,-3.157 -1.328,1.311 21.609,-23.695 23.575,-25.702 50.918,-89.974 37.81,-92.4 -10.454,-1.935 -0.986,-2.197 -1.953,-5.113 -0.826,-2.491 1.64,1.203 3.104,-2.205 1.832,-4.265 2.345,1.601 4.231,-1.253 3.099,-4.688 3.61,-1.167 7.535,-6.801 1.731,-2.485 3.506,-3.167 7.252,-2.093 2.175,0.623 2.05,2.741 2.208,4.541 0.404,4.609 -7.666,36.559 -8.572,37.131 z" />
            <path
               inkscape:connector-curvature="0"
               id="path24"
               d="m 455.69,795.38 c -20.566,5.091 -96.925,-81.068 12.749,-188.11 1.017,-0.992 2.69,1.531 3.13,-0.247 1.441,-5.832 6.033,-3.656 8.085,-3.479 6.269,0.54 -19.583,16.188 -15.11,23.092 10.051,15.515 10.969,14.921 9.631,17.479 -0.087,0.166 0.125,0.538 0.271,0.768 0.533,0.84 2.332,1.666 0.816,2.604 -2.493,1.542 -10.473,-22.421 -17.649,-20.83 -1.873,0.415 -0.593,1.866 -0.998,2.49 -1.12,1.725 -2.512,3.425 -4.172,4.61 -1.971,1.408 -1.47,4.207 -3.169,5.294 -1.949,1.247 -3.558,2.921 -3.685,4.834 -0.153,2.317 -2.701,0.483 -2.868,2.375 -0.038,0.429 -4.697,9.703 -4.751,9.77 -0.907,1.136 0.958,2.659 -0.001,4.028 l 0.109,-0.1 c -5.529,-4.655 -42.175,79.068 10.643,126.93 1.273,1.154 2.002,2.712 0.845,4.063 -1.393,1.626 0.506,2.534 0.771,2.508 2.191,-0.22 3.372,2.123 5.445,1.982 l -0.092,-0.06 z" />
            <path
               inkscape:connector-curvature="0"
               id="path26"
               d="m 576.41,806.41 c 1.966,-3.62 3.65,-0.615 5.31,-2.62 3.103,-3.749 3.347,0.159 5.995,-0.208 7.207,-0.998 14.674,2.992 18.067,0.987 1.812,-1.071 2.338,0.936 15.349,4.562 29.242,8.148 88.285,57.305 88.99,58.305 1.565,2.223 3.723,-1.101 4.756,1.388 0.69,1.662 2.333,0.954 3.441,1.452 2.638,1.187 5.716,1.595 7.765,3.982 3.321,3.869 3.724,-1.085 8.477,3.13 0.935,0.829 3.18,0.29 2.949,2.348 -0.271,2.418 0.513,5.149 -2.388,6.887 -9.247,5.54 -3.03,4.409 -9.639,6.79 -0.984,0.354 -2.856,0.222 -2.373,2.271 0,0 -8.707,4.121 -10.325,7.276 -1.272,2.481 -4.194,-1.156 -8.688,2.452 -0.929,0.746 -3.331,-0.465 -2.41,-2.324 3.215,-6.495 10.349,-5.596 13.084,-13.071 5.51,-15.061 12.659,7.515 -45.989,-43.002 -26.243,-22.605 -50.376,-32.377 -60.752,-34.046 -35.313,-5.678 -37.532,4.33 -31.619,-6.559 z" />
            <path
               inkscape:connector-curvature="0"
               id="path28"
               d="m 206.22,1411.8 c -4.53,2.027 13.593,-22.212 15.782,-32.895 8.746,-42.693 -3.558,-58.082 18.707,-94.24 11.19,-18.172 30.419,-30.625 28.08,-23.67 -0.736,2.189 -3.814,-0.936 -2.439,1.92 1.697,3.525 4.451,4.845 1.239,4.892 1.403,5.246 -4.876,2.436 -6.203,7.732 -0.46,1.835 -1.879,2.905 -2.889,4.223 -3.382,4.41 -3.496,4.328 -4.764,9.568 -0.161,0.667 0.093,1.639 -0.624,1.907 -2.91,1.089 -2.196,2.064 -6.238,10.132 -2.997,5.982 1.032,6.508 -2.484,7.425 -3.44,0.897 -4.581,20.733 -4.581,20.733 -3.331,0.481 -1.733,3.021 -1.914,4.641 -0.37,3.311 -1.639,6.565 -0.623,10.005 0.476,1.614 -1.332,2.791 -0.971,4.754 1.266,6.878 -0.57,10.932 -0.57,10.932 1.646,4.909 -0.884,9.052 -2.477,13.351 -1.008,2.719 2.53,5.145 -1.256,5.948 -1.096,0.232 -1.141,1.457 -1.34,2.433 -1.821,8.934 -3.303,3.253 -12.205,20.834 -0.614,1.212 -0.403,3.685 -3.045,2.412 -0.721,1.474 -2.838,1.183 -3.427,3.261 -0.692,2.44 -3.056,3.599 -5.758,3.702 z" />
            <path
               inkscape:connector-curvature="0"
               id="path30"
               d="m 547.21,783.82 c -0.123,4.564 -3.683,1.274 -5.011,0.597 -3.426,-1.747 -3.553,-2.022 -1.189,-4.769 14.324,-16.639 4.827,-3.908 7.08,-23.207 2.645,-22.662 12.046,-53.826 31.228,-68.306 22.147,-16.718 11.69,-10.519 15.807,-8.437 -2.133,3.557 1.876,5.227 -0.697,6.551 -8.817,4.54 -15.114,16.969 -15.114,16.969 -2.888,-0.479 -3.024,1.729 -3.642,3.541 -1.274,3.738 -7.328,8.641 -7.221,15.348 0.062,3.892 -4.412,5.167 -3.019,8.206 -3.396,0.824 -3.897,16.887 -6.434,22.285 -0.47,1 -2.957,8.87 1.242,9.248 1.872,0.169 0.374,4.122 -0.626,4.858 -0.602,0.443 -1.178,-2.413 -1.939,-2.293 -0.838,0.132 -1.199,2.504 -0.958,2.563 3.304,0.804 -0.159,6.164 9.063,7.792 0,0 16.708,5.416 52.151,14.071 6.708,1.638 3.508,-2.131 8.747,-0.403 3.247,1.071 6.155,0.379 8.975,-1.176 2.214,-1.222 3.396,4.488 -0.529,5.158 -47.157,8.047 -87.498,-24.028 -87.914,-8.596 z" />
            <path
               inkscape:connector-curvature="0"
               id="path32"
               d="m 425.83,122.56 c 2.065,6.76 -6.957,14.273 -4.423,23.698 1.357,5.048 11.298,22.599 18.723,17.905 0.788,-0.498 1.334,-0.262 1.873,0.202 4.249,3.669 9.612,4.057 14.762,4.702 12.192,1.526 13.895,4.114 16.363,2.244 0.692,-0.524 0.431,-0.353 7.173,1.768 4.432,1.395 5.167,-0.391 0.936,-2.923 -1.626,-0.973 -7.228,-0.514 -10.571,-3.725 -1.208,-1.16 -23.819,-16.81 -18.244,-32.12 2.134,-5.86 4.416,-6.811 10.857,-12.64 2.797,-2.531 1.462,1.908 5.79,2.82 -1.691,1.561 -4.807,-1.056 -4.795,2.184 0.022,6.274 -1.759,4.056 -1.749,7.808 0.039,15.01 5.22,16.205 7.909,19.857 7.032,9.548 38.365,14.68 19.974,15.862 -8.111,0.521 8.402,11.547 0.66,9.994 -25.805,-5.178 -61.398,3.198 -79.705,-28.514 -7.684,-13.311 12.535,-35.447 14.467,-29.122 z" />
            <path
               inkscape:connector-curvature="0"
               id="path34"
               d="m 524.42,198.21 c -8.372,-0.743 -9.541,-0.202 -9.87,1.773 -0.724,4.338 -2.686,-2.345 -6.429,0.804 -1,0.841 -5.256,-2.295 -2.182,-14.226 4.811,-18.679 1.314,-19.046 5.676,-25.343 12.038,-17.376 -9.509,-27.511 -13.504,-36.559 -0.61,-1.382 -2.227,-2.43 -3.772,-2.503 -6.107,-0.291 -20.804,-10.101 -24.053,-1.189 -0.133,0.364 -0.491,0.876 -0.786,0.905 -2.701,0.263 2.044,-9.541 -2.998,-8.837 -4.209,0.588 -29.292,-2.316 -29.89,3.309 -0.121,1.138 0.595,3.064 -1.493,2.551 -0.906,-0.223 -3.657,-0.69 -2.006,-3.191 1.346,-2.039 -2.914,-1.69 -3.525,-6.097 -0.407,-2.94 2.647,0.061 3.647,-0.133 2.496,-0.484 3.107,-5.92 6.244,-1.615 3.465,4.755 1.111,-3.87 4.493,-2.112 2.843,1.478 9.504,-3.213 15.588,-1.208 1.311,0.432 2.438,-1.301 3.954,-0.313 0.353,0.23 1.677,-0.832 0.675,-1.722 -1.815,-1.612 1.2,-1.599 0.782,-2.669 1.585,-0.374 1.193,1.284 2.723,4.226 1.532,2.946 9.241,4.169 11.68,2.825 0.981,-0.541 1.438,0.325 2.091,0.879 2.247,1.907 4.479,3.864 7.754,3.792 2.298,-0.051 8.386,6.444 9.386,6.611 3.726,0.621 1.72,2.966 5.818,7.183 4.407,4.535 12.201,3.504 15.914,10.237 1.121,2.032 1.587,4.589 4.377,5.348 1.662,0.452 1.531,8.709 0.332,11.896 -0.917,2.438 -3.242,4.663 -2.029,7.818 0.14,0.363 -2.107,4.286 -2.085,5.87 0.021,1.572 0.123,3.125 -1.631,4.04 -0.399,0.208 -0.731,0.986 -0.711,1.486 0.33,8.06 -4.521,11.348 -0.158,15.559 3.098,2.99 4.268,6.954 5.88,10.709 0.003,0 0.108,-0.104 0.108,-0.104 z" />
            <path
               inkscape:connector-curvature="0"
               id="path36"
               d="m 196.76,1209.7 c -6.523,0.726 -10.296,-2.79 -17.589,-3.804 -53.023,-7.373 -27.5,0.813 -38.207,-6.978 -3.319,-2.415 -5.332,-1.286 -4.722,-3.374 0.765,-2.616 10.054,7.615 -4.828,-21.728 -1.686,-3.323 -0.38,-5.978 2.648,-1.524 8.27,12.168 20.93,29.782 35.488,27.128 4.784,-0.872 18.83,16.238 3.07,-13.29 -4.445,-8.329 -1.823,-10.989 -6.454,-19.849 -2.733,-5.227 -2.38,-8.425 -1.122,-8.516 1.807,-0.132 0.396,2.64 1.653,5.217 1.647,3.378 2.057,-0.157 3.176,2.305 2.515,5.535 4.374,3.763 4.421,11.308 0.022,3.528 0.96,1.389 3.482,5.8 1.389,2.43 2.61,4.96 4.995,6.651 1.353,0.959 0.854,3.488 1.915,3.844 4.04,1.358 1.454,10.577 10.605,10.223 2.412,-0.093 19.914,0.98 21.48,1.964 1.188,0.747 2.658,2.251 3.719,1.168 6.046,-6.171 -1.031,-5.946 -8.027,-27.312 -0.328,-1.001 -6.411,-20.261 -4.383,-20.516 1.455,-0.182 18.606,46.457 24.967,42.866 3.19,-1.8 4.985,0.704 7.346,2.042 4.663,2.643 5.684,-3.939 11.497,-1.349 1.556,0.693 15.866,1.196 2.814,3.872 -28.506,5.846 -33.563,1.14 -57.944,3.852 z" />
            <path
               inkscape:connector-curvature="0"
               id="path38"
               d="m 171.76,1264.3 c -4.124,1.399 -27.641,-7.987 -28.641,-8.489 -2.962,-1.488 -19.863,-13.214 -19.863,-13.214 -1.231,0.199 -11.814,-7.243 -11.512,-10.064 0.036,-0.337 0.029,-0.489 -0.341,-0.61 -10.239,-3.361 -55.574,-62.084 -50.209,-59.564 9.888,4.641 8.846,10.339 13.853,11.702 2.156,0.587 2.337,2.837 3.117,4.165 1.767,3.008 4.057,5.228 6.739,7.232 2.514,1.878 3.824,4.744 5.713,7.126 11.527,14.536 34.739,31.654 34.739,31.654 6.288,1.324 9.635,7.053 14.865,10.023 1.779,1.01 3.67,2 5.389,3.23 2.026,1.448 9.576,-2.348 5.558,0.426 -3.016,2.082 6.315,5.373 9.453,4.539 1.305,-0.347 3.5,-1.468 3.163,1.706 -0.111,1.048 11.111,1.954 13.206,1.933 2.441,-0.024 -0.461,2.556 2.006,1.857 5.268,-1.491 7.86,4.71 9.971,-0.199 0.143,-0.333 1.649,-0.997 2.319,-0.408 3.341,2.937 7.49,1.53 11.236,2.225 0.801,0.149 1.876,-0.271 2.257,0.68 1.93,4.825 2.034,0.96 2.689,-0.525 1.15,-2.607 8.482,-2.145 9.482,-1.52 1.024,0.64 1.295,2.465 -0.681,2.131 -1.823,-0.308 -2.697,2.598 -4.778,1.406 -3.003,2.679 -29.93,6.018 -39.73,2.558 z" />
            <path
               inkscape:connector-curvature="0"
               id="path40"
               d="m 436.64,1103.1 c -0.108,0.244 -0.154,0.629 -0.336,0.71 -2.446,1.097 -3.072,3.777 -4.817,5.473 -2.24,2.178 -3.773,0.884 -7.887,7.047 -3.62,5.424 -8.223,6.868 -11.709,14.373 -2.372,5.108 3.721,13.813 3.363,19.936 -0.031,0.53 0.139,1.239 0.49,1.596 2.712,2.755 2.545,5.857 1.742,9.361 -0.445,1.943 -0.184,8.469 -0.534,8.532 -0.979,0.178 -3.712,-7.137 -3.961,-8.619 -1.015,-6.038 -7.209,-27.352 -13.511,-31.33 -0.824,-0.521 -2.545,-2.516 -1.736,-3.475 0.992,-1.174 1.65,0.761 4.657,3.469 1,0.9 2.337,0.635 1.992,-1.067 -1.119,-5.516 -4.377,-3.707 -5.015,-7.981 -5.945,-39.838 -5.051,-17.03 -3.331,-29.748 0.219,-1.618 -1.333,-3.048 -0.52,-5.373 4.469,-12.78 -0.573,-12.719 7.468,-29.776 7.7,-16.334 16.389,-25.178 17.39,-25.036 4.038,0.572 -7.222,10.903 -6.936,16.679 0.021,0.417 0.051,1.029 -0.191,1.234 -4.939,4.173 -7.59,27.1 -12.72,37.581 -1.766,3.607 6.244,-1.953 10.276,-7.16 0.678,-0.875 -1.23,-3.251 0.65,-2.462 4.713,1.978 4.473,-5.632 9.494,-6.025 0.585,-0.046 0.889,-1.394 1.551,-0.464 0.168,0.236 -0.479,1.474 -0.989,1.69 -1.373,0.582 -2.128,1.088 -1.357,2.78 0.611,1.34 -5.284,5.514 -6.441,8.461 -0.728,1.854 -7.992,-10e-4 -4.92,2.687 0.699,0.612 0.215,1.141 -0.252,1.762 -10.264,13.656 1.991,22.984 -2.382,38.665 -1.474,5.288 5.415,-7.323 21.354,-21.468 1.651,-1.465 3.848,-2.117 5.399,-3.791 1.357,-1.464 3.735,0.144 3.719,1.739 z" />
            <path
               inkscape:connector-curvature="0"
               id="path42"
               d="m 455.78,795.44 c -3.495,-3.331 9.255,-43.85 9.345,-49.168 0.111,-6.532 7.481,-10.471 5.049,-11.929 -2.657,-1.592 -1.559,-4.34 -1.559,-4.34 -4.111,-2.916 -1.479,-6.945 -1.626,-10.446 -1.414,-33.695 8.109,-28.72 18.817,-39.672 1.063,-1.087 3.984,0.329 4.221,-0.39 0.181,-0.548 -1.29,-1.943 -0.915,-2.382 0.082,-0.096 0.798,0.18 1.069,0.441 5.904,5.714 -8.367,6.529 -7.603,10.107 -9.011,4.69 -12.22,48.703 -0.78,40.877 6.733,-4.606 5.567,-6.595 8.34,-5.068 5.932,3.264 0.312,1.002 -5.804,9.634 -2.579,3.64 -6.551,0.56 -5.395,3.126 2.373,5.266 -7.855,5.902 -6.582,15.648 0.018,0.141 -7.947,29.814 -8.114,30.151 -2.44,4.92 3.065,6.025 0.189,7.411 -6.339,3.055 -2.895,8.278 -5.809,5.538 -1.188,-1.117 -2.042,-0.279 -2.944,0.396 0.008,0.007 0.101,0.066 0.101,0.066 z" />
            <path
               inkscape:connector-curvature="0"
               id="path44"
               d="m 641.28,672.33 c -45.959,0.552 -41.588,5.069 -42.304,-0.82 -0.806,-6.624 6.979,-0.228 8.981,-4.864 0.116,-0.269 0.829,-0.543 1.121,-0.433 3.576,1.347 6.704,-1.586 10.199,-1.04 2.517,0.393 0.884,-4.782 3.425,-0.85 2.184,3.38 9.718,-1.282 32.472,-0.723 0.731,1.134 14.295,-0.672 15.295,-0.766 1.991,-0.187 3.507,0.855 5.285,1.161 2.274,0.391 27.256,1.14 28.024,0.316 2.073,-2.224 4.016,-0.734 5.886,0.315 16.195,9.085 -61.214,7.618 -68.384,7.704 z" />
            <path
               inkscape:connector-curvature="0"
               id="path46"
               d="m 108.7,589.54 c 6.492,-1.594 4.302,1.785 8.338,-1.041 0.52,-0.364 0.859,-1.573 1.452,-1.35 4.695,1.763 8.949,-2.589 13.593,-0.888 5.031,-2.097 24.952,-0.412 31.652,0.139 15.13,1.244 38.759,13.299 40.399,14.032 1.635,0.731 0.879,2.359 1.452,3.226 0.499,0.754 2.053,-1.875 3.156,-0.641 1.012,1.132 3.226,0.588 3.406,3.08 0.103,1.42 2.369,3.355 1.011,4.413 -2.396,1.866 -2.866,-2.725 -4.484,-2.866 -2.553,-0.222 -25.706,-8.563 -26.709,-8.908 -10.195,-3.51 -21.002,-3.594 -31.37,-6.046 -14.228,0.44 -28.554,-1.236 -42.653,1.977 -7.45,1.697 -4.921,-6.983 0.757,-5.127 z" />
            <path
               inkscape:connector-curvature="0"
               id="path48"
               d="m 520.04,297.85 c 2.042,3.505 -1.315,0.235 -2.34,3.037 -2.859,7.809 -11.262,14.991 -12.877,14.905 -1.415,-0.076 -1.226,3.387 -2.829,3.295 -1.334,-0.076 -2.969,-0.355 -3.88,-1.191 -2.817,-2.589 -13.827,0.609 -4.927,-6.551 2.175,-1.75 20.433,-22.309 17.004,-34.885 -0.383,-1.405 -0.03,-2.47 0.558,-3.616 2.869,-5.592 -3,-4.715 -0.407,-7.292 1.428,-1.419 5.075,-0.981 4.766,2.038 -0.263,2.566 0.914,4.682 2.411,6.594 3.432,4.386 1.938,22.666 2.521,23.666 z" />
            <path
               inkscape:connector-curvature="0"
               id="path50"
               d="m 411.93,1173.2 c 4.229,0.56 2.709,4.534 5.315,-0.071 2.709,-4.787 5.414,-9.481 9.094,-13.726 32.623,-37.64 32.594,-24.338 26.226,-20.019 -4.061,2.754 -4.975,5.906 -4.975,5.906 -5.096,1.738 -5.38,7.027 -5.38,7.027 -4.062,-0.979 -2.516,4.465 -4.689,4.777 -3.642,0.523 -7.719,10.761 -8.745,14.045 -2.475,7.918 -6.448,5.798 -4.97,10.162 2.778,8.202 -2.877,23.085 -4.33,12.671 -1.576,-11.294 -7.207,-19.89 -7.426,-20.89 z" />
            <path
               inkscape:connector-curvature="0"
               id="path52"
               d="m 636.66,740.58 c 4.659,2.29 4.587,-15.832 6.257,-6.594 1.103,6.104 3.806,-0.159 5.457,1.358 5.12,4.705 3.529,5.333 11.101,9.728 6.059,3.517 12.93,9.572 12.93,9.572 4.648,-1.729 5.094,3.146 6.777,4.401 2.026,1.51 14.697,6.811 -42.041,-16.491 -5.106,-2.097 -2.275,-7.403 -5.528,-3.937 -6.824,7.271 10.45,-26.151 9.9,-45.817 -0.012,-0.428 0.013,-1.385 0.767,-1.231 0.562,0.115 0.199,0.947 0.312,1.432 3.273,14.077 -5.932,47.579 -5.932,47.579 z" />
            <path
               inkscape:connector-curvature="0"
               id="path54"
               d="m 283.63,1252.7 c -3.542,0.505 -10.266,2.771 -8.585,-0.606 0.994,-1.997 -1.28,-3.27 0.121,-3.798 1.036,-0.39 2.247,-1.85 3.404,-0.634 1.513,1.59 1.81,-2.277 3.569,-0.526 0.888,0.883 2.434,0.086 2.929,-1.691 1.289,-4.636 39.97,2.639 43.512,-0.21 4.877,-3.92 8.021,3.061 13.08,-0.836 2.617,-2.016 5.965,4.394 0.434,5.145 -30.275,4.11 -33.605,-0.386 -58.464,3.156 z" />
            <path
               inkscape:connector-curvature="0"
               id="path56"
               d="m 458.15,423.46 c -0.864,3.399 -1.931,12.707 -13.685,21.699 -6.812,5.212 -12.204,10.232 -19.046,4.581 -0.518,-0.428 -0.719,-0.875 0.075,-1.18 22.719,-8.697 31.285,-55.832 32.656,-25.1 z" />
            <path
               inkscape:connector-curvature="0"
               id="path58"
               d="m 697.26,732.19 c -0.36,-0.317 -24.156,-5.41 -28.235,-5.582 -6.29,-0.266 4.415,-22.099 9.807,-39.716 3.273,-10.69 -4.535,33.671 2.462,35.024 1.051,0.203 11.725,5.211 12.641,5.766 1.559,0.943 2.528,3.26 5.01,2.066 0.296,-0.142 1.891,1.176 1.814,1.567 -0.169,0.858 -0.805,0.21 -1.249,0.268 -0.679,0.089 -1.337,0.35 -2.25,0.607 z m -26.753,-8.985 c 3.327,0.248 9.056,-9.06 5.513,-6.794 -0.658,0.421 -0.515,2.408 -1.823,1.327 -1.412,-1.167 -1.373,-0.989 -4.612,3.726 -0.786,1.141 0.154,1.421 0.922,1.741 z" />
            <path
               inkscape:connector-curvature="0"
               id="path60"
               d="m 69.332,472.64 c -2.931,0.457 -6.708,1.573 -7.674,-1.203 -1.497,-4.3 4.42,-4.675 4.305,-6.613 -0.026,-0.431 0.636,-0.333 0.989,-0.08 2.943,2.107 6.47,1.136 9.674,1.579 7.312,1.011 13.321,7.216 16.781,7.795 7.01,1.173 3.82,2.935 8.979,4.03 5.304,1.126 3.797,6.947 1.368,6.085 -19.887,-7.057 -24.67,-5.207 -31.327,-10.33 -1.02,-0.786 -2.24,-1.109 -3.095,-1.263 z" />
            <path
               inkscape:connector-curvature="0"
               id="path62"
               d="m 480.84,640.8 c 9.656,-35.67 15.698,-30.465 12.877,-21.093 -0.032,0.106 -4.169,15.771 -4.19,15.971 -0.446,4.179 6.233,5.179 7.504,3.336 0.969,-1.404 4.35,-1.168 1.89,2.994 -0.817,1.381 -2.229,-0.646 -3.006,0.497 -1.088,1.6 2.016,2.85 0.326,3.433 -5.865,2.025 -5.386,5.999 -9.605,5.053 -2.63,-0.59 -0.522,-4.947 -3.054,-5.63 -2.7,-0.728 -1.605,-3.28 -2.742,-4.561 z" />
            <path
               inkscape:connector-curvature="0"
               id="path64"
               d="m 600.92,754.09 c -10.66,-1.3 -6.721,2.337 -3.847,-32.616 5.415,-65.85 7.665,3.106 4.023,24.871 -0.444,2.655 -0.911,5.197 -0.265,7.84 z" />
            <path
               inkscape:connector-curvature="0"
               id="path66"
               d="m 567.82,888.92 c -1.025,1.908 0.041,4.067 -1.219,6.048 -1.527,2.4 -2.984,4.959 -3.182,7.996 -0.172,2.645 -5.324,0.348 -1.476,-14.25 1.572,-5.963 1.282,-25.714 3.273,-30.263 1.868,-4.267 4.693,0.584 4.374,1.587 -0.377,1.188 8.799,9.213 -1.77,28.882 z" />
            <path
               inkscape:connector-curvature="0"
               id="path68"
               d="m 562.96,407.55 c 0.85,-4.352 1.998,1.446 3.844,-1.227 4.872,-7.054 12.937,-4.317 24.328,-4.851 9.7,-0.455 8.323,-0.622 11.114,1.345 4.287,3.02 3.242,-4.374 5.55,-5.002 1.779,-0.484 2.675,1.251 3.982,1.98 10.222,5.705 -3.354,4.052 -46.3,11.598 -1.039,0.181 -3.513,1.245 -2.518,-3.843 z" />
            <path
               inkscape:connector-curvature="0"
               id="path70"
               d="m 226.07,1414 c -3.647,0.683 -18.45,-1.174 -12.689,-3.431 3.329,-1.305 27.923,-0.547 27.923,-0.547 2.176,-3.31 5.664,-3.171 8.715,-2.69 11.132,1.755 11.645,-4.186 19.159,-2.771 5.288,0.995 7.499,-2.152 6.831,1.076 -0.673,3.257 -3.679,3.624 -5.914,3.789 -8.723,0.643 -17.281,2.716 -26.035,2.899 -5.921,0.124 -11.651,1.993 -17.99,1.675 z" />
            <path
               inkscape:connector-curvature="0"
               id="path72"
               d="m 306.89,120.05 c -0.609,-1 3.338,-5.109 9.625,-4.278 4.802,0.635 4.547,-3.99 7.095,-0.252 1.483,2.176 3.008,5.494 7.215,4.108 1.144,-0.377 6.71,0.27 6.503,1.493 -0.08,0.475 -0.516,0.688 -0.91,0.609 -2.158,-0.437 -4.204,0.489 -5.349,1.837 -1.275,1.501 -4.065,-0.761 -4.361,2.21 -0.059,0.59 -0.961,0.292 -1.45,0.048 -2.208,-1.101 -4.3,-0.801 -6.341,0.447 -3.097,1.893 -6.847,1.079 -10.116,2.415 -3.41,1.393 0.739,-4.283 -1.911,-8.637 z" />
            <path
               inkscape:connector-curvature="0"
               id="path74"
               d="m 474.5,664.49 c -1.197,-6.021 2.641,-9.642 6.321,-13.325 1.378,-1.38 2.294,0.161 3.258,0.726 1.345,0.787 0.205,1.176 -0.222,2.008 -0.871,1.699 -0.981,3.73 -0.89,5.738 0.212,4.694 -0.549,4.598 -2.274,8.716 -1.316,3.139 -0.554,6.81 -2.738,9.775 -0.993,1.347 -0.248,2.992 0.662,4.35 0.749,1.116 -0.368,1.531 -1.092,0.966 -3.113,-2.428 -2.421,2.851 -4.033,2.896 -5.393,0.154 1.75,-18.118 1.008,-21.85 z" />
            <path
               inkscape:connector-curvature="0"
               id="path76"
               d="m 600.83,754.18 c 0.736,0.503 1.811,0.918 2.387,0.519 2.508,-1.738 5.168,0.149 7.779,-0.479 1.101,-0.265 3.534,-0.362 4.237,1.844 4.059,0.851 6.528,4.682 10.592,5.608 1.593,0.363 3.184,0.949 4.017,2.773 0.457,1 40.592,25.752 -11.097,-0.269 -3.857,-1.942 -16.862,-5.101 -17.827,-10.087 10e-4,-0.004 -0.088,0.091 -0.088,0.091 z" />
            <path
               inkscape:connector-curvature="0"
               id="path78"
               d="m 412.05,1173 c -0.771,0.01 -17.904,-9.857 -26.956,-14.739 -4.895,-2.639 -18.788,-7.864 -18.619,-8.435 0.419,-1.406 45.889,7.632 45.454,23.289 0.002,10e-4 0.121,-0.115 0.121,-0.115 z" />
            <path
               inkscape:connector-curvature="0"
               id="path80"
               d="m 495.06,200.75 c -25.989,-3.766 -27.179,-22.501 -14.344,-14.898 2.77,1.641 15.384,7.649 15.389,10.531 0.005,2.643 6.965,1.887 -1.045,4.367 z" />
            <path
               inkscape:connector-curvature="0"
               id="path82"
               d="m 220.22,656.88 c -0.856,5.245 -6.317,2.67 -4.117,5.555 0.376,0.492 -3.439,6.568 -4.036,8.52 -0.01,0.034 -9.906,8.822 -11.34,9.453 -1.909,0.841 -0.021,-2.322 -4.015,-3.237 -3.024,-0.693 -2.738,-1.246 7.607,-10.08 10.479,-8.949 14.449,-17.733 15.901,-10.211 z" />
            <path
               inkscape:connector-curvature="0"
               id="path84"
               d="m 77.77,487.3 c 1.863,1.954 1.328,4.125 0.536,6.221 -1.282,3.391 0.155,7.449 -2.629,10.459 -0.372,0.402 -0.552,1.343 -0.878,1.371 -3.674,0.314 -3.982,6.53 -6.373,6.868 -2.423,0.342 -4.694,1.831 -7.266,1.007 -0.969,-0.311 -0.862,-1.056 -0.224,-1.572 10.128,-8.193 12.774,-30.111 16.651,-27.782 1.44,0.866 -0.958,2.231 0.183,3.428 z" />
            <path
               inkscape:connector-curvature="0"
               id="path86"
               d="m 355.81,1101 c 1.119,0.955 2.881,0.796 3.899,2.132 1.443,1.895 3.631,2.886 5.757,3.22 8.624,1.358 42.273,21.422 24.962,16.884 -5.267,-1.38 -40.915,-19.783 -34.618,-22.236 z" />
            <path
               inkscape:connector-curvature="0"
               id="path88"
               d="m 432,707.65 c 26.136,9.669 30.81,24.677 26.198,24.352 -2.531,-0.178 -1.973,-4.023 -5.153,-3.964 -1,0.019 -23.124,-18.15 -21.045,-20.388 z" />
            <path
               inkscape:connector-curvature="0"
               id="path90"
               d="m 437.97,660.05 c 4.878,-1.832 40.806,33.304 27.664,27.515 -4.65,-2.049 -26.752,-25.17 -27.549,-27.622 -0.007,0.007 -0.115,0.107 -0.115,0.107 z" />
            <path
               inkscape:connector-curvature="0"
               id="path92"
               d="m 104.22,1184.1 c 5.338,3.645 17.014,2.114 22.541,7.025 2.298,2.042 7.912,1.793 7.504,3.268 -1.645,5.954 -33.426,-7.546 -34.738,-9.012 2.295,-1.585 4.081,-1.699 4.693,-1.281 z" />
            <path
               inkscape:connector-curvature="0"
               id="path94"
               d="m 231.16,1216.8 c 1.485,3.031 -4.515,3.504 -8.286,10.255 -2.403,4.303 1.892,5.113 -6.52,9.041 -5.61,2.619 -1.815,5.281 -5.819,5.055 -4.031,-0.227 -1.504,5.53 -3.139,5.479 -6.04,-0.19 22.8,-37.244 23.764,-29.83 z" />
            <path
               inkscape:connector-curvature="0"
               id="path96"
               d="m 34.706,530.76 c -3.368,-23.064 8.061,-0.88 7.757,3.754 -0.11,1.671 2.131,7.578 1.038,6.485 -2.026,-2.026 -3.283,1.159 -5.145,0.584 -0.594,-0.183 -1.417,-0.076 -1.444,-0.745 -0.141,-3.502 -3.165,-6.34 -2.206,-10.078 z" />
            <path
               inkscape:connector-curvature="0"
               id="path98"
               d="m 375.07,76.594 c 1.134,0.985 1.293,-0.288 1.894,-0.667 1.845,-1.164 3.795,-2.427 6.085,-1.512 1.768,0.706 3.147,-1.714 5.114,-0.199 1.352,1.041 3.131,3.304 2.834,5.416 -0.308,2.184 -2.744,1.21 -4.695,1.941 -3.17,1.186 -5.754,0.863 -7.29,-2.585 -0.553,-1.241 -2.034,-1.524 -2.036,2.907 -0.002,3.769 -2.237,0.96 -4.813,4.946 -1.21,-1.342 -1.52,-7.582 1.573,-4.935 1.644,1.407 1.727,0.085 1.112,-0.919 -1.554,-2.532 -3.59,-4.38 0.222,-4.393 z" />
            <path
               inkscape:connector-curvature="0"
               id="path100"
               d="m 256.71,1358.2 c 6.526,2.503 3.934,-1.478 8.038,0.022 9.75,3.563 15.09,-0.22 16.216,3.773 0.333,1.182 0.689,2.298 -1.275,2.077 -54.554,-6.153 -35.52,-10.681 -22.979,-5.872 z" />
            <path
               inkscape:connector-curvature="0"
               id="path102"
               d="m 167.33,1233 c -2.166,-1.462 14.992,-19.445 16.869,-18.745 7.512,2.801 -14.92,20.063 -16.869,18.745 z" />
            <path
               inkscape:connector-curvature="0"
               id="path104"
               d="m 393.18,1085.6 c -0.162,1 -0.307,3.722 -2.043,2.571 -0.38,-0.252 -17.337,-17.888 -18.258,-19.597 -2.678,-4.968 7.073,3.817 16.791,10.899 2.058,1.5 3.181,3.508 3.51,6.127 z" />
            <path
               inkscape:connector-curvature="0"
               id="path106"
               d="m 626.71,866.41 c -2.318,-2.13 -5.046,-1.271 -3.526,-2.757 4.984,-4.875 6.06,-2.76 7.725,-6.142 0.855,-1.736 8.534,-9.913 9.814,-8.386 0.966,1.15 -13.492,16.283 -14.013,17.285 z" />
            <path
               inkscape:connector-curvature="0"
               id="path108"
               d="m 376.42,1034.9 c 1,-0.13 5.323,5.013 0.911,8.649 -4.277,3.525 -0.904,3.501 -4.468,3.343 -1.833,-0.082 -1.453,-3.499 -0.61,-4.995 2.629,-4.666 -8.853,0.388 4.167,-6.997 z" />
            <path
               inkscape:connector-curvature="0"
               id="path110"
               d="m 588.6,846.58 c -4.655,-2.913 10.326,-9.741 11.88,-15.009 0.414,-1.404 2.969,0.978 1.968,1.566 -2.105,1.235 -1.439,4.302 -3.948,5.256 -2.157,0.82 -3.552,2.988 -4.496,4.798 -1.291,2.477 -4.232,1.358 -5.404,3.389 z" />
            <path
               inkscape:connector-curvature="0"
               id="path112"
               d="m 75.221,530.74 c 0.378,0.337 0.768,0.305 1.055,-0.077 2.351,-3.131 4.522,-3.769 7.874,-1.756 1,0.6 5.487,0.244 5.495,2.003 0.009,2.033 -2.689,0.559 -11.024,2.393 -1.001,0.22 -4.136,-0.064 -3.39,-2.575 z" />
            <path
               inkscape:connector-curvature="0"
               id="path114"
               d="m 32.785,513.1 c -2.742,-5.032 3.181,-10.753 2.794,-5.313 -0.49,6.881 6.09,10.045 2.168,10.616 -3.648,0.531 -4.934,-0.676 -4.962,-5.303 z" />
            <path
               inkscape:connector-curvature="0"
               id="path116"
               d="m 75.231,530.73 c -0.628,0.506 -11.792,4.473 -12.222,4.624 -1.847,0.647 -1.565,-0.36 -3.452,-3.799 1.232,-0.469 8.021,-2.299 11.409,-0.553 0.351,0.181 0.852,0.143 0.963,-0.436 0.448,-2.339 1.318,-0.912 2.158,-0.273 0.311,0.237 0.748,0.308 1.131,0.452 0.003,-0.003 0.013,-0.015 0.013,-0.015 z" />
            <path
               inkscape:connector-curvature="0"
               id="path118"
               d="m 46.235,487.41 c -4.624,-0.033 -1.153,4.028 -4.385,7.675 -1.381,1.558 -3.021,-0.606 -4.35,0.784 -3.377,3.531 5.737,-13.699 9.84,-11.208 1.309,0.795 -0.104,2.757 -1.105,2.749 z" />
            <path
               inkscape:connector-curvature="0"
               id="path120"
               d="m 92.249,598.27 c -3.253,-0.589 -6.11,-0.679 -4.941,-2.563 1.056,-1.701 0.898,0.39 1.357,0.492 3.215,0.713 10.324,-7.527 11.141,-3.37 0.922,4.685 -3.698,4.753 -7.557,5.441 z" />
            <path
               inkscape:connector-curvature="0"
               id="path122"
               d="m 668.74,916.49 c -4.36,-0.055 -6.296,-6.465 0.442,-6.282 1.714,0.047 3.41,6.331 -0.442,6.282 z" />
            <path
               inkscape:connector-curvature="0"
               id="path124"
               d="m 540.08,250.91 c -0.654,2.019 1.626,3.082 0.17,3.757 -1.799,0.834 -13.05,-2.725 -2.741,-5.883 2.087,-0.64 2.614,-0.189 2.571,2.126 z" />
            <path
               inkscape:connector-curvature="0"
               id="path126"
               d="m 679.3,888.81 c 0.388,1.868 -2.711,1.422 -4.28,1.879 -4.739,1.381 -6.644,-4.104 -4.677,-3.468 1,0.323 8.417,-1.011 8.957,1.589 z" />
            <path
               inkscape:connector-curvature="0"
               id="path128"
               d="m 95.418,1159.4 c -1.322,-4.017 5.907,-2.528 6.361,-0.687 0.453,1.84 -1.885,3.327 -4.475,3.481 -2.322,0.14 -2.049,-1.272 -1.886,-2.794 z" />
            <path
               inkscape:connector-curvature="0"
               id="path130"
               d="m 707.92,695.47 c -2.303,1.624 -2.302,4.637 -3.653,6.958 -0.893,1.535 -3.248,0.379 -4.423,1.859 -0.166,0.209 -0.527,-0.416 -0.378,-0.825 0.094,-0.26 0.378,-0.476 0.406,-0.731 0.246,-2.292 3.832,-1.855 3.637,-3.542 -0.247,-2.139 2.541,-4.156 4.2,-4.8 0.051,0.269 0.104,0.536 0.211,1.081 z" />
            <path
               inkscape:connector-curvature="0"
               id="path132"
               d="m 60.71,1168.8 c -4.324,0 -4.476,0.274 -4.524,-0.687 -0.145,-2.876 24.53,-0.741 8.763,0.554 -1.404,0.115 -2.824,0.024 -4.238,0.024 0,0.037 -10e-4,0.073 -10e-4,0.109 z" />
            <path
               inkscape:connector-curvature="0"
               id="path134"
               d="m 586.92,362.13 c 0.972,0.303 2.843,-0.565 2.434,2.018 -0.44,2.783 -0.274,3.021 -1.211,2.648 -1.439,-0.573 -4.218,1.003 -4.083,-2.04 0.05,-1.115 0.297,-3.408 2.86,-2.626 z" />
            <path
               inkscape:connector-curvature="0"
               id="path136"
               d="m 648.09,789.03 c -0.547,1.65 -2.361,0.598 -3.478,1.184 -3.011,1.579 -1.344,-5.17 0.578,-5.252 0.287,-0.013 2.836,3.337 2.9,4.068 z" />
            <path
               inkscape:connector-curvature="0"
               id="path138"
               d="m 623.34,867.64 c -0.029,0.595 -2.961,3.02 -3.74,2.991 -3.055,-0.115 -0.995,-5.391 1.125,-5.458 0.857,-0.028 2.654,1.668 2.615,2.467 z" />
            <path
               inkscape:connector-curvature="0"
               id="path140"
               d="m 224.64,645.67 c -0.751,1.002 -3.992,7.879 -5.392,7.028 -2.413,-1.467 3.27,-5.915 3.852,-7.878 0.159,-0.536 0.957,-0.578 1.54,0.85 z" />
            <path
               inkscape:connector-curvature="0"
               id="path142"
               d="m 489.33,788.89 c -0.139,2.486 -3.393,-0.512 -5.288,-0.385 -1.952,0.132 -0.07,-5.943 1.904,-4.039 1.336,1.289 2.301,2.964 3.384,4.424 z" />
            <path
               inkscape:connector-curvature="0"
               id="path144"
               d="m 581.86,369.36 c 0.632,5.006 -4.701,0.794 -4.742,-0.206 -0.032,-0.772 2.831,-3.149 3.703,-2.906 1.803,0.504 0.287,2.247 1.039,3.112 z" />
            <path
               inkscape:connector-curvature="0"
               id="path146"
               d="m 687.68,712.71 c 2.093,1.293 4.015,-4.091 5.423,-1.957 0.66,1 -7.111,7.275 -8.607,4.416 1.771,-0.302 1.161,-3.076 3.184,-2.459 z" />
            <path
               inkscape:connector-curvature="0"
               id="path148"
               d="m 314.68,1401.1 c -3.51,-1.859 -2.605,-1.265 -1.945,-2.799 1.187,-2.76 2.475,-0.449 3.651,-0.395 1.396,0.064 1.489,4.887 -1.706,3.194 z" />
            <path
               inkscape:connector-curvature="0"
               id="path150"
               d="m 700.44,908.94 c -0.004,1.313 -0.927,1.238 -1.771,1.213 -1.178,-0.036 -0.589,2.177 -2.008,1.635 -1.001,-0.383 -4.37,-4.026 -2.585,-5.011 1.897,-1.046 1.634,4.148 4.695,0.907 0.615,-0.651 1.386,0.461 1.669,1.256 z" />
            <path
               inkscape:connector-curvature="0"
               id="path152"
               d="m 34.199,501.68 c 1.174,-5.707 5.144,-3.719 4.698,-1.653 -0.229,1.061 -3.195,3.457 -4.027,3.307 -1.244,-0.225 -0.223,-1.121 -0.671,-1.654 z" />
            <path
               inkscape:connector-curvature="0"
               id="path154"
               d="m 489.37,781.09 c 6.268,0.967 6.281,7.179 -0.524,2.529 -0.495,-0.338 -1.587,-0.15 -1.394,-1.175 0.184,-0.98 1.099,-1.152 1.918,-1.354 z" />
          </g>
        </g>
      </g>
    </g>
  </g>
</svg>
