<?xml version="1.0" encoding="UTF-8"?><svg id="Layer_1" xmlns="http://www.w3.org/2000/svg" width="4.594in" height="5.967in" viewBox="0 0 330.76 429.643"><path id="path49-2" d="M313.288,182.604c-7.872-3.375-14.683-7.984-20.693-13.993-3.406-3.436-7.583-5.812-12.333-6.953-1.802-.431-3.629-.421-5.522-1.03-.665-6.644-5.877-14.795-11.455-17.699h0c-4.126-2.695-7.03-6.43-9.953-10.461-4.609-6.268-10.791-11.075-17.886-14.425-1.716-.802-1.69-1.517-.716-2.746,1.315-1.69,2.604-3.406,3.979-5.096,3.005-3.751,5.608-7.755,8.156-12.592.086,9.872,2.431,18.257,7.872,25.697,3.406,4.664,7.984,7.354,13.506,8.644,1.462.345,2.949.198,4.091-.944,1.259-1.259.173-2.406-.315-3.492-.974-2.203-2.177-4.319-2.72-6.725-1.629-6.898-.832-14.023-2.573-21.693,4.634,4.664,8.187,9.131,11.105,14.166.716,1.259,1.259,3.289,3.264,2.746,1.974-.543,1.69-2.548,1.802-4.207.284-4.035.629-8.1.974-12.506,4.867,3.948,9.471,7.699,14.11,11.42,1.629,1.289,3.147,2.603,3.862,4.664.284.802.401,2.005,1.802,1.949,1.172-.056,1.776-.857,2.259-1.66,1.462-2.548,1.832-5.38,1.487-8.243-1.117-8.644-5.436-15.511-11.963-21.149-2.517-2.172-5.522-3.948-7.243-7.324,5.294.345,10.273.543,15.226-.512,7.101-1.533,14.206-3.294,21.221.345,1.127.584,2.218-.071,2.411-1.325.218-1.421-.127-2.725-.792-3.999-1.919-3.609-4.609-6.583-7.872-8.989-6.299-4.548-13.678-5.608-21.119-5.411-7.669.229-14.597-1.401-21.18-5.263-3.548-2.091-7.527-3.548-11.734-3.035-4.005.487-6.299-1.086-8.243-4.492-2.604-4.578-6.41-7.898-12.019-8.243-2.03-.142-2.604-1.401-3.005-2.949-.802-3.147-2.406-5.781-4.923-7.786-7.583-6.009-16.343-8.298-25.814-6.928-11.932,1.716-20.434,8.928-26.931,18.571-11.161,16.627-16.455,35.432-19.602,54.978-.574,3.603-.431,7.385-2.091,11.217-.685-4.35-1.462-8.298-1.888-12.247-.371-3.375-1.69-6.639-1.172-10.131,1.061-7.639,2.517-15.171,5.121-22.439,3.979-11.075,7.009-22.266,6.065-34.285-.716-9.187,3.147-16.683,10.019-22.692.629-.543,1.604-1.061,1.259-2.091-.371-1.03-1.345-1.315-2.406-1.234-.974.086-2.005.051-2.918.284-6.669,1.832-12.536,5.035-16.658,10.704-6.842,9.385-10.618,19.922-11.191,31.509-.173,3.035-.03,6.065-.03,9.1-2.832-6.152-5.436-12.191-8.786-17.917-4.522-7.786-9.674-14.967-17.571-19.688-9.846-5.867-21.236-4.319-28.159,3.751-2.462,2.832-3.979,6.212-4.979,9.785-.457,1.66-1.315,2.603-3.035,3.091-4.035,1.116-7.725,3.462-9.1,7.243-2.005,5.497-6.009,8.273-10.73,10.735-1.629.832-3.091,2.061-4.492,3.289-3.06,2.66-6.583,4.466-10.334,5.923-5.664,2.203-11.76,2.517-17.602,4.066-10.476,2.746-18.059,8.471-20.236,19.774-.259,1.289-.599,2.487.629,3.462,1.228.944,2.259.051,3.208-.518,3.289-1.888,6.725-3.203,10.562-2.832,6.781.629,13.481,2.462,20.464.832-1.172,1.543-2.548,2.776-3.862,4.066-4.766,4.735-8.019,10.354-9.278,17.206-.898,4.872-.421,9.984,1.573,14.516.543,1.239,1.365,2.284,2.812,2.421,1.629.142,2.03-1.259,2.66-2.345.518-.914.974-1.888,1.431-2.862,3.375-7.243,9.674-12.019,14.795-18.317.974,4.608,1.629,4.923,5.035,3.147,0,2.147.056,4.406-.03,6.669-.198,5.207.086,10.334,1.888,15.313.685,1.944,1.431,3.776,3.664,4.121,2.233.371,2.949-1.629,3.837-3.061,4.923-7.928,8.329-16.485,9.989-26.443,3.319,9.273,7.07,17.658,6.152,27.128-.117,1.147-.371,2.548,1,3.091,1.401.574,2.69.086,3.807-.888,1.573-1.375,2.72-3.005,3.522-4.948,2.72-6.583,2.863-13.481,2.893-20.464.03-4.319-.574-8.613-.599-13.394,4.634,3.578,9.471,5.664,14.11,8.157,7.182,3.862,9.359,8.669,7.872,16.627-.142.832-.284,1.574.401,2.177.802.746,1.573.431,2.406,0,2.72-1.401,4.954-3.32,6.38-6.182,1.888-5.411,1.974-10.943-2.72-20.49-3.091-6.238-9.217-9.76-14.424-13.993-2.974-2.401-5.35-5.167-6.953-8.623-1.858-4.004-3.654-8.09-6.329-11.603-1.203-1.579-1.381-2.903-.822-4.725,1.604-5.411,2.091-10.531-1.061-16.028-1.345-2.32.716-6.354,2.918-8.903,3.949-4.608,11.445-4.664,17.287-.401,5.75,4.207,9.618,9.933,12.907,16.084,8.989,16.912,15.338,34.716,19.033,53.547,3.979,20.261,7.354,40.583,6.38,61.332-.259,5.751.259,11.562-1.259,17.257-.629-6.613-1.147-13.191-1.919-19.774-.919-7.527-9.197-26.007-23.845-28.392-1.254-.203-2.04,1.253-1.162,2.177,8.466,8.882,16.917,27.301,15.79,32.6-5.035-12.308-13.881-21.008-26.499-25.783-15.511-5.867-37.721-1.228-43.416,16.744-.228.716-.746,1.431-1.69,1.487-6.527.315-10.877,4.492-13.481,9.588-2.462,4.781-5.811,7.984-9.699,11.445-6.04,5.436-12.648,8.928-20.378,10.846-7.07,1.776-14.135,3.665-19.891,8.613-4.807,4.152-8.385,8.958-8.958,15.511-.228,2.517,1.172,3.121,3.005,2.061,7.786-4.548,16.769-1.944,24.956-4.664-.198,1.487-1.289,1.975-1.944,2.807-7.385,9.187-13.364,18.86-10.735,31.483.315,1.517.056,3.517,1.548,4.177,1.716.746,3.005-.975,4.294-1.944.685-.518,1.172-1.315,1.776-1.975,2.69-3.091,5.41-6.152,8.613-9.816-1.315,3.979-1.573,7.385-1.746,10.76-.315,5.608.086,11.161,2.147,16.454,1.315,3.462,2.634,3.578,5.121.975,3.604-3.751,5.954-8.126,7.354-13.135.431-1.574.574-3.375,1.802-4.923,1.66,5.953,1.518,11.735.914,17.572-.117,1.116-.315,2.462.974,3.147,1.315.716,2.492-.051,3.492-.771,3.604-2.603,5.923-6.152,7.441-10.273,2.69-7.41,3.319-15.196,4.121-22.982.259-2.573.315-5.238,1.802-8.187,1.259,4.492,3.72,7.639,5.923,10.963,3.375,5.035,5.207,10.445,3.264,16.597-.513,1.574-2.03,3.776-.345,4.781,1.863,1.172,3.462-1.03,4.781-2.32,7.299-7.324,8.527-16.627,7.786-26.271-.401-5.035-1.832-9.958-2.604-14.967-1.345-8.557-1.944-17.287-5.522-25.327-.716-1.604-.03-2.573.66-3.751,2.949-5.035,4.751-10.273,3.147-16.201-.371-1.375-.832-3.005-.431-4.263,1.604-5.01,4.065-9.501,8.73-12.45,12.907-8.187,29.25-3.69,38.437,7.385,5.954,7.157,9.329,15.739,12.049,24.499,4.319,13.795,6.065,28.017,6.984,42.355.371,5.751.086,11.562.487,17.399-1.375-3.462-2.634-6.812-6.441-8.329-.487-.173-.858-1.375-.832-2.061.228-4.152-2.289-6.466-5.436-8.354-4.634-2.832-6.613-7.182-6.41-12.364.173-4.152-1.573-8.157-.66-12.334.259-1.203-.599-2.233-1.203-3.233-2.03-3.289-2.863-6.984-3.548-10.735-.832-4.38-.888-8.989-3.436-12.876-2.406-3.69-5.979-4.807-8.958-2.573-3.06,2.258-3.979,5.639-3.375,9.187.944,5.837.142,11.476-1.117,17.145-.746,3.32-1.573,6.725.858,9.816.574.716.284,1.543.056,2.233-1.289,3.979.086,7.04,2.974,9.73,1.629,1.548,3.208,3.207,3.664,5.522.117.599.746,1.431-.513,1.431-3.406,0-5.898,2.345-8.928,3.203-2.406.685-3.949,2.03-4.979,4.121-1.345,2.746-2.345,5.664-2.117,8.73.371,5.522-1.086,10.389-4.294,14.851-2.177,3.005-2.406,6.238-.487,9.588,1.487,2.634.371,6.527-1.944,7.583-3.862,1.776-5.41,4.923-4.177,9.044.411,1.355.279,2.441-.31,3.756-1.523,3.39-.964,7.385,1.177,10.425.822,1.167.65,1.68-.208,2.619-3.462,3.776-3.949,8.243-1.573,12.907.284.599.629,1.116.345,1.919-1.66,4.781,1.604,10.76,7.613,12.709,9.445,3.091,15.967,9.532,20.804,17.886,1.487,2.548,3.289,4.548,6.182,5.466.858.284,1.888.487,2.233,1.69,1.061,3.893,4.294,5.096,7.699,5.867,7.04,1.629,13.907,3.634,20.033,7.669,2.66,1.776,3.319,4.004,2.492,7.07-2.548,9.471-6.38,18.515-9.415,27.844-2.69,8.187-4.238,16.43-2.634,25.042.716,3.862,2.462,7.157,5.096,9.989.746.832,1.802,1.862,3.035,1.203,1.345-.685.771-2.061.574-3.177-.746-4.207-.66-8.415-.056-12.592,1.487-10.648,4.553-20.891,7.984-31.022,1.69-4.979,3.121-10.1,5.41-14.967.66.716.858,1.315.974,2.03.944,5.979,1.776,11.963,2.974,17.886,1.776,8.669,4.238,17.171,9.303,24.641,2.319,3.436,5.121,6.441,9.329,7.639,2.005.574,4.263.914,5.695-.975,1.375-1.802-.198-3.462-1.172-5.01-.315-.487-.685-.975-1.086-1.375-4.065-4.319-6.984-9.329-9.303-14.77-3.462-8.126-4.664-16.831-6.238-25.413-.117-.66-1.69-1.776.259-2.289,1.172-.284,2.061-.629,3.177.746,4.38,5.349,9.674,8.557,16.942,5.867.66-.229,2.061-.802,2.375.229,1.203,3.918,7.212,4.664,6.41,9.933-.117.66.746,1.543,1.289,2.233,2.319,2.807,5.238,4.608,8.902,5.207,7.354,1.203,13.277,4.664,17.774,10.735,2.604,3.522,5.35,7.009,8.613,9.989,3.776,3.807,4.492,5.121,8.07,2.005,3.578-3.116,7.872-4.238,8.786-5.152.888-.888-1.315-4.066-2.604-5.608h-.03c-.056-.086-.142-.173-.198-.259-.173-.198-.315-.401-.513-.629-5.497-6.238-11.049-12.45-16.485-18.744-1.832-2.147-3.375-4.548-5.065-6.812,3.06,1.203,5.781,2.69,8.354,4.35,7.669,4.893,13.364,12.049,20.236,17.886,5.781,4.893,4.553,5.837,9.044,1.431,4.492-4.406,7.095-7.527,8.73-9.618,1.629-2.091-2.005-5.436-4.263-7.212-.03-.051-.056,0-.056-.051-.284-.229-.574-.512-.858-.716-4.893-3.665-9.303-7.872-12.963-12.735-3.776-4.979-7.41-10.186-7.527-16.769-.086-7.07-3.492-11.735-9.618-14.739-3.35-1.604-3.893-3.436-2.03-6.497,3.091-5.152,4.091-10.1-.518-14.653-.944-.914-.574-1.716-.142-2.603,1.832-3.948,1.259-7.755-.716-11.445-.345-.599-.685-1.203-1.086-1.746-7.126-9.699-10.019-20.52-8.872-32.539.457-4.984.112-9.852-4.761-12.998-.416-.269-.65-.741-.619-1.234.365-5.43-3.238-8.146-7.354-10.207-2.832-1.431-4.954-3.492-6.725-5.953-3.406-4.72-5.75-9.903-6.527-15.739-.487-3.69-2.259-6.41-6.126-7.268-.746-.173-1.375-.401-1.401-1.203-.345-5.152-4.121-7.471-7.984-9.674-4.695-2.634-8.613-5.953-11.161-10.816-1.462-2.776-3.406-5.294-6.527-6.466-.888-.345-1-.716-.457-1.431,3.979-4.923,7.324-10.359,13.049-13.678,9.902-5.725,19.49-2.807,23.21,7.268.858,2.289,1.345,4.72,1.431,7.157.198,7.699,2.431,14.77,6.867,21.033,3.837,5.466,7.04,11.13,8.902,17.602,1.259,4.35,4.091,7.725,7.471,10.648,1.061.888,2.259,1.345,3.462.401,1.147-.914.371-2.005-.117-2.893-2.746-4.979-2.091-10.303-1.375-15.48.944-7.07,2.746-13.937,1.462-21.205-1.858-10.445-5.811-19.404-15.369-25.042-3.776-2.233-7.009-5.121-10.044-8.613,5.898-.487,11.42.431,16.998,1.315,3.578.574,7.212.802,10.76-.259.858-.259,1.776-.629,1.974-1.543.228-1.061-.746-1.462-1.487-1.919-3.091-1.919-5.979-4.066-8.613-6.553-13.425-12.623-32.909-11.648-44.416,2.005-2.776,3.263-5.41,6.756-9.044,9.187-.284.345-.518,1.259-.832.975-.457-.401-.142-1.203.198-1.802,2.462-10.273,6.842-19.663,13.166-28.073,7.156-9.588,16.455-15.368,28.819-15.399,2.406,0,3.807.574,4.294,3.121.284,1.375,1.061,2.746,1.919,3.918,1.315,1.776,2.832,4.177,5.268,3.548,2.548-.685,1.629-3.462,1.604-5.38-.056-2.258.599-2.888,2.66-1.944,6.867,3.147,12.136,8.1,16.084,14.48.228.401.599.746.228,1.517-3.522,7.126-2.319,14.166.66,21.119.858,1.944,1.401,7.786.858,9.816-1.832,6.497-2.172,13.135-1.315,19.774.802,6.182,1.259,12.161-.746,18.231-1.315,3.948-2.345,8.1-2.807,12.222-.974,8.557.629,16.541,7.095,22.895.858.832,1.802,1.69,3.06.771,1.061-.771,1.401-1.776,1.117-3.091-.543-2.721-.457-5.436-.03-8.187,1.086-7.157,5.923-12.45,9.156-18.632.543,6.126,1.543,12.049,3.406,17.8,2.147,6.639,5.35,12.562,11.445,16.454,1,.629,2.091,1.172,3.264.345,1.172-.802.716-1.975.518-2.949-.685-3.121-.832-6.324-.228-9.359,1-5.121,1.919-10.248,2.03-15.826.974,1.116,1.66,2.03,2.462,2.802.914.888,1.832,1.919,3.319,1.315,1.401-.574,1.604-1.832,1.66-3.177.03-.802.228-1.574.371-2.548,3.319,4.923,6.466,9.618,9.618,14.282,1.863,2.746,3.264,2.603,5.121-.284,3.005-4.72,3.492-9.872,2.573-15.226-1.401-8.243-4.035-16.054-8.527-23.697,3.634,1.604,7.009,2.862,10.131,4.522,5.725,3.091,9.846,7.613,11.445,14.11.345,1.431.117,3.436,2.375,3.462,2.061,0,2.604-1.746,3.208-3.289.198-.543.401-1.086.543-1.66,2.989-13.963-3.593-27.327-16.759-32.94v.023ZM105.117,304.091c4.695,4.319,10.562,7.009,13.364,13.08-5.756-1.228-13.079-8.268-13.364-13.08ZM115.101,292.59c-1.802-1.66-3.436-3.492-5.553-4.751-1.974-1.203-2.005-3.147-1.573-4.948.431-1.716.457-3.462.66-5.664,4.954,2.776,7.699,7.639,11.877,10.79,4.35,3.263,6.867,7.898,10.075,12.394-6.299-.639-11.13-3.786-15.485-7.821h0ZM119.369,254.037c.888-.599,2.03-1.604,2.974-.229.685,1.061,1.431,2.345.086,3.665-1.375,1.345-3.289,2.03-4.38,4.152-1.888-3.406-1.203-5.756,1.32-7.588h0ZM134.164,275.562c.345-1.147,2.573-.944,4.035-1,1.172-.051,2.289.086,3.462.457s2.746.771,3.208-.888c.371-1.401-.888-2.375-2.061-2.862-1.289-.543-3.177-.259-1.401-2.603.599-.802-.832-1.574-1.716-2.005-4.238-2.005-8.674-2.03-13.166-1.259-.66.116-1.345.543-1.974.229-.827-.426-2.233-.315-2.375-1.401-.142-1,.974-1.517,1.746-2.116,3.604-2.832,4.38-6.466,2.233-10.359-.457-.827-1.061-1.975-1.832-2.203-3.121-.857-3.208-3.035-2.863-5.608.284-2.116-.315-4.004-1.716-5.694-1.487-1.802-2.203-3.893-1.573-6.928,1.147,3.147,2.548,5.553,5.294,6.812.66.315.371,1.03.371,1.604-.03,4.608,1.919,8.212,5.954,10.359,9.674,5.096,15.054,13.967,20.292,22.895,2.147,3.634,1.345,7.984,1.289,12.562-4.923-2.746-10.161-3.578-14.369-6.694-1.233-.919-3.269-1.781-2.837-3.294h0ZM144.066,335.889c4.005,2.918,9.532,3.862,11.79,8.928-4.466-2.375-8.928-4.634-11.79-8.928ZM156.116,325.413c-2.776-1.919-3.436-5.096-5.583-8.014q5.781,2.579,5.583,8.014ZM177.778,337.98c1.375,1.259,2.375,2.147,3.35,3.091.487.457.888,1,1.172,1.629-1.888-.944-4.405-1.203-4.522-4.72ZM187.309,325.616c-4.208-2.69-7.755-6.212-11.506-9.532-4.121-3.665-4.837-8.44-4.837-14.023,11.445,7.182,20.434,16.226,27.103,28.047-4.38-.371-7.583-2.431-10.76-4.492ZM175.372,222.355c1.259,4.492,5.268,7.898,6.755,12.536.228.716,1.203,1.345,1.974,1.716,9.044,4.35,12.907,12.019,13.623,21.55.315,3.923,1.228,7.324,4.893,9.359.974.518.858,1.259.599,1.975-1.604,4.436.315,7.41,3.375,10.588,7.41,7.699,11.704,16.886,11.42,27.844-.03,1.862-.487,3.665-1.203,5.38-.574,1.401-1.518,2.258-2.776,2.005-2.72-.056-4.781-.975-6.583-2.289-7.755-5.664-13.993-12.735-18.947-20.977-1.315-2.147-1.802-4.492-2.117-6.898-.487-3.72-2.462-6.324-5.725-7.958-.914-.457-1.604-.716-1.548-2.03.117-4.066-1.888-7.354-5.583-8.471-7.41-2.258-8.354-7.669-8.557-14.196-.259-7.842-.746-15.683-.487-23.525.228-7.07.771-14.14,1.172-21.205.03-.401,0-.771.457-.914.543-.142.716.284.888.599,2.989,4.842,6.771,9.105,8.369,14.912ZM231.755,78.521c-.802,4.953-2.69,9.359-5.466,13.394-4.294,6.268-6.268,13.308-7.583,20.632-.315,1.66-.599,2.147-2.548,2.005-9.273-.543-17.312,2.975-24.641,8.354-10.846,7.984-17.287,19.175-22.352,31.31-1.03,2.487-2.03,5.035-3.06,7.557,0,.051-.173,0-.487.051.259-10.846,1.375-21.52,6.182-31.423,2.604-5.411,6.669-9.76,11.217-13.45,9.872-8.07,16.226-18.231,19.774-30.392,1.802-6.152,4.634-11.821,10.131-15.653,2.091-1.462,4.436-2.375,6.811-3.233.771-.259,1.888-.574,1.746-1.69-.117-.827-1.086-1.061-1.802-1.315-4.035-1.401-8.014-1.142-12.019.203-12.45,4.177-27.93,17.429-34.402,29.763,2.974-19.262,7.928-37.147,19.145-52.688,5.954-8.273,13.765-13.08,24.413-12.45,6.755.431,13.795,5.664,15.769,12.105.431,1.375.259,2.66-.198,4.004-1.716,5.096-1.345,10.019,1.716,14.536,1.375,2.03,1.487,3.918.518,6.212-1.665,3.857-2.208,8.09-2.863,12.186v-.02ZM207.256,69.705c.086-.051.173-.056.259-.051.03,0,.056.116.117.173-.086.056-.142.116-.198.142-.066-.086-.122-.198-.178-.284v.02Z" fill="#2f3222"/><path id="path50-4" d="M99.534,272.07c-2.918.086-5.182.315-7.324,1.142-1.401.543-1.573-.198-1.401-1.259.259-1.289,1-2.03,2.406-2.116,2.198-.173,4.06.599,6.319,2.233h0ZM95.327,294.965c-1.746-1.289-3.436-1.944-5.182-.173s-2.66,3.837-1.802,6.354c.259.746.487,1.574,1.573.66,2.893-2.517,6.354-3.005,10.587-2.375-1.771-2.035-3.487-3.207-5.177-4.466h0ZM138.773,310.618c-1.746-3.121-4.065-5.664-8.07-6.009-4.035-.345-7.699-1.944-11.303-3.776-5.639-2.862-9.846-7.329-14.369-11.506-1.802-1.66-2.72-3.492-2.746-5.893-.03-1.086-.142-2.147-.259-3.233-.259-2.69-1.802-3.979-4.492-3.893-3.578-.051-6.953,2.203-7.755,5.121-.832,3.121.574,5.664,4.177,7.725,1.203.685,2.345,1.462,3.375,2.345,4.121,3.492,8.156,7.04,12.247,10.562,5.035,4.38,10.303,8.471,13.252,14.739.574,1.172,1.746,2.116,2.832,2.949,2.345,1.776,3.979,1.315,5.294-1.375.345-.685.543-1.462,1-2.091,1.172-1.604,1.518-4.406,4.807-3.091.579.234,3.04-.741,2.01-2.573v-.002ZM126.723,325.271c-7.897-2.116-14.622-6.294-20.865-11.476-2.492-2.061-4.466-4.233-4.664-7.725-.117-1.944-1.203-3.263-3.264-3.177-3.578-.051-6.613,1.975-7.182,4.608-.827,3.979.629,7.212,4.436,8.44,10.618,3.375,17.8,10.618,23.241,19.947,1.03,1.746,2.375,3.492,4.405,3.436,1.863-.086,1.888-2.431,2.66-3.776,1.147-1.944,1.03-4.35,3.289-5.979,1.548-1.152.32-3.639-2.056-4.299h0ZM175.834,361.16c-4.492-4.035-9.76-6.725-15.14-9.329-7.897-3.862-15.942-7.583-21.378-14.967-1.66-2.233-3.664-4.664-6.527-4.233-3.208.487-3.751,3.918-4.807,6.497-.056.173-.056.401-.086.599-.832,4.177.117,5.694,4.238,6.781,12.592,3.375,24.241,8.613,34.341,17.028,1.66,1.375,3.522,2.462,6.009,2.431.315-.051.802,0,1.289-.116,1.375-.315,2.548-.944,2.974-2.462.315-1-.173-1.568-.914-2.228h0ZM182.985,346.507c-3.233-1.375-6.552-2.548-9.674-4.152-10.501-5.466-20.576-11.648-26.184-22.611-2.72-5.263-5.553-5.096-10.1-2.375-4.065,2.431-5.979,8.613.086,11.617,1.03.543,2.091,1.086,3.177,1.401,3.776,1.116,7.329,2.69,10.674,4.72,9.445,5.725,17.571,13.024,25.012,21.094,1.345,1.431,2.634,3.289,5.182,2.086,2.893-1.345,5.268-3.005,5.664-5.893.03-3.284-1.487-4.888-3.837-5.888h0ZM198.643,334.772c-4.492-1.061-8.644-2.776-12.623-5.152-8.816-5.349-15.252-13.135-21.951-20.693-2.233-2.492-3.893-5.182-4.522-8.669-.685-3.776-5.065-6.781-9.242-3.462-2.634,2.091-5.065,4.319-6.441,7.471-1.573,3.609-.599,6.152,3.091,7.385,4.954,1.629,9.618,3.776,13.739,7.009,2.776,2.177,5.608,4.263,8.329,6.497,6.613,5.411,13.135,10.933,17.713,18.257,2.289,3.634,4.522,5.263,7.04,4.634,3.69-.944,8.501-6.212,8.501-9.329,0-2.406-1.573-3.492-3.634-3.948ZM148.959,289.413c-.543-.746-1.401-1.203-2.233-1.574-4.294-2.005-9.014-3.263-12.734-6.212-2.517-1.975-4.405-4.608-6.867-6.639-2.462-2.061-5.41-3.436-8.04-5.263-.431-.284-.827-.599-1.259-.914-2.117-1.716-3.893-3.918-4.405-6.553-.315-1.69-.086-3.406-.431-5.066-.371-1.66-1.604-3.375-3.289-3.375-2.203-.051-3.522,2.66-5.639,3.263-1.228.371-2.634-.051-3.837.487-1.117.457-1.776,1.574-2.319,2.66-.685,1.375-1.259,2.975-.771,4.436.543,1.69,2.289,2.603,3.862,3.436,11.217,5.867,21.094,14.338,28.621,24.555,2.406,3.32,4.695,6.898,8.187,9.044.888.543,2.061.975,2.893.401.802-.518.888-1.604,1.086-2.517.487-2.69,2.289-5.096,4.695-6.38.173.629,1.061.771,1.604.431,1.193-.848,1.766-3.05.878-4.223h0ZM113.385,223.046c-1.117-1.203-2.061.051-3.177.401.974,1.086,1.944,2.147,3.289,1.574.974-.431.117-1.716-.112-1.975h0ZM112.7,248.803c-1.117-2.116-2.832-3.751-4.578-5.324-1.776-1.66-2.177-2.746.574-3.837,2.634-1.061,4.152-3.233,4.263-6.38-.117-.574-.173-1.375-.431-2.086-.685-2.233-4.807-5.694-6.497-5.349-3.035.599-3.436,3.233-3.751,5.639-.371,2.721-.173,5.497-.513,8.212-.543,4.38-2.949,8.014-5.096,11.735-.66,1.172-1.573,2.832-.487,3.776,1,.914,2.117-.685,3.177-1.234,3.979-2.03,7.471-5.522,12.709-3.517,1.573.594.969-1.005.629-1.634h0ZM188.365,212.828c-.457-.345-1-.599-1.518-.888-5.466-3.061-10.1-6.984-13.308-12.476-.685-1.172-1.629-2.233-2.548-3.203-1.802-1.949-2.573-1.69-3.406.857-.518,1.548-.228,3.091.629,4.177.914,1.147,1.573,2.431,2.259,3.665,2.949,5.238,7.299,9.644,8.471,15.912.802,4.436,2.492,4.807,6.299,2.091q1.66-1.203.086-2.66c.543-.142,1-.284,1.462-.371,1.69-.431,4.091.142,4.72-1.975.721-2.528-1.457-3.817-3.147-5.131h0ZM218.072,253.635c-1.03-.746-2.147-1.345-3.208-2.061-7.811-5.238-12.851-12.394-14.622-21.723-.345-1.716-.513-3.462-1.487-5.035-1.629-2.603-3.492-3.233-6.126-1.746-2.117,1.203-4.177,2.462-6.238,3.751-3.035,1.888-3.147,3.634-.431,5.953.66.574,1.431,1.03,2.177,1.431,9.445,5.207,12.247,14.11,13.536,23.87-.198,2.289-.259,4.406,2.345,5.436,2.375.944,7.07.746,7.928-1.116,1.147-2.492,3.035-2.776,5.182-3.289,1.289-.315,2.319-1.259,2.604-2.579.259-1.234-.685-2.177-1.66-2.893h0ZM235.902,308.014c-4.979-6.04-7.583-13.222-9.933-20.545-1.203-4.152-.858-8.415-.716-12.648.888-3.603,1-7.126-1.03-10.415-1.543-2.517-5.294-3.005-6.497-.487-1.03,2.147-2.573,2.061-4.152,2.634-1.172.431-2.345.914-3.462,1.487-4.238,2.061-4.72,6.238-.914,8.958,2.949,2.116,5.065,4.807,6.583,8.039,2.634,5.639,5.035,11.334,6.324,17.429-.03,2.005-.056,4.035-.086,6.04-.284,2.091-.599,4.152-.888,6.238.117,1.543-1.061,3.72.974,4.38,1.604.487,3.807,1.203,5.207-.857,1.315-2.776,3.72-1.086,5.553-1.142,3.005-.086,4.319-.857,4.609-3.923.173-1.924-.34-3.7-1.573-5.187h0ZM249.296,406.778l.03-.051c-1.203-1.289-2.375-2.573-3.548-3.862-3.492-3.918-6.867-7.928-10.161-12.049-1.117-1.375-2.203-2.746-3.264-4.152-1.086-1.401-2.147-2.807-3.208-4.238-2.117-2.862-4.208-5.751-6.268-8.699-2.604,4.781-6.527,7.157-11.704,7.44-.746.051-1.462.543-2.203.771-2.492.771-2.517,2.406-1.518,4.35,1.487,2.949,4.263,3.893,7.243,4.319,6.669.975,12.247,3.862,16.683,8.989,1.802,2.061,3.837,3.948,5.497,6.126.599.771,1.228,1.487,1.888,2.233,1.147,1.259,2.319,2.487,3.375,3.807l.03-.051c.746.944,1.431,1.944,1.974,3.061,2.832-1.401,5.207-3.634,8.212-4.781-1.03-1.081-2.061-2.137-3.06-3.253v.041ZM274.055,391.836c-1.345-.944-2.66-1.944-3.949-3.005-1.289-1.03-2.548-2.116-3.776-3.263-.832-.716-1.629-1.487-2.431-2.289-.142-.142-.315-.284-.431-.457-1.03-1-2.03-2.03-2.974-3.091-6.781-7.44-12.79-15.282-12.623-26.245.056-3.462-2.03-6.38-5.466-8.126-3.06-1.548-4.35.914-6.212,2.258-1.147.802-1.03,1.345-.198,2.289,1.462,1.69,2.893,3.522,3.121,5.867.457,5.182-4.695,12.277-9.785,13.739-.858.259-2.147,0-2.406,1.203-.284,1.345.629,2.233,1.629,2.888.914.574,1.919,1,2.863,1.487,4.35,2.177,9.156,3.665,12.851,6.898,6.182,5.436,12.161,11.105,18.201,16.713.914.888,1.832,1.746,2.776,2.603,3.035-2.69,6.096-5.38,9.1-8.126.168-.167-.178-.883-.289-1.345h0ZM232.324,351.998c-1.69-.746-2.604.888-3.72,1.746-.371.284-.599.746-.858,1.172-1.746,2.776-3.06,5.893-6.268,7.471-.66.315-.771.888-.371,1.462,1.03,1.457,2.319,2.721,4.263,2.603,4.319-.198,9.674-5.725,9.73-10.217-.284-1.629-.944-3.436-2.776-4.238ZM217.559,365.595c-.771-.716-1.746-1.345-2.604-.604-3.264,2.918-7.268,3.751-11.389,4.608-2.203.457-3.548,2.832-3.548,5.152,0,2.005,2.949,4.319,5.583,4.319,3.264-1.462,7.613-1.944,11.278-4.207,3.715-2.315,3.944-6.349.68-9.268h0ZM195.867,365.793c-2.203-.802-4.751-1.462-5.898-3.548-1.746-3.147-3.634-2.431-5.867-.944-.746.487-1.573.827-2.233,1.401-1.604,1.462-2.147,3.406-1.147,5.294,1.776,3.406,4.578,5.522,8.588,5.664,2.517-.051,4.807-.771,6.984-1.975,1.289-.746,1.944-1.802,1.919-3.375-.03-1.598-1.061-2.03-2.345-2.517h0ZM221.995,356.235c-.345-.832-1.117-.888-1.944-.944-4.35-.284-7.497-2.431-9.73-6.126-1.147-1.888-1.604-3.979-2.091-6.04-.173-.685-.086-1.462-.944-1.66-.858-.173-1.543.229-2.03.914-.345.457-.487,1.061-.832,1.543-2.974,4.152-5.867,8.44-11.846,8.44-1.716,0-1.974,1.289-2.203,2.69.802,3.061,2.517,5.411,5.553,6.694,2.492,1.061,5.121,1.888,7.497,3.233,2.233,1.259,4.005,1.061,5.811-.574,2.289-2.091,4.923-3.462,8.07-3.948,1.401-.198,2.863-.716,3.893-1.888.568-.644,1.223-1.36.797-2.335h0ZM239.394,328.133c.03-3.517-3.091-7.354-5.837-6.867-3.208.574-6.38,1.69-9.385,2.975-2.117.919-1.69,3.609-2.634,5.349-.944,1.716-.228,2.32,1.259,3.005,2.492,1.116,4.893,2.492,6.583,4.781.457.599.802,1.228.315,1.862-.543.716-1.228.142-1.802-.173-2.319-1.203-4.492-2.776-7.095-3.436-5.152-1.289-9.415,2.573-8.527,7.639.746,4.207,3.604,6.583,7.182,8.273,1.832.857,6.212-.259,6.669-1.746.746-2.375,2.548-2.832,4.553-3.207,3.807-.685,5.954-3.665,5.238-7.385-.431-2.147-.173-4.035,1.289-5.781,1.335-1.568,2.223-3.431,2.193-5.289h0ZM218.534,321.519c-1.147-1.69-3.492-1.802-5.497-2.116-5.664-.914-10.415-4.695-14.511-8.73-5.497-5.38-10.334-11.476-14.308-18.058-.974-1.574-1.888-3.233-2.061-5.066-.086-.975.056-1.975-.142-2.949-.431-2.005-2.462-3.522-4.522-3.375-1.573.142-2.974,1.147-4.238,2.116-2.548,1.919-5.065,3.807-7.613,5.725-.284.229-.599.457-.802.771-.228.401-.259.914-.198,1.401.345,2.862,3.264,4.578,5.781,6.009,11.075,6.268,20.606,15.226,27.59,25.845,1.172,1.832,2.319,3.69,3.35,5.608,1.172,2.203,2.431,4.608,4.695,5.639,2.289,1.061,5.065.345,7.126-1.086,2.802-2.005,7.892-8.014,5.35-11.735h0ZM171.053,269.693c-13.049-6.441-21.551-16.769-26.073-30.534-.543-1.66-1.147-3.35-1.974-4.862-1.573-2.979-4.005-3.634-6.867-1.975-1.518.888-3.005,1.888-4.38,2.949-5.152,4.004-4.807,9.131,1,12.08,3.492,1.802,6.552,4.091,8.902,7.07,6.38,8.126,13.166,16.084,15.653,26.53.66,2.832,2.918,4.035,5.466,4.004,2.259-.051,4.405-.66,4.979-3.807.345-1.888,2.203-3.462,4.466-3.69,2.203.487,3.005-.543,2.893-2.517-.142-2.7-1.807-4.131-4.065-5.248h0ZM134.134,221.268c-5.009-2.949-7.385-7.557-8.699-12.994-.685-2.832-.228-5.694-.574-8.502-.259-1.919-1.086-2.862-3.121-2.061-2.974,1.147-5.979,2.289-8.958,3.522-.858.345-1.228,1.228-1.345,2.147-.228,1.975.401,3.578,1.919,4.979,4.781,4.35,7.786,9.618,8.243,16.282.173,2.573.117,5.294,1.401,7.725,1.345,2.548,2.259,2.603,4.553,1.116,1.203-.802-.086-2.147,1.228-2.721,2.005-.914,3.492-2.832,5.979-2.776,1.228,0,2.289-.66,2.061-2.487.208-1.883-.995-3.258-2.685-4.233h0ZM124.003,191.333c-2.776-4.466-3.406-9.471-4.405-14.425-.599-2.918-.746-5.979-2.431-8.644-.771-1.259-1.919-2.03-3.319-1.975-1.66.056-1.315,1.746-1.604,2.721-.315,1.086-.284,2.345-.117,3.492.487,3.147.487,6.238-.03,9.359-.685,4.035-1.462,8.07-1.802,12.135-.228,2.949,1.375,3.72,3.807,2.147,2.375-1.543,4.807-2.975,7.497-2.832,1.66-.005,4.01.569,2.406-1.98h0Z" fill="#ebe3d7"/><path id="path65-2" d="M256.97,206.612c3.167-11.785.65-23.647,2.995-35.142,1.533.198,1.015,1.38,1.233,2.086,2.111,6.837,3.964,13.749,4.944,20.85.868,6.284-.589,12.298-2.675,18.14-1.015,2.843-2.228,5.71-3.883,8.212-4.263,6.456-7.578,13.171-7.314,21.85-4.807-6.816-4.812-13.562-3.258-20.52,1.086-4.872,2.218-9.735,3.37-14.597.787-3.309.533-6.618.173-9.948-.69-6.349-1.04-12.709.259-19.033.254-1.239.761-2.426,1.213-3.614.208-.543.589-1.107,1.294-.944.802.183.523.919.574,1.452.949,9.653,1.183,19.332,1.076,29.022-.005.594,0,1.178,0,2.188h0ZM311.161,198.669c6.207,2.213,11.065,6.222,14.176,12.166.36.69.376,1.741,1.614,2.02.274-3.147.563-6.147-.259-9.131-2.583-9.349-8.385-15.805-17.465-19.251-5.761-2.188-10.902-5.284-15.297-9.664-2.218-2.208-4.675-4.198-7.161-6.106-2.67-2.045-5.72-3.416-9.034-4.106-.761-.157-1.578-.325-2.04.619-.528,1.076.274,1.366.99,1.711,9.857,4.751,15.693,14.668,25.393,19.652-8.014-2.812-14.876-7.532-21.576-12.598,7.806,11.278,17.571,20.018,30.661,24.687h0ZM265.817,169.439c1.112,7.136,2.675,14.135,4.197,21.14,2.741,12.638,12.166,21.18,19.104,31.199,4.71-15.059-6.542-46.994-19.399-53.724,2.375,5.365,6.223,10.034,7.715,15.835,1.482,5.756,3.279,11.43,4.938,17.14-7.045-9.72-8.354-22.358-16.556-31.59ZM269.781,206.556c-1.969,11.638-.162,22.749,4.624,33.447.848,1.898,2.117,3.512,3.441,5.085.365.431.792,1.051,1.421.675.33-.198.513-.812.568-1.264.203-1.649.335-3.304.482-4.964.543-6.106,1.959-12.161.964-18.363-.518-3.253-2.005-5.939-3.888-8.456-.279.051-.558.107-.837.157v12.207c-3.304-6.882-2.822-14.602-6.522-21.358-.076.944-.096,1.898-.254,2.832h0ZM293.555,208.586c1.279,7.446,4.152,14.262,8.283,20.54.929,1.406,2.061,3.822,3.67,3.299,1.716-.553,1.578-3.152,1.548-4.994-.147-8.664-2.522-16.831-6.349-24.479-2.193-4.385-5.872-7.74-10.1-10.958.299,5.147,3.187,8.451,5.664,11.938,1.726,2.426,2.918,5.045,3.36,8.014-2.045-2.39-4.137-4.664-6.761-7.171.315,1.711.502,2.761.685,3.812h0Z" fill="#ca8654"/><path id="path67" d="M72.898,48.738c-9.943,9.187-18.292,19.099-30.351,24.464,7.517-1.183,13.678-5.121,20.206-9.415-.325,3.487-1.99,5.548-4.005,7.548-7.903,7.852-17.404,9.699-27.956,7.553-4.065-.827-7.963-.716-11.79,1-.614.274-1.355,1.04-2.081.112-.65-.832.01-1.487.371-2.137,4.639-8.339,12.267-12.283,21.261-13.526,9.923-1.375,19.155-3.948,26.682-10.999,1.974-1.853,4.365-3.218,7.664-4.598ZM85.83,58.006c-1.03,3.654-1.553,6.68-2.72,9.425-3.04,7.152-2.132,14.11.208,21.18,3.553,10.745,8.283,21.185,8.527,33.072,1.452-.857,1.766-2.01,2.157-3.076,1.639-4.482,2.02-9.166,2.056-13.876.112-15.211-3.456-30.173-3.142-45.42.056-2.624-.523-5.517-3.162-8.289,1.152,10.496-1.781,19.83-2.69,29.747-2.208-7.471.629-14.846-1.233-22.763ZM108.345,81.216c-4.101-1.289-7.309-3.974-11.389-6.085,1.091,6.583,4.609,10.872,9.872,13.836,2.639,1.487,5.487,2.594,8.177,3.999,5.573,2.903,9.75,6.888,10.192,13.658.036.543.061,1.172.817,1.589,1-.787,1.563-1.888,1.939-3.111,1.162-3.756.497-7.349-.924-10.892-2.71-6.761-7.903-11.349-13.602-15.44-5.375-3.857-9.638-8.507-11.983-14.836-1.142-3.091-2.731-6.02-5.202-8.476-.721,10.73,3.126,19.394,12.105,25.758h0ZM67.158,64.594c-4.172,9.537-3.913,19.728-4.741,30.173,8.43-5.659,23.149-37.447,20.5-44.568-4.39,7.908-9.156,15.135-12.76,23.063,1.238-8.826,3.786-17.099,9.593-24.134-6.228,3.589-9.851,9.197-12.592,15.465h0ZM58.849,80.267c.974-1.198,1.67-2.39.447-3.761-4.756,4.639-9.598,9.207-14.247,13.958-3.548,3.624-6.233,7.862-7.03,12.978-.574,3.685-.883,7.43.949,11.76,2.162-4.167,4.314-7.416,6.872-10.38,4.096-4.751,8.182-9.507,11.811-14.638,1-1.416,1.66-2.807,1.162-4.817-2.396,2.213-5.06,3.746-8.085,4.944,2.705-3.355,5.405-6.71,8.121-10.044ZM69.203,120.688c6.811-9.466,9.217-20.307,9.836-31.691.122-2.218-.269-4.319-1.898-6.284-2.117,6.116-2.396,12.471-4.852,18.216-.239-1.822-.305-3.584-.218-5.339.081-1.644.325-3.279.533-5.248-7.121,9.801-7.573,20.033-4.142,31.006.462-.401.634-.507.741-.66h0Z" fill="#ca8654"/><path id="path69" d="M255.209,80.156c-.868-6.654-2.056-13.226-5.299-19.693,3.578.873,5.238,3.431,6.141,6.228,1.426,4.436,3.36,8.486,7.227,12.572-2.162-4.832-1.863-9.339-3.614-14.155,3.578,3.299,5.446,6.837,7.019,10.603s2.254,7.903,4.781,11.298c-1.985-5.791-2.117-12.054-4.725-17.683-1.655-3.568-4.06-6.451-7.354-8.598-.985-.639-2.005-1.239-2.944-1.939-.65-.487-1.183-1.218-.599-2.015.492-.675,1.203-.254,1.873-.051,8.704,2.589,13.364,8.771,16.15,17.125,2.614,7.842,4.705,15.759,5.964,23.905.482,3.131-.168,6.182-.944,10.019-4.324-6.279-9.207-11.09-15.1-14.851-2.391-1.528-4.624-3.299-6.958-4.918-6.314-4.4-8.146-11.258-9.887-18.125-.523-2.056-.66-4.203-1.025-6.303-.076-.426-.132-.797.274-.984.609-.284,1.157-.051,1.573.431,1.695,1.944,2.746,4.223,3.299,6.71.7,3.162,1.492,6.289,2.995,9.187.264.507.421,1.112,1.066,1.315.096.264.193.523.294.787.071-.066.213-.167.203-.188-.122-.234-.269-.452-.411-.675h0ZM234.237,99.108c-.34-1.056.32-1.492.736-2.015,5.177-9.308,6.334-19.449,6.192-29.859-.01-.711.416-1.781-.619-2.02-.974-.223-1.426.619-1.913,1.431-1.68,2.807-2.289,6.065-2.7,9.085-1.035,7.567-3.614,14.318-7.847,20.657-4.588,6.877-6.517,14.643-5.893,22.921.274,3.654.822,7.324,3.715,10.989.477-10.405,6.278-17.485,12.009-24.591,4.827-5.984,7.045-13.034,8.39-20.434.223-1.239.233-2.553.091-3.807-.102-.903-.299-2.137-1.614-2.066-1.142.066-1.157,1.193-1.325,2.025-1.218,6.101-3.959,11.44-7.963,16.166-.376.447-.741.888-1.259,1.517h0ZM269.081,58.032c3.593,2.817,7.476,5.025,11.78,6.507,1.847.634,3.73,1.162,5.573,1.812.502.178,1.228.457,1.015,1.203-.208.736-.888.599-1.477.502-.777-.127-1.563-.193-2.325-.375-2.964-.7-5.842-1.797-9.126-2.142,1.269,2.766,3.111,4.507,5.355,6.055,6.608,4.558,13.826,4.72,21.403,3.649,6.537-.924,12.958-3.284,20.231-1.574-2.086-4.344-5.441-6.451-9.05-8.217-5.268-2.584-11.019-2.589-16.693-2.873-7.628-.38-14.952-1.584-21.571-5.872-3.35-2.172-7.233-3.243-12.004-2.949,2.67,1.624,4.938,2.741,6.887,4.274h0ZM264.233,111.324c-.208-4.111-.761-8.176-1.792-12.186-.69-2.695-3.182-3.659-4.548-5.685.822,6.517,1.629,12.881.797,19.307-2.949-8.303-2.969-17.449-7.867-25.778-1.203,6.532-.436,23.504,3.39,29.651,3.162,5.08,6.771,9.298,13.308,11.308-2.005-5.776-3.01-11.126-3.289-16.617ZM303.442,109.751c.274-1.975.208-3.878-.315-5.821-1.655-6.162-5.624-10.689-10.293-14.699-3.878-3.33-7.593-6.801-10.882-10.725-.391-.467-.614-1.264-1.584-1.081.081,1.812.777,3.462,1.573,4.979,2.629,5.01,7.349,8.162,11.09,12.242-3.385-1.472-6.964-2.497-10.136-5.416.807,5.055,13.572,17.495,20.546,20.52h0Z" fill="#ca8654"/><path id="path72" d="M78.212,243.185c.289-6.694-1.639-12.105-4.72-17.069-6.238-10.044-7.491-21.058-6.613-32.493.355-4.589,1.188-9.126,2.553-13.541.193-.625.112-1.568,1.035-1.517.893.051,1.33.898,1.381,1.675.117,1.756.173,3.533.066,5.289-.442,7.425.457,14.775,1.274,22.119.132,1.167.924,2.258,1.599,3.335-.98-9.181-.65-18.322-.086-27.54,1.644,2.416,2.563,5.152,3.06,7.887,1.913,10.588,3.847,21.185,5.243,31.849.883,6.806-.487,13.425-4.791,20.008h0ZM50.799,175.285c-6.796,6.106-14.567,10.116-23.657,11.638-7.476,1.248-13.836,4.761-19.013,10.349-1.863,2.015-3.34,4.193-3.761,7.314,3.492-1.183,6.745-1.797,10.075-1.822,13.531-.112,23.078-7.669,31.722-16.967-6.431,2.735-12.755,5.715-19.804,6.669,1.076-.848,2.213-1.579,3.406-2.203,6.162-3.223,12.359-6.385,18.51-9.633,3.015-1.594,5.202-3.999,6.786-7.572-2.497.731-2.538.68-4.263,2.228h0ZM42.602,223.599c2.309-6.253,4.959-12.293,8.806-17.835,4.405-6.344,8.745-12.79,11.679-19.997,1.137-2.797,1.888-5.756,2.766-8.653.193-.644.32-1.462-.452-1.822-.787-.371-1.233.335-1.665.848-.31.375-.604.782-.812,1.218-3.304,6.786-8.745,12.303-11.471,19.429-.071.188-.355.294-.99.797,3.045-8.669,5.771-16.871,11.806-23.916-3.335.838-5.705,3.076-9.202,7.867-9.471,12.968-13.856,27.276-11.567,43.466.909-.213.914-.888,1.101-1.401h0ZM54.616,209.921c-3.416,4.319-5.913,9.039-6.182,14.562-.487,9.917,3.147,19.439,2.731,30.164,3.781-5.167,5.674-10.171,6.669-15.602,1.502-8.192,1.274-16.627,3.527-24.718.919-3.299,1.497-6.694,1.71-10.126.061-.995.695-2.522-.614-2.867-1.274-.335-1.908,1.02-2.365,2.142-2.624,6.466-4.949,13.008-5.253,20.084-.051,1.137.081,2.35-.878,3.502-1.091-5.918-.969-11.531.655-17.14h0ZM38.836,199.075c-7.821,6.624-13.562,14.907-18.647,23.662-2.142,3.69-2.157,7.882-1.853,12.039.041.548-.117,1.33.624,1.447.365.056.888-.355,1.213-.685,5.822-5.832,11.8-11.552,15.663-18.987,1.183-2.274,2.117-4.7,1.893-7.126-3.416,3.218-6.821,6.43-10.232,9.644-.68.898-1.355,1.797-2.035,2.695-.168-.112-.34-.223-.508-.33.695-.975,1.386-1.944,2.081-2.913.7-1.269,1.33-2.589,2.122-3.797,3.335-5.111,6.72-10.192,10.085-15.287-.147-.107-.279-.223-.406-.361h0ZM39.187,228.436c-.411-2.36-.614-4.761-.924-7.212-5.238,4.136-5.938,25.854-2.969,32.032,4.898-6.629,7.03-14.13,8.644-22.099-3.791.984-4.131.812-4.751-2.721h0Z" fill="#ca8654"/><path d="M146.173,418.736c-1.406-3.131-1.949-6.421-1.578-9.776.888-8.111,3.573-15.78,6.009-23.504,2.198-6.979,5.284-13.684,6.273-21.027.107-.792.107-2.061,1.761-1.558,1.629.493,1.487,1.34,1.127,2.654-2.36,8.588-5.639,16.871-8.395,25.327-2.152,6.603-3.994,13.282-4.994,20.185-.371,2.573.32,5.121-.203,7.699ZM186.695,415.635c-5.664-3.015-8.933-7.44-11.049-12.821-3.923-9.978-6.294-20.348-7.608-30.965-.096-.771-.614-1.984.619-2.228,1.386-.274,1.046,1.046,1.228,1.822,2.355,9.963,3.385,20.261,7.903,29.671,1.842,3.832,3.944,7.43,6.74,10.613.909,1.03,1.71,2.056,2.167,3.908h0ZM161.968,295.935c-1.929-1.604-3.7-3.289-5.959-4.593-2.208-1.279-1.36-4.38-1.619-6.974,4.553,2.675,5.725,7.339,7.745,11.425l-.168.143ZM162.135,295.788c1.447,1.132,2.822,2.365,4.228,3.543,2.152,1.797.538,4.426.959,6.674-3.106-2.735-4.466-6.284-5.36-10.07.005,0,.173-.147.173-.147h0ZM168.581,329.463c2.639,1.634,3.614,3.553,3.558,6.106-.036,1.614-.589,1.614-1.726.797-2.35-1.69-1.644-4.136-1.832-6.903h0ZM161.029,326.677c-.315.817.477,2.39-.766,2.406-1.35,0-1.106-1.574-1.066-2.579.036-.863-.406-2.355,1.01-2.253,1.355.091.619,1.548.822,2.426ZM170.352,181.538c.568-2.528,1.726-4.304,3.091-5.943,9.501-11.374,21.814-12.795,33.711-4.187,6.461,4.675,9.161,11.222,11.257,18.262.944,3.177,1.67,6.435,2.705,9.598,1.005,3.086,2.583,5.898,4.203,8.664,1.497-5.527-3.38-21.921-9.095-29.677,3.862,1.112,6.086,3.436,7.999,6.03,5.192,7.035,6.466,15.221,6.456,23.657-.01,6.766-2.167,13.328-2.218,20.114,0,.248-.264.493-.411.751-.995-.264-1-1.112-1.238-1.812-2.035-5.958-4.558-11.638-8.42-16.708-5.152-6.761-8.314-14.414-7.273-22.987,1.254-10.344-10.709-21.353-23.225-17.805-5.943,1.685-10.425,5.248-14.435,9.674-.761.843-1.34,1.954-3.106,2.37h0ZM158.141,193.06c-.716-7.446-.066-14.683.634-21.865.579-5.948,1.046-11.902,1.391-17.85.67-11.552,2.467-22.967,3.548-34.463,1.122-11.912,2.954-23.703,5.482-35.376,3.36-15.526,8.567-30.427,17.282-43.792,7.781-11.938,19.058-18.272,33.432-16.505,9.217,1.132,15.988,5.613,17.713,13.948.239,1.152,1.289,2.857-.289,3.335-1.34.406-1.837-1.528-2.299-2.603-2.685-6.243-7.791-9.679-14.008-11.085-12.196-2.761-22.347,1.04-29.742,11.151-10.293,14.069-16.363,29.941-19.896,46.974-2.908,14.023-4.416,28.22-6.177,42.385-1.386,11.166-2.117,22.413-3.121,33.625-.898,10.034-1.365,20.109-2.908,30.082-.112.655-.03,1.385-1.04,2.04h0ZM170.738,124.764c5.207-15.683,15.44-28.25,23.114-42.218-10.308,9.03-16.521,20.957-23.352,32.828-.244-16.521,18.586-40.218,35.813-45.045-3.289,4.964-5.71,9.999-7.263,15.435-1.396,4.888-2.512,9.852-5.182,14.308-2.451,4.096-5.476,7.664-9.1,10.704-4.527,3.802-8.689,7.918-12.085,12.78-.31.447-.508,1.091-1.944,1.208h0ZM153.141,60.919c-6.563-18.018,2.335-49.298,18.191-54.967-1.705,4.096-3.959,7.669-4.639,11.826-.751,4.548-1.223,9.075-.65,13.714.599,4.821-.066,9.613-1.487,14.226-2.766,8.968-5.679,17.886-8.349,26.961,1.396-17.389,1.812-34.823,3.771-52.176-5.877,12.795-5.527,26.667-6.837,40.416h0ZM157.73,245.012c-.213-17.967,1.457-35.742,4.385-53.48,2.512-15.221,7.019-29.696,13.597-43.558,4.644-9.785,10.968-18.206,20.211-24.347,6.212-4.126,13.003-5.689,20.19-6.319,1.452-.127,1.802.817,1.919,2.03.157,1.644-.761,2.015-2.142,2.025-4.644.051-9.187.756-13.531,2.38-9.572,3.573-16.191,10.663-21.165,19.165-8.034,13.744-13.181,28.545-15.125,44.456-.792,6.476-2.538,12.831-3.619,19.282-.721,4.319-1.355,8.699-1.462,13.069-.228,9.121-.142,18.257-.066,27.382.025,3.025.436,6.045.624,9.065.041.625.33,1.528-.624,1.706-.64.122-.848-.629-1.233-1.056-2.67-2.964-1.401-6.72-2.076-10.075-.112-.548.071-1.152.117-1.725h0ZM158.4,125.84c-.797-5.883-1.472-11.054-2.203-16.216-2.634-18.531-5.735-36.97-13.516-54.196-4.274-9.461-8.481-19.023-14.973-27.245-3.908-4.948-8.446-9.187-15.028-10.633-7.928-1.746-15.907,3.091-17.653,11.059-.233,1.066-.112,2.385-1.741,2.02-1.441-.32-1.238-1.548-1.04-2.629,1.807-9.999,12.247-19.444,26.504-11.531,6.695,3.716,11.577,9.319,15.414,15.826,9.42,15.988,16.333,32.965,19.911,51.227,2.482,12.673,4.73,25.387,5.045,38.346.03,1.107.183,2.258-.721,3.974h0ZM147.761,188.441c-1.35-4.334-2.67-8.572-3.979-12.816-2.639-8.532-5.659-16.82-11.07-24.149-6.243-8.466-14.739-12.572-24.768-14.191-9.166-1.482-16.993,1.366-23.702,7.578-1.888,1.751-3.111,4.02-4.431,6.202-.533.883-.939,2.401-2.223,1.746-.914-.467-.218-1.756.066-2.695,2.106-6.938,6.994-11.156,13.481-13.785,10.856-4.395,21.236-2.964,31.351,2.487,12.125,6.537,18.297,17.252,21.434,30.128,1.457,5.989,3.527,11.836,4.218,18.003.051.442.34.924-.376,1.492ZM153.314,246.134c-1-2.512-1.091-4.918-1.162-7.263-.442-14.8-.909-29.595-1.431-44.39-.584-16.521.548-47.806-14.323-63.905,21.434,12.42,17.028,72.087,16.881,96.601-.03,5.289.396,10.577.558,15.866.025.914.289,1.903-.523,3.091ZM260.569,152.106c1.34,4.01,2.614,7.684,3.776,11.389.299.959.914,2.38-.162,2.924-1.081.548-1.812-.716-2.487-1.579-2.01-2.573-3.309-5.548-4.883-8.375-.741-1.34-1.381-2.802-2.949-3.791-.944,1.33-.041,2.522.208,3.603.675,2.954,1.584,5.852,2.36,8.785.188.706.929,1.619.081,2.142-.903.553-1.721-.284-2.238-.954-2.517-3.243-3.994-6.938-4.38-11.034-.102-1.071-.025-2.157-.036-3.238-.02-2.472-.228-5.08,2.457-6.441,2.918-1.472,5.908-1.32,8.669.411,4.309,2.7,7.212,6.634,8.852,11.364.528,1.517,2.792,3.751.426,4.872-1.893.898-2.355-2.051-3.416-3.304-1.919-2.274-3.502-4.857-6.278-6.776h0ZM185.65,163.404c8.923-13.085,30.387-16.044,42.583-.361l-30.504-.183c5.994-2.406,12.12-4.284,19.079-4.553-2.832-2.522-5.913-2.355-8.933-1.908-6.613.97-13.059,2.558-18.992,5.812-.827.457-1.792.67-3.233,1.193h0ZM246.51,47.277c0,2.218,1.117,4.172.822,6.329-.396,2.939-1.142,3.375-3.659,1.812-1.411-.878-2.822-1.761-4.248-2.614-.233-.142-.543-.152-1.35-.355.898,2.04,1.644,3.756,2.411,5.466.294.655.538,1.289-.117,1.868-.655.579-1.335.361-1.842-.142-3.015-2.994-3.862-6.715-3.35-10.78.431-3.426,3.055-6.167,6.233-7.05,5.461-1.517,11.958,4.959,12.998,8.806.198.736-.142,1.366-.766,1.761-.761.487-1.259-.061-1.776-.528-1.68-1.538-2.624-3.939-5.355-4.573h0ZM71.685,157.339c-4.827,1.711-6.928,5.639-9.126,9.44-.518.893-.604,2.457-1.954,2.03-1.025-.32-.513-1.721-.431-2.634.381-4.218,5.771-10.324,9.806-11.186,4.71-1.005,8.385,2.045,8.623,7.781.157,3.776-.294,7.654-2.609,10.943-.685.975-1.365,2.893-2.614,2.111-1.274-.797-2.223-2.568-1.101-4.492,1.492-2.558,2.406-5.349,3.01-8.243.157-.761.416-1.502-.122-2.436-2.426,2.335-3.228,5.598-5.086,8.166-.909,1.259-1.452,3.852-3.304,2.994-1.893-.878-.183-2.975.198-4.441.645-2.487,2.279-4.527,3.543-6.735.518-.914,1.259-1.741,1.167-3.299h0ZM85.267,38.11c-2.792.995-3.873,3.03-4.928,5.106-.381.751-.66,1.969-1.746,1.579-1.223-.437-.792-1.68-.472-2.553,2.345-6.435,7.877-8.664,13.638-8.588,3.045.051,4.142,2.766,4.725,5.279.7,3.005-.046,6.035-.614,9.009-.132.7-.447,1.706-1.472,1.502-1.117-.223-.69-1.239-.66-1.954.081-1.878.066-3.735-.914-5.426-.284-.493-.584-1.121-1.289-.939-.543.137-.594.746-.634,1.223-.142,1.711-.843,3.218-1.751,4.624-.609.949-1.568,1.644-2.71,1.426-1.081-.208-1.289-1.31-1.609-2.258-.878-2.603-.025-5.162.436-8.03h0ZM254.199,140.493c.269,1.157-.117,1.431-.65,1.487-1,.112-1.756-.396-2.142-1.243-.944-2.076-2.355-3.786-3.807-5.527-3.989-4.766-8.867-8.258-14.531-10.699-1.538-.665-2.543-1.294-1.563-3.228,1.061-2.091,2.223-.599,3.101-.107,7.365,4.131,13.755,9.375,18.287,16.627.619.984,1.025,2.101,1.304,2.69h0Z" fill="#6d844a"/></svg>