<?xml version="1.0" encoding="UTF-8"?><svg id="Layer_1" xmlns="http://www.w3.org/2000/svg" width="4.608in" height="5.986in" viewBox="0 0 331.777 431.019"><path id="path75" d="M314.334,183.173c-7.897-3.386-14.73-8.009-20.758-14.038-3.416-3.447-7.607-5.829-12.373-6.975-1.807-.433-3.64-.423-5.54-1.034-.667-6.665-5.896-14.842-11.492-17.754h0c-4.139-2.704-7.052-6.451-9.985-10.494-4.623-6.288-10.825-11.11-17.943-14.471-1.721-.805-1.696-1.522-.718-2.755,1.319-1.696,2.612-3.416,3.992-5.112,3.014-3.763,5.626-7.78,8.182-12.632.087,9.903,2.439,18.32,7.897,25.784,3.416,4.679,8.009,7.377,13.549,8.67,1.466.347,2.958.199,4.104-.947,1.263-1.263.174-2.413-.316-3.503-.978-2.209-2.184-4.333-2.729-6.747-1.634-6.919-.835-14.068-2.581-21.762,4.649,4.679,8.213,9.16,11.141,14.211.718,1.263,1.263,3.299,3.274,2.755,1.981-.545,1.696-2.556,1.807-4.221.285-4.048.631-8.126.978-12.546,4.883,3.962,9.501,7.724,14.155,11.457,1.634,1.293,3.157,2.612,3.875,4.679.285.805.402,2.011,1.808,1.955,1.176-.057,1.782-.86,2.266-1.665,1.466-2.556,1.838-5.397,1.492-8.269-1.12-8.67-5.453-15.56-12.001-21.216-2.525-2.179-5.54-3.961-7.266-7.347,5.31.347,10.305.545,15.275-.514,7.123-1.538,14.251-3.305,21.288.347,1.13.585,2.225-.072,2.418-1.328.218-1.425-.127-2.734-.794-4.012-1.925-3.62-4.623-6.604-7.897-9.017-6.319-4.562-13.722-5.626-21.186-5.427-7.693.228-14.643-1.406-21.247-5.28-3.559-2.098-7.551-3.559-11.772-3.044-4.018.488-6.319-1.09-8.269-4.506-2.612-4.592-6.431-7.923-12.057-8.269-2.037-.142-2.612-1.406-3.014-2.958-.804-3.157-2.414-5.799-4.939-7.811-7.607-6.028-16.395-8.325-25.896-6.951-11.97,1.721-20.499,8.956-27.016,18.63-11.196,16.68-16.507,35.544-19.664,55.152-.575,3.615-.433,7.409-2.098,11.253-.687-4.363-1.466-8.325-1.894-12.286-.371-3.386-1.696-6.66-1.176-10.163,1.064-7.663,2.525-15.218,5.137-22.51,3.992-11.11,7.031-22.337,6.085-34.394-.718-9.216,3.157-16.736,10.051-22.764.631-.545,1.609-1.064,1.263-2.098-.372-1.034-1.35-1.319-2.414-1.233-.977.087-2.011.052-2.927.285-6.691,1.839-12.576,5.05-16.711,10.738-6.864,9.414-10.652,19.984-11.227,31.609-.174,3.044-.052,6.084-.052,9.13-2.841-6.171-5.453-12.23-8.814-17.973-4.537-7.811-9.705-15.015-17.627-19.75-9.878-5.886-21.303-4.333-28.248,3.763-2.47,2.841-3.992,6.232-4.995,9.817-.458,1.665-1.319,2.612-3.045,3.101-4.048,1.12-7.75,3.472-9.129,7.266-2.011,5.514-6.029,8.299-10.769,10.768-1.634.835-3.101,2.068-4.506,3.299-3.07,2.668-6.604,4.481-10.366,5.942-5.682,2.209-11.797,2.526-17.658,4.078-10.509,2.755-18.116,8.498-20.3,19.837-.259,1.293-.601,2.495.631,3.472,1.233.948,2.266.052,3.218-.519,3.3-1.894,6.746-3.213,10.595-2.841,6.802.631,13.523,2.47,20.529.835-1.176,1.548-2.556,2.785-3.875,4.078-4.781,4.751-8.045,10.386-9.307,17.261-.901,4.888-.423,10.016,1.578,14.562.545,1.242,1.37,2.292,2.821,2.429,1.634.142,2.037-1.263,2.668-2.352.514-.916.978-1.894,1.436-2.872,3.386-7.266,9.705-12.056,14.842-18.376.978,4.624,1.634,4.939,5.051,3.157,0,2.154.057,4.42-.05,6.69-.198,5.224.087,10.367,1.894,15.361.687,1.95,1.436,3.789,3.676,4.135,2.24.372,2.958-1.635,3.849-3.07,4.939-7.953,8.355-16.537,10.02-26.527,3.33,9.302,7.093,17.714,6.171,27.214-.117,1.15-.371,2.556,1.003,3.101,1.405.576,2.699.087,3.819-.891,1.579-1.379,2.729-3.014,3.534-4.964,2.729-6.604,2.871-13.523,2.902-20.529.052-4.333-.575-8.64-.601-13.437,4.649,3.59,9.501,5.682,14.155,8.182,7.204,3.875,9.389,8.697,7.897,16.68-.141.835-.285,1.578.402,2.184.804.749,1.578.433,2.413,0,2.729-1.405,4.969-3.329,6.4-6.202,1.894-5.427,1.981-10.978-2.729-20.555-3.101-6.257-9.246-9.791-14.47-14.038-2.984-2.408-5.372-5.184-6.976-8.651-1.869-4.018-3.666-8.116-6.349-11.64-1.207-1.584-1.385-2.912-.825-4.74,1.609-5.427,2.098-10.566-1.064-16.079-1.349-2.327.718-6.375,2.928-8.931,3.961-4.624,11.482-4.679,17.342-.402,5.769,4.221,9.649,9.965,12.948,16.135,9.017,16.965,15.387,34.827,19.093,53.716,3.992,20.326,7.378,40.713,6.4,61.527-.26,5.769.26,11.598-1.263,17.312-.631-6.634-1.151-13.233-1.925-19.837-.922-7.55-9.226-26.09-23.92-28.482-1.258-.204-2.047,1.258-1.166,2.184,8.493,8.91,16.97,27.388,15.84,32.703-5.051-12.347-13.926-21.075-26.583-25.865-15.56-5.886-37.841-1.233-43.554,16.798-.228.717-.748,1.436-1.696,1.492-6.548.316-10.911,4.506-13.523,9.618-2.469,4.797-5.83,8.009-9.735,11.482-6.059,5.453-12.688,8.956-20.443,10.881-7.093,1.782-14.18,3.676-19.954,8.64-4.822,4.165-8.412,8.987-8.987,15.56-.228,2.526,1.176,3.132,3.014,2.068,7.81-4.562,16.822-1.95,25.035-4.679-.199,1.492-1.293,1.98-1.95,2.815-7.408,9.216-13.406,18.92-10.763,31.583.316,1.522.057,3.528,1.553,4.191,1.721.748,3.014-.978,4.308-1.95.687-.519,1.176-1.319,1.782-1.98,2.699-3.1,5.428-6.171,8.641-9.847-1.319,3.992-1.579,7.409-1.752,10.795-.316,5.626.087,11.196,2.154,16.507,1.319,3.472,2.643,3.59,5.137.978,3.615-3.763,5.972-8.152,7.378-13.178.433-1.578.575-3.386,1.807-4.939,1.665,5.972,1.522,11.772.916,17.627-.117,1.12-.316,2.47.978,3.157,1.319.717,2.5-.05,3.503-.774,3.615-2.612,5.942-6.171,7.464-10.305,2.698-7.434,3.33-15.244,4.134-23.055.26-2.581.316-5.255,1.807-8.213,1.263,4.506,3.732,7.663,5.942,10.998,3.386,5.05,5.224,10.479,3.274,16.65-.52,1.578-2.037,3.789-.346,4.797,1.869,1.176,3.473-1.034,4.796-2.327,7.322-7.347,8.554-16.68,7.81-26.354-.402-5.05-1.838-9.99-2.612-15.015-1.349-8.584-1.95-17.342-5.54-25.407-.718-1.609-.052-2.581.662-3.763,2.958-5.051,4.766-10.305,3.157-16.252-.371-1.38-.83-3.014-.433-4.277,1.609-5.026,4.078-9.532,8.758-12.489,12.948-8.213,29.343-3.701,38.559,7.409,5.972,7.18,9.358,15.789,12.087,24.577,4.333,13.839,6.084,28.106,7.006,42.49.372,5.769.087,11.598.489,17.455-1.38-3.472-2.643-6.833-6.461-8.355-.489-.173-.86-1.379-.835-2.068.228-4.165-2.296-6.486-5.453-8.381-4.649-2.841-6.634-7.205-6.431-12.403.174-4.165-1.578-8.182-.662-12.373.26-1.207-.601-2.241-1.206-3.243-2.037-3.299-2.872-7.006-3.559-10.768-.835-4.395-.891-9.017-3.447-12.917-2.413-3.701-5.998-4.821-8.987-2.581-3.07,2.265-3.992,5.656-3.386,9.216.947,5.855.141,11.512-1.12,17.2-.748,3.33-1.578,6.746.86,9.847.575.717.285,1.548.057,2.241-1.293,3.992.087,7.062,2.984,9.761,1.634,1.553,3.218,3.218,3.676,5.54.117.601.749,1.436-.519,1.436-3.416,0-5.916,2.352-8.956,3.213-2.414.687-3.961,2.036-4.995,4.134-1.349,2.755-2.352,5.682-2.123,8.758.371,5.54-1.09,10.423-4.308,14.899-2.179,3.014-2.413,6.257-.489,9.618,1.492,2.643.372,6.548-1.95,7.607-3.875,1.782-5.428,4.939-4.191,9.073.413,1.36.28,2.449-.311,3.768-1.527,3.401-.967,7.409,1.181,10.458.825,1.171.651,1.686-.208,2.628-3.473,3.789-3.961,8.269-1.579,12.948.285.601.631,1.12.346,1.925-1.665,4.797,1.609,10.795,7.638,12.75,9.475,3.101,16.018,9.562,20.87,17.943,1.492,2.556,3.299,4.562,6.202,5.484.86.285,1.894.488,2.24,1.696,1.064,3.905,4.307,5.112,7.724,5.885,7.062,1.635,13.951,3.646,20.097,7.693,2.668,1.782,3.33,4.018,2.5,7.092-2.556,9.5-6.4,18.574-9.445,27.933-2.698,8.212-4.251,16.481-2.642,25.121.718,3.875,2.469,7.18,5.112,10.02.749.835,1.808,1.869,3.045,1.207,1.35-.687.774-2.068.575-3.187-.748-4.221-.662-8.441-.057-12.632,1.492-10.682,4.567-20.957,8.009-31.119,1.696-4.994,3.131-10.132,5.427-15.015.662.717.86,1.319.978,2.037.947,5.998,1.782,12.001,2.984,17.943,1.782,8.697,4.252,17.225,9.333,24.72,2.327,3.447,5.137,6.461,9.358,7.663,2.011.576,4.277.916,5.713-.978,1.38-1.808-.198-3.472-1.176-5.026-.316-.488-.687-.978-1.09-1.379-4.078-4.333-7.006-9.359-9.333-14.817-3.473-8.152-4.679-16.884-6.258-25.493-.117-.662-1.696-1.782.26-2.297,1.176-.285,2.067-.631,3.187.748,4.394,5.367,9.704,8.584,16.996,5.886.662-.228,2.067-.805,2.383.228,1.207,3.93,7.235,4.679,6.431,9.965-.117.662.749,1.548,1.293,2.241,2.327,2.815,5.254,4.624,8.931,5.224,7.378,1.207,13.32,4.679,17.831,10.768,2.612,3.534,5.367,7.032,8.64,10.02,3.788,3.819,4.506,5.137,8.096,2.011,3.589-3.132,7.897-4.252,8.814-5.168.891-.891-1.319-4.078-2.612-5.626h-.05c-.057-.087-.141-.173-.198-.259-.174-.199-.316-.402-.514-.631-5.514-6.257-11.085-12.49-16.538-18.803-1.838-2.154-3.386-4.562-5.081-6.833,3.07,1.207,5.799,2.699,8.381,4.363,7.693,4.908,13.406,12.088,20.3,17.943,5.799,4.908,4.567,5.855,9.074,1.436,4.506-4.419,7.118-7.55,8.758-9.648,1.634-2.098-2.011-5.453-4.277-7.235-.05-.05-.055,0-.055-.05-.285-.228-.575-.514-.86-.717-4.908-3.676-9.333-7.897-13.004-12.775-3.788-4.994-7.434-10.219-7.551-16.823-.087-7.092-3.503-11.772-9.649-14.786-3.36-1.609-3.905-3.447-2.037-6.517,3.101-5.168,4.104-10.132-.514-14.7-.947-.916-.575-1.721-.141-2.612,1.838-3.962,1.263-7.78-.718-11.482-.346-.601-.687-1.207-1.09-1.751-7.149-9.73-10.051-20.585-8.9-32.643.458-4.999.112-9.883-4.776-13.039-.418-.27-.652-.743-.621-1.237.367-5.448-3.249-8.172-7.378-10.239-2.841-1.436-4.969-3.504-6.746-5.972-3.416-4.735-5.769-9.934-6.548-15.789-.489-3.701-2.266-6.431-6.145-7.291-.748-.173-1.38-.402-1.405-1.207-.346-5.168-4.134-7.495-8.009-9.704-4.71-2.643-8.641-5.972-11.196-10.851-1.466-2.785-3.416-5.311-6.548-6.486-.891-.345-1.003-.717-.458-1.436,3.992-4.939,7.347-10.392,13.091-13.722,9.934-5.743,19.552-2.815,23.284,7.291.86,2.297,1.349,4.735,1.436,7.18.198,7.724,2.439,14.816,6.889,21.1,3.849,5.484,7.062,11.166,8.931,17.658,1.263,4.363,4.104,7.749,7.495,10.682,1.064.891,2.266,1.349,3.473.402,1.151-.916.371-2.011-.117-2.903-2.754-4.994-2.098-10.336-1.38-15.53.947-7.092,2.754-13.981,1.466-21.273-1.864-10.479-5.83-19.465-15.418-25.121-3.788-2.241-7.031-5.137-10.076-8.64,5.916-.488,11.456.433,17.052,1.319,3.59.576,7.235.805,10.794-.259.86-.259,1.782-.631,1.981-1.548.228-1.064-.749-1.466-1.492-1.925-3.1-1.925-5.998-4.078-8.64-6.574-13.462-12.662-33.014-11.686-44.557,2.011-2.785,3.273-5.427,6.777-9.073,9.216-.285.347-.514,1.263-.835.978-.458-.402-.141-1.207.198-1.807,2.469-10.305,6.864-19.724,13.208-28.162,7.179-9.618,16.507-15.417,28.91-15.448,2.413,0,3.819.576,4.307,3.132.285,1.379,1.064,2.755,1.925,3.93,1.319,1.782,2.841,4.19,5.285,3.559,2.556-.687,1.634-3.472,1.609-5.397-.057-2.265.601-2.897,2.668-1.95,6.889,3.157,12.174,8.126,16.135,14.526.228.402.601.748.228,1.522-3.533,7.148-2.327,14.21.662,21.186.86,1.95,1.405,7.811.86,9.847-1.838,6.517-2.185,13.178-1.319,19.837.804,6.202,1.263,12.199-.749,18.288-1.319,3.962-2.352,8.126-2.816,12.261-.977,8.584.631,16.593,7.118,22.968.86.835,1.807,1.696,3.07.774,1.064-.774,1.405-1.782,1.12-3.1-.545-2.729-.458-5.453-.052-8.213,1.089-7.18,5.942-12.489,9.185-18.691.545,6.146,1.548,12.088,3.416,17.857,2.154,6.66,5.367,12.602,11.482,16.507,1.003.631,2.098,1.176,3.274.347,1.176-.805.718-1.98.514-2.958-.687-3.132-.835-6.343-.228-9.389,1.003-5.137,1.925-10.28,2.037-15.875.977,1.12,1.665,2.037,2.469,2.811.916.891,1.838,1.925,3.33,1.319,1.405-.576,1.609-1.839,1.665-3.187.052-.805.228-1.578.371-2.556,3.33,4.939,6.487,9.648,9.649,14.328,1.869,2.755,3.274,2.612,5.137-.285,3.014-4.735,3.503-9.903,2.581-15.275-1.405-8.269-4.048-16.104-8.554-23.772,3.646,1.609,7.031,2.871,10.163,4.536,5.743,3.101,9.878,7.638,11.482,14.154.346,1.436.117,3.447,2.383,3.472,2.067,0,2.612-1.751,3.218-3.299.198-.545.402-1.09.545-1.665,3.009-14.017-3.595-27.423-16.802-33.055l.078.006ZM268.424,128.331c-6.558-2.017-10.178-6.248-13.35-11.344-3.839-6.166-4.608-23.187-3.401-29.745,4.913,8.355,4.934,17.536,7.892,25.861.835-6.446.052-12.826-.8-19.368,1.37,2.031,3.869,3,4.562,5.702,1.029,4.022,1.589,8.101,1.797,12.225.28,5.514,1.288,10.881,3.3,16.67h0ZM293.815,89.502c4.684,4.018,8.666,8.559,10.326,14.746.524,1.95.591,3.859.316,5.84-6.996-3.03-19.806-15.514-20.616-20.575,3.182,2.928,6.772,3.956,10.168,5.433-3.753-4.094-8.493-7.261-11.125-12.281-.799-1.522-1.502-3.177-1.578-4.994.973-.184,1.196.616,1.589,1.085,3.305,3.926,7.032,7.409,10.921,10.749v-.002ZM275.119,56.865c6.64,4.307,13.992,5.514,21.639,5.891,5.693.285,11.456.291,16.746,2.882,3.62,1.777,6.986,3.886,9.078,8.244-7.296-1.71-13.737.652-20.295,1.578-7.607,1.075-14.842.911-21.471-3.661-2.251-1.553-4.099-3.299-5.372-6.074,3.294.351,6.181,1.446,9.155,2.149.764.184,1.553.25,2.332.377.591.097,1.273.234,1.482-.504.208-.749-.514-1.029-1.018-1.207-1.848-.652-3.737-1.182-5.59-1.818-4.318-1.487-8.213-3.701-11.818-6.528-1.955-1.533-4.231-2.653-6.909-4.298,4.786-.28,8.681.789,12.042,2.968h0ZM256.713,56.941c.494-.677,1.207-.255,1.879-.05,8.732,2.597,13.406,8.799,16.201,17.179,2.622,7.867,4.72,15.81,5.983,23.981.484,3.141-.169,6.202-.947,10.051-4.338-6.299-9.236-11.126-15.147-14.899-2.398-1.532-4.638-3.31-6.981-4.934-6.334-4.414-8.172-11.293-9.919-18.182-.524-2.062-.662-4.216-1.028-6.324-.077-.428-.131-.799.275-.988.611-.285,1.161-.052,1.578.433,1.701,1.95,2.754,4.237,3.31,6.731.703,3.172,1.497,6.308,3.004,9.216.265.509.423,1.115,1.069,1.319.097.264.194.525.295.789.072-.067.214-.168.204-.189-.121-.234-.27-.453-.407-.673-.871-6.675-2.062-13.268-5.316-19.755,3.589.876,5.254,3.442,6.161,6.248,1.431,4.45,3.37,8.513,7.25,12.612-2.169-4.848-1.869-9.368-3.625-14.2,3.589,3.31,5.463,6.858,7.042,10.636s2.261,7.927,4.796,11.334c-1.991-5.81-2.123-12.093-4.74-17.739-1.66-3.579-4.073-6.472-7.378-8.625-.988-.641-2.011-1.242-2.953-1.945-.657-.494-1.191-1.228-.606-2.026h0ZM242.237,41.926c5.479-1.522,11.996,4.974,13.04,8.834.198.743-.141,1.37-.769,1.772-.764.488-1.263-.062-1.782-.53-1.696-1.538-2.648-3.946-5.382-4.582,0,2.225,1.12,4.185.825,6.349-.397,2.947-1.146,3.386-3.671,1.818-1.416-.881-2.831-1.767-4.262-2.623-.233-.142-.55-.151-1.354-.356.901,2.047,1.649,3.768,2.418,5.484.295.657.54,1.293-.117,1.874-.657.581-1.339.361-1.849-.142-3.024-3.004-3.875-6.736-3.36-10.814.443-3.447,3.076-6.197,6.263-7.083h0ZM160.721,153.815c.672-11.589,2.475-23.039,3.559-34.572,1.125-11.95,2.963-23.777,5.499-35.488,3.371-15.575,8.595-30.524,17.337-43.931,7.805-11.97,19.119-18.33,33.538-16.558,9.247,1.136,16.039,5.632,17.77,13.992.241,1.156,1.293,2.866-.29,3.345-1.344.407-1.843-1.532-2.306-2.612-2.694-6.263-7.816-9.71-14.053-11.12-12.235-2.769-22.418,1.043-29.837,11.186-10.326,14.114-16.415,30.036-19.959,47.123-2.917,14.068-4.43,28.309-6.196,42.52-1.39,11.202-2.123,22.484-3.131,33.732-.901,10.066-1.37,20.173-2.917,30.178-.102.657,0,1.39-1.033,2.047-.718-7.469-.067-14.73.636-21.935.575-5.963,1.039-11.94,1.385-17.908h0ZM171.097,115.729c-.243-16.573,18.646-40.346,35.926-45.188-3.3,4.98-5.728,10.03-7.286,15.484-1.4,4.904-2.52,9.883-5.199,14.353-2.459,4.109-5.494,7.689-9.129,10.738-4.542,3.814-8.717,7.943-12.123,12.821-.316.453-.509,1.099-1.95,1.217,5.224-15.734,15.489-28.34,23.187-42.352-10.346,9.053-16.578,21.018-23.427,32.927h0ZM171.927,5.954c-1.711,4.109-3.972,7.693-4.654,11.864-.754,4.562-1.227,9.104-.652,13.758.596,4.837-.067,9.643-1.492,14.272-2.775,8.996-5.697,17.943-8.375,27.047,1.4-17.444,1.818-34.933,3.783-52.342-5.896,12.841-5.545,26.756-6.858,40.549-6.583-18.08,2.342-49.46,18.248-55.147h0ZM78.415,42.365c2.352-6.456,7.902-8.691,13.681-8.615,3.055.05,4.155,2.775,4.74,5.295.703,3.014-.052,6.054-.616,9.038-.131.703-.448,1.71-1.476,1.508-1.12-.223-.693-1.242-.662-1.961.082-1.883.067-3.747-.916-5.443-.285-.494-.586-1.126-1.293-.942-.545.137-.596.748-.636,1.228-.141,1.716-.845,3.227-1.756,4.638-.611.953-1.573,1.649-2.719,1.425-1.085-.208-1.293-1.314-1.614-2.265-.876-2.612-.052-5.173.438-8.055-2.801.999-3.885,3.044-4.944,5.122-.382.754-.662,1.975-1.751,1.584-1.222-.433-.789-1.68-.474-2.556h0ZM59.087,80.511c-2.729,3.35-5.433,6.711-8.152,10.071,3.035-1.201,5.708-2.739,8.111-4.959.499,2.017-.164,3.412-1.166,4.832-3.64,5.147-7.739,9.919-11.848,14.684-2.561,2.974-4.72,6.232-6.894,10.412-1.838-4.344-1.527-8.101-.952-11.797.799-5.128,3.493-9.384,7.052-13.019,4.664-4.765,9.521-9.343,14.292-14.002,1.237,1.374.54,2.577-.443,3.778ZM58.985,71.555c-7.927,7.876-17.459,9.73-28.044,7.576-4.078-.83-7.989-.717-11.828,1.003-.616.275-1.359,1.043-2.088.111-.652-.835,0-1.492.371-2.144,4.654-8.366,12.306-12.322,21.329-13.569,9.954-1.374,19.216-3.961,26.767-11.034,1.991-1.864,4.389-3.233,7.698-4.619-9.974,9.216-18.35,19.16-30.448,24.542,7.541-1.186,13.722-5.137,20.27-9.445-.336,3.498-2.006,5.57-4.028,7.577ZM62.667,95.058c.835-10.479.575-20.703,4.755-30.27,2.75-6.283,6.385-11.915,12.627-15.514-5.82,7.057-8.381,15.351-9.623,24.21,3.615-7.953,8.401-15.198,12.805-23.136,2.658,7.143-12.108,39.032-20.565,44.709h0ZM69.474,121.06c-.107.151-.28.255-.738.662-3.442-11.003-2.989-21.272,4.155-31.105-.208,1.975-.453,3.615-.535,5.265-.087,1.762,0,3.528.218,5.357,2.459-5.764,2.744-12.139,4.867-18.274,1.634,1.971,2.026,4.078,1.904,6.303-.626,11.426-3.04,22.296-9.873,31.792h0ZM94.357,118.972c-.392,1.069-.713,2.225-2.164,3.086-.243-11.929-4.99-22.398-8.554-33.177-2.342-7.092-3.259-14.078-.208-21.247,1.171-2.755,1.696-5.789,2.729-9.454,1.864,7.943-.983,15.346,1.237,22.846.911-9.949,3.854-19.312,2.698-29.842,2.648,2.78,3.223,5.682,3.172,8.315-.316,15.295,3.258,30.305,3.152,45.564-.052,4.719-.418,9.419-2.062,13.911v-.002ZM101.821,64.121c2.352,6.349,6.625,11.008,12.021,14.883,5.718,4.104,10.927,8.712,13.645,15.489,1.426,3.555,2.093,7.159.927,10.927-.382,1.228-.942,2.332-1.945,3.121-.764-.417-.789-1.048-.82-1.594-.443-6.787-4.638-10.784-10.224-13.701-2.699-1.405-5.555-2.521-8.203-4.012-5.275-2.974-8.808-7.27-9.903-13.879,4.093,2.118,7.311,4.811,11.425,6.105-9.007-6.385-12.867-15.077-12.143-25.845,2.48,2.475,4.068,5.413,5.219,8.508h0ZM156.744,109.96c-2.643-18.589-5.754-37.087-13.559-54.368-4.287-9.491-8.508-19.083-15.02-27.332-3.92-4.964-8.472-9.216-15.071-10.666-7.953-1.751-15.957,3.1-17.709,11.094-.233,1.069-.112,2.392-1.746,2.026-1.446-.321-1.242-1.553-1.044-2.637,1.813-10.03,12.286-19.506,26.588-11.568,6.716,3.727,11.614,9.348,15.463,15.875,9.45,16.039,16.385,33.07,19.974,51.389,2.49,12.713,4.745,25.468,5.061,38.467.05,1.099.184,2.26-.728,3.981-.8-5.896-1.476-11.08-2.21-16.262h0ZM14.541,203.397c-3.34.05-6.604.641-10.107,1.832.428-3.132,1.904-5.316,3.773-7.337,5.193-5.611,11.573-9.13,19.073-10.382,9.119-1.522,16.914-5.55,23.732-11.675,1.731-1.553,1.777-1.502,4.282-2.241-1.589,3.585-3.783,5.998-6.808,7.597-6.171,3.259-12.383,6.431-18.569,9.664-1.197.627-2.337,1.365-3.416,2.209,7.067-.957,13.416-3.951,19.868-6.69-8.676,9.328-18.253,16.904-31.828,17.022ZM20.295,236.278c-.326.326-.85.743-1.217.687-.744-.116-.585-.902-.626-1.451-.31-4.17-.29-8.376,1.859-12.077,5.102-8.788,10.866-17.092,18.706-23.737.121.132.26.255.402.361-3.376,5.107-6.772,10.203-10.117,15.336-.794,1.217-1.421,2.535-2.128,3.808-.697.978-1.39,1.95-2.088,2.923.169.111.341.223.509.336.682-.902,1.359-1.802,2.042-2.704,3.416-3.223,6.838-6.442,10.265-9.674.223,2.434-.713,4.867-1.899,7.148-3.869,7.455-9.867,13.192-15.708,19.042h0ZM35.463,254.053c-2.979-6.202-2.276-27.984,2.978-32.134.305,2.459.509,4.862.927,7.235.621,3.544.962,3.712,4.766,2.734-1.619,7.989-3.763,15.514-8.671,22.164ZM63.324,204.837c-.214,3.442-.794,6.849-1.716,10.157-2.266,8.121-2.037,16.578-3.539,24.797-.998,5.448-2.902,10.469-6.691,15.651.418-10.758-3.228-20.311-2.739-30.26.27-5.54,2.78-10.27,6.202-14.608-1.629,5.621-1.751,11.258-.657,17.184.962-1.156.83-2.368.881-3.513.305-7.097,2.638-13.661,5.27-20.147.458-1.125,1.095-2.484,2.373-2.149,1.313.356.677,1.883.616,2.887h0ZM66.109,177.668c-.881,2.907-1.629,5.876-2.775,8.681-2.943,7.235-7.296,13.696-11.716,20.061-3.854,5.554-6.517,11.614-8.834,17.887-.189.509-.194,1.186-1.11,1.411-2.296-16.238,2.103-30.591,11.604-43.605,3.513-4.811,5.886-7.052,9.231-7.892-6.054,7.067-8.788,15.295-11.843,23.992.636-.504.922-.611.993-.8,2.734-7.148,8.192-12.688,11.507-19.491.214-.438.504-.85.815-1.222.428-.514.881-1.217,1.67-.851.779.361.651,1.182.458,1.828ZM83.314,223.875c.896,6.828-.478,13.467-4.801,20.071.29-6.715-1.645-12.144-4.735-17.124-6.258-10.076-7.515-21.126-6.634-32.597.351-4.603,1.191-9.155,2.561-13.585.194-.627.112-1.573,1.039-1.522.896.052,1.334.902,1.385,1.68.117,1.761.174,3.544.067,5.306-.443,7.449.458,14.822,1.278,22.19.131,1.171.927,2.265,1.604,3.345-.983-9.211-.652-18.38-.087-27.626,1.65,2.424,2.571,5.168,3.07,7.913,1.909,10.622,3.849,21.253,5.254,31.949h0ZM76.292,174.252c-.687.978-1.37,2.903-2.622,2.118-1.278-.8-2.23-2.577-1.105-4.506,1.497-2.566,2.413-5.367,3.019-8.269.159-.764.418-1.508-.121-2.445-2.434,2.341-3.238,5.616-5.102,8.193-.911,1.263-1.456,3.865-3.315,3.004-1.899-.881-.184-2.984.198-4.455.647-2.495,2.286-4.541,3.554-6.757.519-.911,1.263-1.742,1.171-3.305-4.842,1.716-6.95,5.657-9.155,9.47-.519.897-.606,2.464-1.96,2.037-1.029-.321-.514-1.726-.433-2.643.382-4.231,5.789-10.356,9.837-11.221,4.725-1.008,8.412,2.052,8.651,7.806.159,3.782-.29,7.673-2.617,10.972h0ZM148.282,189.028c-1.354-4.348-2.678-8.6-3.992-12.856-2.648-8.559-5.677-16.874-11.105-24.226-6.263-8.493-14.786-12.612-24.847-14.237-9.196-1.487-17.047,1.37-23.778,7.601-1.894,1.757-3.121,4.032-4.445,6.222-.535.886-.942,2.408-2.23,1.751-.916-.469-.218-1.762.067-2.704,2.113-6.96,7.016-11.191,13.523-13.824,10.891-4.409,21.303-2.974,31.451,2.494,12.164,6.558,18.355,17.307,21.502,30.224,1.466,6.008,3.539,11.873,4.231,18.059.052.438.341.921-.377,1.492v.002ZM136.882,130.984c21.502,12.459,17.082,72.316,16.935,96.909-.052,5.306.397,10.611.56,15.917.052.916.29,1.91-.524,3.101-1.003-2.521-1.095-4.934-1.166-7.291-.443-14.842-.911-29.689-1.436-44.531-.585-16.569.55-47.958-14.369-64.104h0ZM143.511,235.026c.835,1.522,1.436,3.213,1.981,4.878,4.537,13.809,13.065,24.175,26.156,30.631,2.266,1.12,3.936,2.556,4.078,5.255.117,1.98-.687,3.014-2.902,2.526-2.266.228-4.134,1.808-4.481,3.701-.575,3.157-2.729,3.789-4.995,3.819-2.556.05-4.822-1.177-5.484-4.018-2.5-10.479-9.302-18.462-15.703-26.613-2.352-2.984-5.427-5.28-8.931-7.092-5.83-2.958-6.171-8.096-1.003-12.118,1.38-1.064,2.872-2.068,4.394-2.958,2.872-1.654,5.311-.999,6.889,1.991h0ZM207.304,280.963c7.434,7.724,11.741,16.939,11.456,27.933-.052,1.869-.489,3.676-1.206,5.397-.575,1.406-1.523,2.265-2.785,2.011-2.729-.057-4.796-.978-6.604-2.297-7.78-5.682-14.038-12.775-19.007-21.043-1.319-2.154-1.808-4.506-2.123-6.919-.489-3.733-2.469-6.345-5.743-7.983-.916-.458-1.609-.717-1.553-2.037.117-4.078-1.894-7.377-5.601-8.498-7.434-2.265-8.386-7.693-8.585-14.242-.26-7.867-.748-15.734-.489-23.599.228-7.092.774-14.186,1.176-21.273.052-.402,0-.774.458-.916.545-.142.718.285.891.601,2.984,4.853,6.777,9.13,8.381,14.959,1.263,4.506,5.285,7.923,6.777,12.576.228.717,1.207,1.349,1.981,1.721,9.073,4.363,12.948,12.056,13.666,21.619.316,3.936,1.232,7.347,4.908,9.389.978.52.86,1.263.601,1.98-1.594,4.445.331,7.434,3.401,10.622ZM169.611,326.181c-2.729-2.241-5.57-4.333-8.355-6.517-4.134-3.243-8.814-5.397-13.783-7.032-3.702-1.233-4.679-3.789-3.101-7.409,1.38-3.157,3.819-5.397,6.461-7.495,4.19-3.329,8.584-.315,9.272,3.472.631,3.503,2.296,6.202,4.537,8.697,6.716,7.581,13.177,15.387,22.021,20.758,3.992,2.383,8.152,4.104,12.663,5.168,2.067.458,3.646,1.548,3.646,3.962,0,3.132-4.822,8.411-8.528,9.359-2.525.631-4.766-1.003-7.062-4.649-4.593-7.353-11.14-12.892-17.77-18.315h0ZM182.931,343.777c-1.894-.948-4.42-1.207-4.537-4.735,1.38,1.263,2.383,2.154,3.36,3.101.489.458.891,1.003,1.176,1.635h0ZM169.168,330.498c2.648,1.64,3.625,3.564,3.569,6.125-.05,1.619-.591,1.619-1.731.8-2.358-1.696-1.649-4.15-1.838-6.925ZM161.592,327.703c-.316.819.478,2.398-.769,2.413-1.349,0-1.11-1.578-1.069-2.586.052-.865-.407-2.362,1.013-2.26,1.36.092.621,1.553.825,2.434ZM156.663,326.435c-2.785-1.925-3.447-5.112-5.6-8.04q5.799,2.586,5.6,8.04ZM143.313,272.118c-1.293-.545-3.187-.259-1.405-2.612.601-.805-.835-1.578-1.721-2.011-4.252-2.011-8.702-2.036-13.208-1.263-.662.116-1.349.545-1.981.228-.835-.428-2.24-.316-2.383-1.406-.141-1.003.977-1.522,1.751-2.123,3.615-2.841,4.394-6.486,2.24-10.392-.458-.83-1.064-1.98-1.838-2.209-3.131-.86-3.218-3.044-2.872-5.626.285-2.123-.316-4.018-1.721-5.713-1.492-1.807-2.21-3.905-1.578-6.949,1.151,3.157,2.556,5.57,5.31,6.833.662.315.372,1.034.372,1.609-.052,4.624,1.925,8.239,5.972,10.392,9.705,5.112,15.102,14.013,20.356,22.969,2.154,3.646,1.349,8.009,1.293,12.602-4.939-2.755-10.193-3.59-14.414-6.715-1.232-.916-3.274-1.782-2.841-3.299.346-1.15,2.581-.947,4.048-1.003,1.176-.05,2.296.087,3.473.458,1.176.372,2.754.774,3.218-.891.367-1.416-.896-2.388-2.072-2.877h0ZM118.477,262.444c-1.894-3.416-1.207-5.769,1.319-7.607.891-.601,2.037-1.609,2.984-.228.687,1.064,1.436,2.352.087,3.676-1.375,1.344-3.294,2.031-4.389,4.159h0ZM167.911,306.965c-3.116-2.744-4.481-6.303-5.377-10.102l.169-.142-.169.142c-1.935-1.609-3.712-3.299-5.978-4.608-2.215-1.283-1.365-4.395-1.624-6.995,4.567,2.683,5.743,7.363,7.77,11.461,1.451,1.14,2.831,2.378,4.241,3.553,2.159,1.797.545,4.435.967,6.69h0ZM171.562,303.009c11.482,7.205,20.499,16.278,27.189,28.137-4.394-.372-7.607-2.438-10.794-4.506-4.221-2.699-7.78-6.232-11.543-9.562-4.134-3.676-4.852-8.468-4.852-14.068ZM202.05,329.74c-1.033-1.925-2.184-3.789-3.36-5.626-7.006-10.652-16.568-19.638-27.678-25.926-2.525-1.436-5.453-3.157-5.799-6.028-.057-.488-.052-1.003.198-1.406.198-.316.514-.545.804-.774,2.556-1.925,5.081-3.819,7.637-5.743,1.263-.978,2.668-1.98,4.252-2.123,2.067-.142,4.104,1.38,4.537,3.386.198.978.057,1.98.141,2.958.174,1.839,1.09,3.504,2.067,5.082,3.992,6.604,8.844,12.719,14.353,18.116,4.104,4.048,8.869,7.836,14.557,8.758,2.011.316,4.364.433,5.514,2.123,2.556,3.733-2.556,9.761-5.367,11.772-2.067,1.436-4.852,2.154-7.149,1.09-2.266-1.039-3.529-3.447-4.71-5.656h.002ZM110.697,194.599c.346-4.078,1.12-8.126,1.807-12.174.519-3.132.519-6.232.052-9.389-.174-1.145-.198-2.413.117-3.504.285-.978-.057-2.668,1.609-2.729,1.405-.057,2.556.717,3.33,1.98,1.696,2.668,1.838,5.743,2.439,8.67,1.003,4.964,1.634,9.99,4.42,14.471,1.609,2.556-.749,1.98-2.414,1.98-2.698-.142-5.137,1.293-7.52,2.841-2.439,1.584-4.048.81-3.819-2.149l-.021.002ZM113.772,209.014c-1.523-1.406-2.154-3.014-1.925-4.994.117-.916.489-1.807,1.349-2.154,2.984-1.233,5.998-2.383,8.987-3.534,2.037-.805,2.872.142,3.131,2.068.346,2.815-.117,5.682.575,8.528,1.319,5.453,3.702,10.076,8.727,13.035,1.696.978,2.902,2.352,2.698,4.252.228,1.839-.835,2.494-2.067,2.494-2.5-.057-3.992,1.869-5.998,2.785-1.319.576-.052,1.925-1.232,2.729-2.296,1.492-3.218,1.436-4.567-1.12-1.293-2.438-1.232-5.168-1.405-7.749-.468-6.69-3.483-11.975-8.274-16.34h0ZM118.247,269.65c.433.316.835.631,1.263.916,2.643,1.839,5.601,3.213,8.065,5.28,2.469,2.037,4.364,4.679,6.889,6.66,3.732,2.958,8.467,4.221,12.775,6.232.835.372,1.696.835,2.24,1.578.891,1.176.316,3.386-.891,4.221-.545.347-1.436.199-1.609-.433-2.414,1.293-4.221,3.701-4.71,6.4-.198.916-.285,2.011-1.09,2.526-.835.576-2.011.142-2.902-.402-3.503-2.154-5.799-5.743-8.213-9.073-7.551-10.249-17.454-18.748-28.712-24.633-1.578-.835-3.33-1.751-3.875-3.447-.489-1.466.087-3.07.774-4.45.544-1.09,1.206-2.209,2.327-2.669,1.207-.519,2.612-.116,3.849-.488,2.123-.601,3.447-3.299,5.657-3.273,1.696,0,2.927,1.721,3.3,3.386.346,1.665.117,3.386.433,5.082.524,2.658,2.307,4.867,4.43,6.588h0ZM131.053,301.345c-6.319-.631-11.166-3.789-15.534-7.836-1.807-1.665-3.447-3.504-5.57-4.765-1.981-1.207-2.011-3.157-1.578-4.964.433-1.721.458-3.472.662-5.682,4.969,2.785,7.724,7.663,11.914,10.825,4.364,3.264,6.894,7.918,10.107,12.424h0ZM113.797,223.744c.228.259,1.09,1.548.117,1.98-1.349.576-2.327-.488-3.3-1.578,1.115-.377,2.062-1.609,3.182-.402h0ZM97.03,252.196c2.154-3.732,4.567-7.377,5.112-11.772.346-2.729.141-5.514.514-8.239.316-2.413.718-5.05,3.763-5.657,1.696-.345,5.83,3.132,6.517,5.367.26.717.316,1.522.433,2.093-.117,3.157-1.634,5.341-4.277,6.4-2.754,1.09-2.352,2.184-.575,3.849,1.751,1.579,3.473,3.213,4.593,5.341.346.631.947,2.241-.631,1.635-5.254-2.011-8.758,1.492-12.749,3.528-1.064.545-2.184,2.154-3.187,1.237-1.09-.942-.169-2.607.489-3.784h0ZM91.145,272.806c.26-1.293,1.003-2.037,2.413-2.123,2.21-.173,4.078.601,6.344,2.241-2.927.087-5.198.315-7.347,1.145-1.41.545-1.583-.199-1.41-1.263ZM90.111,282.312c.805-2.928,4.191-5.168,7.78-5.137,2.698-.087,4.252,1.207,4.506,3.905.117,1.09.228,2.154.26,3.243.052,2.413.947,4.247,2.754,5.912,4.537,4.19,8.758,8.67,14.414,11.543,3.615,1.839,7.291,3.447,11.339,3.789,4.017.347,6.344,2.897,8.096,6.028,1.034,1.839-1.436,2.815-2.011,2.581-3.299-1.319-3.646,1.492-4.822,3.101-.458.631-.662,1.405-1.003,2.098-1.319,2.699-2.958,3.157-5.311,1.379-1.089-.835-2.266-1.782-2.841-2.958-2.958-6.288-8.238-10.392-13.294-14.786-4.104-3.534-8.152-7.092-12.286-10.596-1.033-.891-2.184-1.665-3.386-2.352-3.62-2.068-5.025-4.624-4.196-7.749h0ZM118.909,318.167c-5.769-1.233-13.121-8.299-13.406-13.122,4.704,4.338,10.591,7.037,13.406,13.122ZM88.675,302.093c-.86-2.526.057-4.593,1.807-6.375,1.752-1.782,3.447-1.12,5.198.173,1.696,1.263,3.416,2.438,5.198,4.481-4.251-.631-7.724-.142-10.621,2.383-1.095.916-1.324.082-1.583-.662h0ZM123.273,340.392c-2.037.057-3.386-1.696-4.42-3.447-5.453-9.359-12.663-16.624-23.314-20.011-3.819-1.237-5.285-4.481-4.45-8.468.575-2.642,3.615-4.648,7.205-4.624,2.067-.087,3.157,1.233,3.274,3.187.198,3.503,2.184,5.688,4.679,7.749,6.258,5.198,13.004,9.389,20.932,11.512,2.383.662,3.615,3.157,2.067,4.307-2.266,1.634-2.154,4.048-3.3,5.998-.779,1.349-.809,3.706-2.673,3.793h0ZM160.324,366.674c-2.368,8.619-5.657,16.925-8.422,25.407-2.159,6.625-4.007,13.324-5.01,20.249-.371,2.581.321,5.137-.204,7.724-1.411-3.141-1.955-6.44-1.583-9.806.891-8.136,3.584-15.829,6.029-23.58,2.205-7.001,5.3-13.727,6.293-21.094.107-.794.107-2.068,1.767-1.563,1.634.499,1.492,1.344,1.13,2.663h0ZM178.41,402.382c1.848,3.844,3.956,7.455,6.762,10.647.901,1.029,1.711,2.057,2.169,3.916-5.682-3.024-8.961-7.464-11.085-12.861-3.936-10.011-6.313-20.413-7.632-31.064-.097-.774-.616-1.991.621-2.235,1.39-.275,1.049,1.048,1.232,1.828,2.368,9.995,3.401,20.326,7.933,29.77h0ZM177.361,364.536c-.433,1.522-1.609,2.154-2.984,2.47-.489.116-.978.087-1.293.116-2.5.052-4.364-1.064-6.029-2.438-10.132-8.441-21.818-13.696-34.45-17.082-4.134-1.09-5.081-2.612-4.252-6.803.052-.199.052-.433.087-.601,1.064-2.581,1.609-6.028,4.822-6.518,2.872-.433,4.883,2.011,6.548,4.247,5.453,7.409,13.523,11.14,21.446,15.015,5.397,2.612,10.682,5.311,15.188,9.359.744.657,1.232,1.228.917,2.235h0ZM144.576,336.945c4.018,2.928,9.562,3.875,11.828,8.956-4.481-2.383-8.956-4.649-11.828-8.956ZM176.587,357.327c-7.464-8.096-15.616-15.417-25.092-21.161-3.36-2.037-6.92-3.615-10.708-4.735-1.09-.316-2.154-.86-3.187-1.405-6.085-3.014-4.165-9.216-.087-11.655,4.567-2.729,7.408-2.897,10.132,2.383,5.626,10.998,15.733,17.2,26.268,22.683,3.131,1.609,6.461,2.785,9.705,4.165,2.352,1.003,3.875,2.612,3.849,5.917-.402,2.897-2.785,4.568-5.682,5.912-2.556,1.201-3.849-.667-5.198-2.103h0ZM196.968,372.861c-2.184,1.207-4.48,1.95-7.006,1.98-4.017-.142-6.833-2.265-8.615-5.682-1.003-1.894-.458-3.849,1.151-5.311.662-.576,1.492-.916,2.24-1.406,2.24-1.492,4.134-2.209,5.886.948,1.151,2.098,3.702,2.755,5.916,3.559,1.293.488,2.327.916,2.352,2.526.052,1.578-.631,2.637-1.925,3.386h0ZM196.597,362.897c-3.045-1.293-4.766-3.646-5.57-6.715.228-1.405.489-2.699,2.21-2.699,5.998,0,8.9-4.307,11.884-8.468.346-.488.489-1.09.835-1.548.489-.687,1.176-1.09,2.037-.916.86.199.774.978.947,1.665.489,2.068.947,4.165,2.098,6.059,2.24,3.701,5.397,5.855,9.761,6.146.835.057,1.609.116,1.95.947.433.978-.228,1.696-.804,2.352-1.033,1.177-2.5,1.696-3.905,1.894-3.157.488-5.799,1.869-8.096,3.962-1.807,1.635-3.589,1.839-5.83.576-2.378-1.36-5.015-2.19-7.515-3.254h0ZM228.521,356.038c.26-.433.489-.891.86-1.177,1.12-.86,2.037-2.5,3.732-1.751,1.838.805,2.5,2.612,2.785,4.252-.057,4.506-5.428,10.051-9.761,10.249-1.95.116-3.243-1.15-4.277-2.612-.402-.576-.285-1.15.371-1.466,3.218-1.584,4.537-4.71,6.288-7.495h0ZM206.301,380.269c-2.643,0-5.601-2.327-5.601-4.333,0-2.327,1.349-4.71,3.559-5.168,4.134-.86,8.152-1.696,11.425-4.624.86-.748,1.838-.111,2.612.606,3.274,2.928,3.045,6.975-.687,9.302-3.671,2.26-8.035,2.75-11.308,4.216ZM233.144,387.907c1.064,1.406,2.154,2.785,3.274,4.165,3.3,4.134,6.691,8.152,10.193,12.088,1.176,1.293,2.352,2.586,3.559,3.875l-.052.052c1.003,1.12,2.037,2.184,3.07,3.273-3.014,1.15-5.397,3.386-8.238,4.797-.545-1.12-1.232-2.123-1.981-3.07l-.05.05c-1.064-1.319-2.24-2.556-3.386-3.819-.662-.748-1.293-1.466-1.894-2.241-1.665-2.184-3.702-4.078-5.514-6.146-4.45-5.137-10.051-8.04-16.736-9.017-2.984-.433-5.769-1.379-7.266-4.333-1.003-1.95-.978-3.59,1.522-4.363.749-.228,1.466-.748,2.21-.774,5.198-.285,9.129-2.668,11.741-7.464,2.067,2.958,4.165,5.855,6.288,8.727,1.064,1.425,2.128,2.831,3.218,4.242l.041-.042ZM243.22,346.446c3.447,1.751,5.54,4.679,5.484,8.152-.174,10.997,5.856,18.864,12.663,26.328.947,1.064,1.95,2.098,2.984,3.101.117.173.285.316.433.458.804.805,1.609,1.578,2.439,2.297,1.232,1.15,2.5,2.241,3.788,3.273,1.293,1.064,2.612,2.068,3.961,3.014.117.458.458,1.176.285,1.349-3.014,2.755-6.084,5.453-9.129,8.152-.947-.86-1.869-1.721-2.785-2.612-6.059-5.626-12.057-11.314-18.259-16.766-3.702-3.243-8.528-4.735-12.892-6.919-.947-.488-1.95-.916-2.872-1.492-1.003-.662-1.925-1.548-1.634-2.897.26-1.207,1.553-.947,2.414-1.207,5.112-1.466,10.28-8.584,9.816-13.784-.228-2.352-1.665-4.19-3.131-5.885-.835-.948-.947-1.492.198-2.297,1.874-1.344,3.167-3.814,6.237-2.265h0ZM240.206,329.164c.052,1.869-.86,3.732-2.21,5.311-1.466,1.751-1.721,3.646-1.293,5.799.718,3.733-1.436,6.715-5.254,7.409-2.011.372-3.819.835-4.567,3.218-.458,1.492-4.852,2.612-6.69,1.751-3.589-1.696-6.461-4.078-7.205-8.299-.891-5.082,3.386-8.956,8.554-7.663,2.612.662,4.796,2.241,7.118,3.447.575.316,1.263.891,1.807.173.489-.631.141-1.263-.316-1.869-1.696-2.297-4.104-3.676-6.604-4.797-1.492-.687-2.21-1.293-1.263-3.014.947-1.751.514-4.45,2.642-5.367,3.014-1.293,6.202-2.413,9.414-2.984,2.764-.494,5.896,3.35,5.866,6.884h0ZM224.993,265.229c2.037,3.299,1.925,6.833,1.033,10.448-.141,4.247-.489,8.528.718,12.688,2.352,7.347,4.97,14.557,9.964,20.61,1.232,1.492,1.752,3.273,1.579,5.198-.285,3.07-1.609,3.849-4.623,3.936-1.838.057-4.251-1.635-5.57,1.145-1.405,2.068-3.615,1.349-5.224.86-2.037-.662-.86-2.841-.978-4.395.285-2.098.601-4.165.891-6.257.052-2.011.057-4.048.087-6.059-1.293-6.116-3.702-11.827-6.344-17.485-1.523-3.243-3.646-5.942-6.604-8.066-3.819-2.729-3.33-6.919.916-8.987,1.12-.576,2.296-1.064,3.473-1.492,1.579-.576,3.131-.488,4.165-2.642,1.207-2.521,4.964-2.037,6.518.494ZM199.438,225.52c.978,1.578,1.151,3.33,1.492,5.05,1.782,9.359,6.833,16.537,14.669,21.792,1.064.717,2.185,1.319,3.218,2.068.977.717,1.925,1.665,1.665,2.897-.285,1.319-1.319,2.271-2.612,2.586-2.154.514-4.048.805-5.198,3.299-.86,1.864-5.57,2.068-7.953,1.12-2.612-1.034-2.556-3.157-2.352-5.453-1.293-9.791-4.104-18.716-13.579-23.946-.748-.402-1.522-.86-2.184-1.436-2.729-2.327-2.612-4.078.433-5.972,2.067-1.293,4.134-2.556,6.258-3.763,2.642-1.487,4.511-.856,6.145,1.756v.002ZM171.592,196.869c.917.978,1.864,2.037,2.556,3.218,3.218,5.514,7.866,9.445,13.35,12.515.514.285,1.064.545,1.523.891,1.696,1.319,3.875,2.612,3.157,5.137-.631,2.123-3.045,1.548-4.735,1.98-.458.087-.917.228-1.466.372q1.578,1.466-.087,2.668c-3.819,2.729-5.514,2.352-6.319-2.098-1.176-6.288-5.54-10.708-8.498-15.963-.687-1.237-1.349-2.526-2.266-3.676-.86-1.09-1.151-2.642-.631-4.19.83-2.551,1.609-2.811,3.416-.856h0ZM229.01,163.55l-30.601-.184c6.013-2.413,12.159-4.298,19.139-4.562-2.841-2.531-5.932-2.362-8.961-1.915-6.634.972-13.101,2.566-19.053,5.829-.835.458-1.798.671-3.243,1.191,8.951-13.131,30.488-16.1,42.719-.361h0ZM207.865,171.947c6.482,4.689,9.191,11.258,11.293,18.32.947,3.187,1.675,6.456,2.714,9.628,1.008,3.095,2.591,5.917,4.216,8.691,1.502-5.545-3.391-21.991-9.124-29.77,3.875,1.115,6.105,3.447,8.024,6.049,5.209,7.057,6.487,15.271,6.476,23.732,0,6.787-2.174,13.37-2.225,20.178,0,.25-.265.494-.413.754-.998-.265-1.003-1.115-1.242-1.818-2.042-5.977-4.572-11.675-8.447-16.761-5.168-6.782-8.34-14.46-7.296-23.06,1.258-10.377-10.743-21.42-23.299-17.862-5.962,1.691-10.458,5.265-14.481,9.699-.764.846-1.344,1.955-3.116,2.378.57-2.535,1.731-4.317,3.101-5.963,9.531-11.411,21.884-12.836,33.818-4.196h0ZM216.627,121.738c-4.659.052-9.216.759-13.574,2.388-9.603,3.585-16.242,10.698-21.227,19.226-8.06,13.788-13.223,28.635-15.173,44.597-.794,6.497-2.546,12.872-3.63,19.343-.723,4.333-1.36,8.727-1.466,13.111-.228,9.15-.141,18.315-.067,27.469.05,3.035.438,6.065.626,9.093.052.627.331,1.533-.626,1.711-.641.121-.85-.631-1.237-1.059-2.678-2.974-1.405-6.741-2.083-10.106-.112-.545.072-1.15.117-1.731-.214-18.024,1.461-35.856,4.399-53.651,2.52-15.269,7.042-29.791,13.641-43.696,4.659-9.817,11.003-18.264,20.275-24.424,6.232-4.139,13.045-5.708,20.254-6.339,1.456-.126,1.807.819,1.925,2.036.154,1.649-.769,2.022-2.154,2.031h.001ZM219.448,112.894c-.316,1.665-.601,2.154-2.556,2.011-9.302-.545-17.368,2.984-24.72,8.381-10.881,8.009-17.342,19.236-22.424,31.41-1.033,2.495-2.037,5.05-3.07,7.582,0,.05-.174,0-.489.05.26-10.881,1.38-21.588,6.202-31.522,2.612-5.428,6.69-9.791,11.252-13.493,9.903-8.096,16.278-18.29,19.837-30.489,1.808-6.171,4.649-11.859,10.163-15.702,2.098-1.466,4.45-2.383,6.833-3.243.774-.259,1.894-.576,1.752-1.696-.117-.83-1.09-1.064-1.807-1.319-4.048-1.406-8.04-1.145-12.057.204-12.49,4.191-28.019,17.485-34.511,29.858,2.984-19.322,7.953-37.265,19.205-52.856,5.972-8.299,13.809-13.121,24.49-12.489,6.777.433,13.839,5.682,15.82,12.144.433,1.379.26,2.668-.198,4.018-1.721,5.112-1.349,10.051,1.721,14.582,1.38,2.036,1.492,3.93.514,6.232-1.665,3.875-2.21,8.126-2.872,12.23-.804,4.97-2.698,9.389-5.484,13.437-4.297,6.278-6.278,13.34-7.602,20.692v-.021ZM207.966,69.916c.087-.05.174-.057.26-.05.052,0,.057.116.117.173-.087.057-.141.116-.198.142-.067-.087-.121-.199-.179-.285v.019ZM226.673,130.7c-2.902-3.676-3.447-7.358-3.727-11.024-.626-8.299,1.303-16.095,5.912-22.993,4.246-6.359,6.828-13.127,7.871-20.723.418-3.03,1.023-6.294,2.709-9.114.489-.819.942-1.66,1.919-1.436,1.039.239.616,1.314.621,2.026.146,10.443-1.013,20.616-6.212,29.953-.418.525-1.079.957-.738,2.022.519-.631.886-1.074,1.253-1.517,4.022-4.735,6.767-10.097,7.989-16.217.169-.84.189-1.971,1.329-2.031,1.324-.076,1.517,1.166,1.619,2.072.141,1.258.131,2.577-.092,3.819-1.349,7.423-3.574,14.496-8.416,20.499-5.738,7.124-11.558,14.226-12.036,24.664h0ZM248.439,135.629c-4.002-4.781-8.895-8.284-14.577-10.733-1.543-.667-2.551-1.298-1.568-3.238,1.064-2.098,2.23-.601,3.111-.107,7.388,4.145,13.798,9.404,18.345,16.68.616.988,1.023,2.108,1.309,2.699.27,1.161-.117,1.436-.652,1.492-1.003.111-1.762-.398-2.148-1.247-.947-2.082-2.358-3.798-3.819-5.545h0ZM250.741,155.7c-.102-1.074-.052-2.163-.052-3.248,0-2.48-.228-5.096,2.465-6.461,2.927-1.476,5.927-1.323,8.696.412,4.323,2.709,7.235,6.655,8.88,11.4.529,1.522,2.8,3.763.428,4.888-1.899.902-2.362-2.057-3.427-3.315-1.929-2.281-3.518-4.873-6.303-6.798,1.344,4.022,2.622,7.709,3.788,11.426.3.962.916,2.388-.164,2.933-1.084.55-1.818-.717-2.49-1.583-2.016-2.581-3.32-5.565-4.898-8.401-.744-1.344-1.385-2.811-2.958-3.803-.947,1.334-.052,2.531.208,3.615.677,2.963,1.589,5.871,2.368,8.813.189.713.932,1.624.082,2.149-.907.555-1.726-.285-2.245-.957-2.525-3.259-4.007-6.965-4.394-11.069h.017ZM264.356,213.21c-1.018,2.852-2.235,5.728-3.895,8.239-4.277,6.477-7.602,13.213-7.337,21.919-4.822-6.838-4.827-13.604-3.269-20.585,1.09-4.888,2.225-9.766,3.381-14.644.789-3.32.535-6.639.174-9.979-.693-6.37-1.044-12.75.26-19.093.255-1.237.764-2.434,1.217-3.625.208-.545.591-1.11,1.298-.948.804.184.524.921.575,1.457.952,9.685,1.186,19.394,1.079,29.113v2.184c3.177-11.823.652-23.722,3.004-35.254,1.538.199,1.018,1.385,1.237,2.093,2.123,6.858,3.976,13.793,4.959,20.916.876,6.313-.585,12.347-2.683,18.207h0ZM281.26,240.292c-.149,1.659-.28,3.324-.484,4.98-.057.453-.238,1.069-.571,1.268-.631.377-1.059-.246-1.426-.677-1.329-1.578-2.602-3.197-3.452-5.101-4.801-10.738-6.619-21.879-4.638-33.554.159-.932.179-1.889.26-2.836,3.712,6.782,3.228,14.526,6.543,21.426v-12.246c.28-.052.56-.102.84-.159,1.889,2.531,3.376,5.224,3.9,8.482.993,6.217-.428,12.292-.973,18.417ZM290.084,222.476c-6.96-10.056-16.415-18.625-19.165-31.299-1.523-7.026-3.091-14.048-4.211-21.207,8.228,9.257,9.542,21.94,16.609,31.69-1.665-5.728-3.473-11.42-4.954-17.195-1.497-5.825-5.356-10.504-7.739-15.886,12.897,6.752,24.185,38.788,19.46,53.894v.002ZM308.083,228.144c.052,1.848.169,4.455-1.553,5.01-1.614.519-2.754-1.899-3.681-3.31-4.145-6.299-7.027-13.136-8.309-20.606-.184-1.054-.377-2.108-.682-3.824,2.632,2.515,4.73,4.797,6.782,7.194-.448-2.979-1.645-5.606-3.371-8.04-2.485-3.504-5.387-6.812-5.682-11.975,4.236,3.229,7.933,6.594,10.127,10.992,3.839,7.673,6.227,15.866,6.37,24.557h0ZM328.042,213.52c-1.243-.285-1.253-1.334-1.619-2.026-3.121-5.968-7.999-9.984-14.221-12.204-13.131-4.684-22.927-13.451-30.758-24.765,6.721,5.087,13.605,9.817,21.645,12.637-9.73-4.999-15.585-14.949-25.473-19.715-.718-.347-1.523-.636-.993-1.716.463-.948,1.283-.779,2.047-.622,3.325.692,6.385,2.068,9.063,4.119,2.495,1.915,4.959,3.911,7.184,6.125,4.409,4.395,9.567,7.5,15.346,9.694,9.104,3.458,14.923,9.928,17.52,19.312.83,2.994.54,6.003.26,9.16Z" fill="#2f3222"/></svg>